SplineFontDB: 3.2
FontName: SingScript.sg_math
FullName: SingScript.sg "math" module
FamilyName: SingScript.sg
Weight: Regular
Copyright: Copyright (c) 2025, 05524F.sg (Singapore)
Version: v2
ItalicAngle: 0
UnderlinePosition: -100
UnderlineWidth: 67
Ascent: 600
Descent: 300
InvalidEm: 0
sfntRevision: 0x00010000
LayerCount: 2
Layer: 0 0 "Back" 1
Layer: 1 0 "Fore" 0
XUID: [1021 768 647112374 32286]
StyleMap: 0x0040
FSType: 0
OS2Version: 4
OS2_WeightWidthSlopeOnly: 0
OS2_UseTypoMetrics: 1
CreationTime: 1740441635
ModificationTime: 1753806796
PfmFamily: 65
TTFWeight: 400
TTFWidth: 5
LineGap: 81
VLineGap: 0
Panose: 3 0 5 3 0 0 0 0 0 0
OS2TypoAscent: 600
OS2TypoAOffset: 0
OS2TypoDescent: -300
OS2TypoDOffset: 0
OS2TypoLinegap: 81
OS2WinAscent: 590
OS2WinAOffset: 0
OS2WinDescent: 233
OS2WinDOffset: 0
HheadAscent: 590
HheadAOffset: 0
HheadDescent: -233
HheadDOffset: 0
OS2SubXSize: 585
OS2SubYSize: 630
OS2SubXOff: 0
OS2SubYOff: 126
OS2SupXSize: 585
OS2SupYSize: 630
OS2SupXOff: 0
OS2SupYOff: 432
OS2StrikeYSize: 44
OS2StrikeYPos: 232
OS2CapHeight: 467
OS2XHeight: 300
OS2Vendor: '5524'
OS2CodePages: 00000001.00000000
OS2UnicodeRanges: 80000003.10000000.00000000.00000000
MarkAttachClasses: 1
DEI: 91125
LangName: 1033 "" "" "" "" "" "Version v2"
Encoding: Custom
UnicodeInterp: none
NameList: AGL For New Fonts
DisplaySize: -48
AntiAlias: 1
FitToEm: 0
WidthSeparation: 50
WinInfo: 81 27 9
BeginPrivate: 6
BlueValues 21 [0 0 300 300 467 467]
OtherBlues 11 [-233 -233]
StdHW 4 [67]
StdVW 4 [67]
StemSnapH 33 [52 59 63 67 73 78 86 93 159 167]
StemSnapV 4 [67]
EndPrivate
Grid
0 -50 m 28
 351 -50 549 -50 900 -50 c 1052
0 -83 m 28
 351 -83 549 -83 900 -83 c 1052
0 349 m 24
 349 349 549 349 900 349 c 1048
0 383 m 24
 350 383 549 383 900 383 c 1048
0 -200 m 24
 351 -200 549 -200 900 -200 c 1048
0 -233 m 24
 351 -233 549 -233 900 -233 c 1048
250 211 m 24
 289 211 311 211 350 211 c 1048
250 100 m 24
 289 100 311 100 350 100 c 1048
250 -100 m 24
 289 -100 311 -100 350 -100 c 1048
250 -255 m 24

StartChar: universal
Encoding: 0 8704 0
Width: 419
VWidth: 0
Flags: W
HStem: 130 66<176.699 214>
LayerCount: 2
Fore
SplineSet
176 124 m 1
 180 103 184 84 189 49 c 1
 208 109 207 110 214 130 c 1
 212 130 211 130 209 130 c 0
 195 130 187 128 176 124 c 1
161 190 m 1
 176 194 194 196 214 196 c 0
 222 196 229 196 237 195 c 1
 268 276 300 333 336 372 c 0
 342 379 352 383 361 383 c 0
 379 383 394 367 394 349 c 0
 394 337 389 331 379 319 c 0
 366 303 345 277 317 213 c 0
 292 155 273 96 258 46 c 0
 242 -6 230 -48 216 -66 c 0
 207 -78 196 -84 183 -84 c 0
 162 -84 146 -68 138 -40 c 0
 133 -24 129 1 124 31 c 0
 111 114 91 237 30 331 c 0
 26 336 25 343 25 349 c 0
 25 367 40 383 58 383 c 0
 69 383 81 377 87 367 c 0
 119 318 143 260 161 190 c 1
EndSplineSet
Validated: 1
EndChar

StartChar: uni2201
Encoding: 1 8705 1
Width: 281
VWidth: 0
Flags: W
HStem: -83 67<101.02 163.408> 316 67<116.695 187.88>
VStem: 25 67<-10.873 287.219>
LayerCount: 2
Fore
SplineSet
156 383 m 0
 203 383 256 343 256 309 c 0
 256 291 240 275 222 275 c 0
 203 275 196 286 189 296 c 0
 182 306 175 316 156 316 c 0
 140 316 122 306 114 293 c 0
 101 270 92 201 92 120 c 0
 92 65 96 16 102 -10 c 1
 108 -15 112 -16 120 -16 c 0
 135 -16 149 -6 163 3 c 0
 177 12 191 21 206 21 c 0
 224 21 240 6 240 -12 c 0
 240 -23 234 -33 226 -39 c 0
 185 -69 152 -83 120 -83 c 0
 94 -83 70 -73 51 -54 c 0
 34 -37 25 21 25 120 c 0
 25 220 36 292 56 327 c 0
 76 362 115 383 156 383 c 0
EndSplineSet
Validated: 1
EndChar

StartChar: partialdiff
Encoding: 2 8706 2
Width: 317
VWidth: 0
Flags: W
HStem: -84 68<100.666 166.902> 131 67<110.835 217> 316 66<119.38 192.586>
VStem: 25 67<-8.00352 112.522> 225 67<193 274.961>
LayerCount: 2
Fore
SplineSet
164 316 m 0
 141 316 127 303 113 291 c 0
 99 279 85 267 62 267 c 0
 44 267 29 282 29 300 c 0
 29 309 33 318 39 324 c 0
 79 364 119 382 164 382 c 0
 232 382 292 296 292 197 c 0
 292 48 219 -84 137 -84 c 0
 68 -84 25 -33 25 47 c 0
 25 145 76 198 171 198 c 0
 187 198 205 196 225 193 c 1
 225 194 225 196 225 197 c 0
 225 252 192 316 164 316 c 0
92 47 m 0
 92 4 106 -16 137 -16 c 0
 166 -16 201 46 217 127 c 1
 200 130 184 131 171 131 c 0
 114 131 92 108 92 47 c 0
EndSplineSet
Validated: 1
EndChar

StartChar: existential
Encoding: 3 8707 3
Width: 271
VWidth: 0
Flags: W
HStem: -84 67<28.5645 59> -77 66<59.0928 171.799> 83 66<80.0938 178> 315 67<64 171.079>
VStem: 178 68<-9.59229 83 150 308.263>
LayerCount: 2
Fore
SplineSet
170 315 m 1x78
 121 313 77 303 66 300 c 0
 64 300 64 299 64 299 c 0
 46 299 30 315 30 333 c 0
 30 348 41 361 55 365 c 0
 100 377 141 382 202 382 c 0
 222 382 235 368 236 344 c 0
 237 325 238 308 240 271 c 0
 245 196 246 163 246 125 c 0
 246 61 240 6 230 -50 c 0
 227 -66 213 -78 197 -78 c 0
 194 -78 193 -78 190 -77 c 0x78
 187 -77 59 -84 59 -84 c 0
 41 -84 25 -68 25 -50 c 0
 25 -32 38 -18 56 -17 c 0xb8
 76 -16 145 -12 164 -11 c 0
 167 -11 169 -11 169 -11 c 0
 174 19 177 51 178 83 c 1
 107 80 106 79 86 75 c 0
 84 75 82 74 80 74 c 0
 62 74 46 90 46 108 c 0
 46 138 67 146 156 149 c 0
 167 149 173 150 179 150 c 1
 179 169 178 169 170 315 c 1x78
EndSplineSet
Validated: 1
EndChar

StartChar: uni2204
Encoding: 4 8708 4
Width: 381
VWidth: 0
Flags: W
HStem: -77 66<163.32 249.692> 299 83<133.92 141 141.001 233.217> 447 20G<315 331>
VStem: 25 65<-196.515 -135.467> 255 68<-9.59229 83 150 188.736> 255 59<150 192> 291 65<400.528 463.515>
LayerCount: 2
Fore
SplineSet
236 149 m 1xf4
 246 149 251 150 256 150 c 1
 256 163 256 177 255 192 c 1
 249 178 242 163 236 149 c 1xf4
162 -15 m 1
 190 -13 229 -12 242 -11 c 0
 245 -11 247 -11 247 -11 c 0
 252 19 254 51 255 83 c 1xf8
 255 83 255 83 254 83 c 0
 248 83 216 82 205 81 c 1
 204 78 203 75 202 73 c 0
 198 63 197 63 177 18 c 0
 173 9 168 -2 162 -15 c 1
314 329 m 1xf4
 323 150 323 149 323 125 c 0xf8
 323 61 318 6 308 -50 c 0
 305 -66 291 -78 275 -78 c 0
 272 -78 270 -78 267 -77 c 0
 264 -77 136 -84 136 -84 c 0
 135 -84 133 -83 132 -83 c 0
 111 -130 98 -161 90 -179 c 0
 86 -191 72 -200 59 -200 c 0
 41 -200 25 -184 25 -166 c 0
 25 -162 42 -125 134 84 c 1
 127 90 123 99 123 108 c 0
 123 127 135 139 160 143 c 1
 192 214 210 256 235 314 c 1
 197 312 156 303 144 300 c 0
 142 300 141 299 141 299 c 0
 123 299 107 315 107 333 c 0
 107 348 118 361 132 365 c 0
 173 376 212 381 264 382 c 1
 278 415 288 440 291 447 c 0
 296 459 308 467 322 467 c 0
 340 467 356 451 356 433 c 0xf2
 356 429 342 394 314 329 c 1xf4
EndSplineSet
Validated: 1
EndChar

StartChar: emptyset
Encoding: 5 8709 5
Width: 360
Flags: W
HStem: -34 67<171.476 233.84>
VStem: 25 67<105.565 249.11> 42 65<-128.515 -64.3412> 268 67<73.2667 235.312 383.015 440.897>
LayerCount: 2
Fore
SplineSet
198 267 m 1xd0
 119 267 92 250 92 198 c 0
 92 161 103 117 120 88 c 1
 141 136 161 182 179 224 c 0
 185 239 192 253 198 267 c 1xd0
259 236 m 1
 259 235 237 186 215 137 c 0
 193 88 171 39 171 38 c 0
 178 35 186 33 193 33 c 0
 238 33 268 88 268 171 c 0
 268 198 265 219 259 236 c 1
42 -98 m 0xb0
 42 -88 59 -50 73 -20 c 0
 80 -4 86 9 89 17 c 1
 49 61 25 129 25 198 c 0xd0
 25 287 71 326 182 333 c 0
 183 334 l 0
 184 334 l 2
 200 334 l 2
 203 334 203 334 226 332 c 2
 227 332 l 1
 247 379 261 412 269 430 c 0
 275 440 286 446 298 446 c 0
 316 446 332 430 332 412 c 0
 332 405 332 405 289 306 c 1
 320 280 335 236 335 171 c 0
 335 48 278 -34 193 -34 c 0
 174 -34 159 -31 145 -23 c 1
 144 -26 140 -36 134 -48 c 0
 125 -67 114 -93 107 -111 c 0
 103 -123 89 -132 76 -132 c 0
 58 -132 42 -116 42 -98 c 0xb0
EndSplineSet
Validated: 1
EndChar

StartChar: Delta
Encoding: 6 8710 6
Width: 371
VWidth: 0
Flags: W
HStem: -83 67<110.901 278.391>
LayerCount: 2
Fore
SplineSet
182 -83 m 0
 74 -83 25 -66 25 -27 c 0
 25 -18 28 -9 34 -1 c 0
 79 54 203 297 211 344 c 0
 211 346 211 347 211 349 c 0
 211 367 226 382 245 382 c 0
 262 382 275 370 278 353 c 0
 321 163 346 27 346 -15 c 0
 346 -63 299 -83 182 -83 c 0
109 -12 m 1
 128 -15 155 -16 182 -16 c 0
 223 -16 258 -13 279 -7 c 1
 276 30 260 116 237 226 c 1
 200 147 145 43 109 -12 c 1
EndSplineSet
Validated: 1
EndChar

StartChar: gradient
Encoding: 7 8711 7
Width: 386
VWidth: 0
Flags: W
HStem: 307 67<105.392 279.574> 309 74<105 164.79 167.129 280>
LayerCount: 2
Fore
SplineSet
166 307 m 0x80
 143 307 122 308 105 309 c 1x40
 139 190 169 92 188 34 c 1
 209 92 242 191 280 311 c 1
 244 309 203 307 166 307 c 0x80
58 383 m 0
 84 383 98 380 112 378 c 0
 126 376 140 374 166 374 c 0x80
 190 374 219 376 247 378 c 0
 275 380 303 382 327 382 c 0
 346 382 361 367 361 349 c 0
 361 327 244 -18 223 -57 c 0
 213 -75 201 -84 186 -84 c 0
 164 -84 154 -71 136 -21 c 0
 110 50 25 334 25 349 c 0
 25 368 40 383 58 383 c 0
EndSplineSet
Validated: 1
EndChar

StartChar: element
Encoding: 8 8712 8
Width: 378
VWidth: 0
Flags: W
HStem: -84 67<113.469 219.339> 96 67<97 296.45> 316 67<222.036 320.707>
VStem: 25 67<6.29026 96>
LayerCount: 2
Fore
SplineSet
155 -17 m 0
 174 -17 202 -5 230 7 c 0
 258 19 287 32 306 32 c 0
 324 32 339 16 339 -2 c 0
 339 -15 331 -26 320 -32 c 0
 248 -68 198 -84 155 -84 c 0
 68 -84 25 -18 25 117 c 0
 25 253 155 383 291 383 c 0
 309 383 324 367 324 349 c 0
 324 332 311 318 294 316 c 0
 198 305 117 242 97 163 c 1
 103 163 109 163 115 163 c 0
 198 163 248 169 311 186 c 0
 314 187 317 188 320 188 c 0
 338 188 353 172 353 154 c 0
 353 139 343 126 328 122 c 0
 261 103 203 96 115 96 c 0
 108 96 100 96 92 96 c 1
 95 15 113 -17 155 -17 c 0
EndSplineSet
Validated: 1
EndChar

StartChar: notelement
Encoding: 9 8713 9
Width: 397
VWidth: 0
Flags: W
HStem: -233 21G<57 72.5> 96 67<97 157> 122 66<264.535 349.658> 447 20G<331 347>
VStem: 25 67<6.57504 96> 32 65<-229.515 -165.525> 307 65<401.981 463.515>
LayerCount: 2
Fore
SplineSet
157 97 m 1xda
 144 97 130 96 115 96 c 0
 108 96 100 96 92 96 c 1
 94 49 102 17 115 0 c 1
 128 29 142 62 157 97 c 1xda
247 306 m 1
 170 282 113 228 97 163 c 1xd6
 103 163 109 163 115 163 c 0
 143 163 165 164 186 165 c 1
 239 287 239 287 247 306 c 1
181 -13 m 1
 216 -6 246 7 269 18 c 0
 285 26 299 32 306 32 c 0
 324 32 339 16 339 -2 c 0
 339 -15 331 -26 320 -32 c 0
 248 -68 198 -84 155 -84 c 0
 154 -84 152 -84 151 -84 c 0
 126 -143 106 -189 97 -212 c 0
 93 -224 79 -233 66 -233 c 0
 48 -233 32 -217 32 -199 c 0xb6
 32 -196 50 -151 87 -65 c 1
 44 -36 25 21 25 117 c 0
 25 251 132 363 279 382 c 1
 291 411 304 439 307 447 c 0
 312 459 324 467 338 467 c 0
 356 467 372 451 372 433 c 0
 372 426 327 319 264 175 c 1
 264 175 265 176 267 176 c 0
 279 179 318 188 320 188 c 0
 338 188 353 172 353 154 c 0
 353 139 343 126 328 122 c 0xba
 294 113 264 106 232 102 c 1
 218 70 200 30 181 -13 c 1
EndSplineSet
Validated: 1
EndChar

StartChar: uni220A
Encoding: 10 8714 10
Width: 302
VWidth: 0
Flags: W
HStem: -1 67<98.9102 171.158> 30 62<164.855 210> 108 67<109 189.528> 220 64<185.079 274.05> 233 67<137.904 249.634>
LayerCount: 2
Fore
SplineSet
123 66 m 0xa8
 135 66 146 73 158 79 c 0
 170 85 181 92 193 92 c 0
 211 92 226 76 226 58 c 0
 226 53 222 49 218 44 c 0
 214 39 210 35 210 30 c 0x60
 192 19 145 2 123 -1 c 0
 66 -1 25 48 25 117 c 0
 25 211 103 300 184 300 c 0xa8
 207 300 231 295 257 284 c 0
 269 279 277 266 277 253 c 0
 277 235 262 220 244 220 c 0x30
 233 220 223 223 214 226 c 0
 205 229 195 233 184 233 c 0
 154 233 128 214 109 175 c 1
 110 175 110 175 111 175 c 0
 121 175 135 177 150 179 c 0
 165 181 180 183 190 183 c 0
 208 183 223 167 223 149 c 0
 223 132 211 118 194 116 c 0
 129 108 128 108 111 108 c 0
 105 108 98 109 92 109 c 1
 95 82 106 66 123 66 c 0xa8
EndSplineSet
Validated: 1
EndChar

StartChar: suchthat
Encoding: 11 8715 11
Width: 388
VWidth: 0
Flags: W
HStem: -83 67<96.9304 204.998> 78 67<113.257 173 267 284.603> 315 67<126.892 231.343>
VStem: 296 67<149 235.188>
LayerCount: 2
Fore
SplineSet
58 20 m 0
 79 20 89 11 98 2 c 0
 107 -7 117 -16 138 -16 c 0
 192 -16 260 29 285 83 c 1
 279 83 273 83 267 83 c 0
 251 83 236 82 220 81 c 0
 204 80 189 78 173 78 c 0
 151 78 131 81 113 86 c 0
 99 90 89 103 89 118 c 0
 89 136 104 152 122 152 c 0
 133 152 141 150 148 148 c 0
 155 146 162 145 173 145 c 0
 189 145 204 147 220 148 c 0
 236 149 251 150 267 150 c 0
 277 150 287 150 296 149 c 1
 293 241 242 315 181 315 c 0
 165 315 151 308 138 301 c 0
 125 294 111 287 95 287 c 0
 77 287 62 303 62 321 c 0
 62 333 68 343 78 349 c 0
 113 371 148 382 181 382 c 0
 282 382 363 275 363 141 c 0
 363 77 341 29 293 -16 c 0
 247 -59 191 -83 138 -83 c 0
 84 -83 25 -47 25 -13 c 0
 25 5 40 20 58 20 c 0
EndSplineSet
Validated: 1
EndChar

StartChar: uni220C
Encoding: 12 8716 12
Width: 397
VWidth: 0
Flags: W
HStem: -233 21G<50 65.5> 83 67<100.485 144 246.427 292.964> 315 67<136.44 237.214> 447 20G<325 341>
VStem: 25 65<-229.515 -165.782> 304 68<149 235.731 407.742 459.508>
LayerCount: 2
Fore
SplineSet
190 315 m 0
 174 315 160 308 147 301 c 0
 134 294 120 287 104 287 c 0
 86 287 70 303 70 321 c 0
 70 333 76 343 86 349 c 0
 121 371 157 382 190 382 c 0
 217 382 242 375 265 361 c 1
 283 403 298 439 301 447 c 0
 306 459 318 467 332 467 c 0
 350 467 366 451 366 433 c 0
 366 429 350 387 318 313 c 1
 352 267 372 204 372 141 c 0
 372 77 350 29 302 -16 c 0
 256 -59 199 -83 146 -83 c 0
 145 -83 l 0
 119 -142 100 -189 90 -212 c 0
 86 -224 72 -233 59 -233 c 0
 41 -233 25 -217 25 -199 c 0
 25 -196 44 -152 80 -67 c 0
 53 -52 34 -30 34 -13 c 0
 34 5 49 20 67 20 c 0
 77 20 87 16 93 8 c 0
 97 3 101 -2 106 -5 c 1
 117 21 131 50 144 81 c 1
 111 86 97 97 97 118 c 0
 97 136 113 152 131 152 c 0
 135 152 139 151 143 150 c 0
 149 148 157 147 172 146 c 1
 227 273 227 273 238 299 c 1
 223 310 207 315 190 315 c 0
175 -12 m 1
 224 1 272 40 293 83 c 1
 287 83 282 83 276 83 c 0
 272 83 271 84 270 84 c 0
 269 84 l 0
 268 84 265 84 254 83 c 0
 246 82 235 81 216 80 c 1
 204 52 189 21 175 -12 c 1
285 237 m 1
 273 209 259 179 246 149 c 1
 257 150 267 150 276 150 c 0
 286 150 295 150 304 149 c 1
 303 179 297 210 285 237 c 1
EndSplineSet
Validated: 1
EndChar

StartChar: uni220D
Encoding: 13 8717 13
Width: 322
VWidth: 0
Flags: W
HStem: 1 66<91.1488 189.706> 234 66<59.1243 220.896>
VStem: 25 272
LayerCount: 2
Fore
SplineSet
220 128 m 1
 193 125 140 117 116 113 c 0
 108 112 103 110 103 110 c 0
 85 110 69 126 69 144 c 0
 69 160 81 174 97 177 c 0
 158 188 197 193 229 196 c 1
 227 211 224 216 210 221 c 0
 190 229 148 234 90 234 c 0
 72 234 56 249 56 267 c 0
 56 285 72 300 90 300 c 0
 248 300 297 272 297 182 c 0
 297 176 297 169 296 161 c 0
 290 64 219 1 139 1 c 0
 106 1 70 12 38 36 c 0
 30 42 25 52 25 63 c 0
 25 81 40 97 58 97 c 0
 74 97 87 89 99 82 c 0
 111 75 123 67 139 67 c 0
 172 67 204 90 220 128 c 1
EndSplineSet
Validated: 1
EndChar

StartChar: uni220E
Encoding: 14 8718 14
Width: 350
VWidth: 0
Flags: W
HStem: 0 21G<25 325> 280 20G<25 325>
VStem: 25 300<0 300>
LayerCount: 2
Fore
SplineSet
25 0 m 1
 25 300 l 1
 325 300 l 1
 325 0 l 1
 25 0 l 1
EndSplineSet
Validated: 1
EndChar

StartChar: product
Encoding: 15 8719 15
Width: 475
VWidth: 0
Flags: W
HStem: -234 21G<50 67 361 379> 399 67<145.96 380.052>
VStem: 25 67<-230.497 10.1191> 48 68<-53.2758 363.244>
LayerCount: 2
Fore
SplineSet
290 466 m 0xd0
 402 466 450 450 450 413 c 0
 450 411 449 392 446 356 c 0
 439 265 423 70 403 -202 c 0
 402 -219 388 -234 370 -234 c 0
 352 -234 336 -218 336 -200 c 0
 336 -188 360 136 381 393 c 1
 359 397 326 399 290 399 c 0
 212 399 141 386 128 369 c 1
 124 344 120 260 116 161 c 0xd0
 110 25 103 -136 92 -205 c 0
 89 -221 75 -234 59 -234 c 0
 41 -234 25 -218 25 -200 c 0
 25 -198 25 -197 25 -195 c 0xe0
 35 -132 42 16 48 147 c 0
 53 255 58 352 63 382 c 0
 73 437 152 466 290 466 c 0xd0
EndSplineSet
Validated: 1
EndChar

StartChar: uni2210
Encoding: 16 8720 16
Width: 442
VWidth: 0
Flags: W
HStem: -230 67<93 322> 447 20G<97.5 115 376 393>
VStem: 25 67<-162.908 72.9026> 317 67<-163.999 225.375>
LayerCount: 2
Fore
SplineSet
389 -176 m 0
 389 -215 376 -234 351 -234 c 0
 339 -234 327 -233 315 -232 c 0
 303 -231 290 -230 278 -230 c 0
 254 -230 227 -231 200 -232 c 0
 173 -233 147 -233 123 -233 c 0
 32 -233 25 -226 25 -141 c 0
 25 -38 46 214 73 437 c 0
 75 454 89 467 106 467 c 0
 124 467 139 451 139 433 c 0
 139 388 128 267 116 146 c 0
 104 25 92 -96 92 -141 c 0
 92 -149 93 -157 93 -165 c 1
 102 -165 112 -166 123 -166 c 0
 147 -166 173 -166 200 -165 c 0
 227 -164 254 -163 278 -163 c 0
 295 -163 309 -163 322 -164 c 1
 322 -164 321 -163 321 -161 c 0
 320 -144 317 -53 317 12 c 0
 317 155 329 296 351 438 c 0
 354 454 368 467 384 467 c 0
 402 467 417 451 417 433 c 0
 417 369 409 296 401 223 c 0
 393 150 384 76 384 12 c 0
 384 -3 386 -43 387 -82 c 0
 388 -121 389 -161 389 -176 c 0
EndSplineSet
Validated: 1
EndChar

StartChar: summation
Encoding: 17 8721 17
Width: 418
VWidth: 0
Flags: W
HStem: -234 67<110.034 389.707> 395 67<133.482 377.247>
VStem: 66 67<350.206 399>
LayerCount: 2
Fore
SplineSet
66 399 m 0
 66 444 89 466 138 466 c 0
 158 466 178 465 197 464 c 0
 216 463 235 462 255 462 c 0
 268 462 285 463 302 464 c 0
 319 465 337 467 350 467 c 0
 368 467 383 451 383 433 c 0
 383 416 369 401 352 400 c 0
 319 397 287 395 255 395 c 0
 246 395 222 396 197 397 c 0
 172 398 147 399 138 399 c 0
 136 399 135 399 133 399 c 0
 133 354 211 270 268 208 c 0
 296 178 318 153 325 141 c 0
 329 134 331 126 331 118 c 0
 331 75 268 9 205 -56 c 0
 168 -94 131 -132 107 -166 c 1
 112 -166 118 -167 123 -167 c 0
 148 -167 176 -166 204 -165 c 0
 232 -164 261 -163 286 -163 c 0
 318 -163 343 -165 363 -167 c 0
 380 -169 393 -183 393 -200 c 0
 393 -218 378 -234 360 -234 c 0
 348 -234 335 -233 323 -232 c 0
 311 -231 298 -230 286 -230 c 0
 283 -230 243 -231 204 -232 c 0
 165 -233 126 -234 123 -234 c 0
 51 -234 25 -223 25 -190 c 0
 25 -148 95 -74 160 -6 c 0
 205 41 247 86 262 115 c 1
 254 126 239 140 222 159 c 0
 175 209 105 283 78 347 c 0
 70 366 66 383 66 399 c 0
EndSplineSet
Validated: 1
EndChar

StartChar: minus
Encoding: 18 8722 18
Width: 327
Flags: W
HStem: 116 78
VStem: 25 277<130.047 179.953>
LayerCount: 2
Fore
SplineSet
270 127 m 0
 154 121 73 117 59 116 c 0
 41 116 25 132 25 150 c 0
 25 168 39 182 57 183 c 0
 173 189 254 193 268 194 c 0
 286 194 302 178 302 160 c 0
 302 142 288 128 270 127 c 0
EndSplineSet
Validated: 1
EndChar

StartChar: uni2213
Encoding: 19 8723 19
Width: 250
Flags: W
HStem: 0 21G<117 135> 74 68<35.4688 92.9536 160 220.327> 232 68<28.6521 217.707>
VStem: 25 196<235.485 296.05> 93 66<2.95015 72 141 199.484>
LayerCount: 2
Fore
SplineSet
58 299 m 0xf0
 59 299 61 300 62 300 c 0
 63 300 64 300 65 300 c 2
 124 300 l 2
 143 300 146 300 149 299 c 2
 188 299 l 2
 206 299 221 284 221 266 c 0
 221 248 206 232 188 232 c 2
 124 232 l 2
 104 232 101 232 98 233 c 0
 75 233 71 233 62 232 c 2
 59 232 l 2
 41 232 25 248 25 266 c 0
 25 284 40 299 58 299 c 0xf0
66 143 m 0
 68 143 70 142 72 142 c 0
 74 142 77 142 79 142 c 0
 81 142 84 142 86 142 c 0
 88 142 90 141 92 141 c 2
 93 141 l 1
 95 157 l 2
 96 161 96 165 96 173 c 0
 97 190 111 204 129 204 c 0
 147 204 163 188 163 170 c 0
 163 168 162 168 162 166 c 0
 162 164 162 163 162 161 c 0
 161 158 161 154 161 150 c 0
 161 146 160 142 160 139 c 1
 181 139 185 139 191 140 c 0
 209 140 225 124 225 106 c 0
 225 80 210 72 159 72 c 1
 159 33 l 2
 159 15 144 0 126 0 c 0
 108 0 93 15 93 33 c 0xe8
 93 60 93 65 92 74 c 1
 50 74 32 84 32 109 c 0
 32 127 48 143 66 143 c 0
EndSplineSet
Validated: 1
EndChar

StartChar: uni2214
Encoding: 20 8724 20
Width: 243
Flags: W
HStem: 0 21G<110 128> 74 68<28.4688 85.9536 153 213.327> 233 67<93.2926 152.707>
VStem: 90 66<5.25481 72 141 200.515 236.124 297.05>
LayerCount: 2
Fore
SplineSet
59 143 m 0
 61 143 64 142 66 142 c 0
 68 142 70 142 72 142 c 0
 74 142 76 142 78 142 c 0
 80 142 83 141 85 141 c 2
 86 141 l 1
 88 157 l 2
 89 161 89 165 89 173 c 0
 90 190 104 204 122 204 c 0
 140 204 156 188 156 170 c 0
 156 168 156 168 156 166 c 0
 156 164 155 163 155 161 c 0
 154 158 154 154 154 150 c 0
 154 146 153 142 153 139 c 1
 174 139 178 139 184 140 c 0
 202 140 218 124 218 106 c 0
 218 80 203 72 152 72 c 1
 152 33 l 2
 152 15 137 0 119 0 c 0
 101 0 86 15 86 33 c 0
 86 60 86 65 85 74 c 1
 43 74 25 84 25 109 c 0
 25 127 41 143 59 143 c 0
90 267 m 0
 90 285 105 300 123 300 c 0
 141 300 156 285 156 267 c 0
 156 249 141 233 123 233 c 0
 105 233 90 249 90 267 c 0
EndSplineSet
Validated: 1
EndChar

StartChar: uni2215
Encoding: 21 8725 21
Width: 340
Flags: W
HStem: 447 20G<274 290>
VStem: 25 65<-107.515 -44.8638> 250 65<403.911 463.515>
LayerCount: 2
Fore
SplineSet
281 467 m 0
 299 467 315 451 315 433 c 0
 315 426 307 407 198 158 c 0
 128 -1 107 -47 90 -90 c 0
 86 -102 72 -111 59 -111 c 0
 41 -111 25 -95 25 -77 c 0
 25 -73 142 197 207 348 c 0
 231 404 249 444 250 447 c 0
 255 459 267 467 281 467 c 0
EndSplineSet
Validated: 1
EndChar

StartChar: uni2216
Encoding: 22 8726 22
Width: 282
VWidth: 0
Flags: W
HStem: -1 21G<217 233> 281 20G<50 65>
VStem: 25 232
LayerCount: 2
Fore
SplineSet
25 267 m 0
 25 285 41 301 59 301 c 0
 71 301 82 294 88 283 c 0
 110 242 137 213 164 184 c 0
 199 146 234 108 255 43 c 0
 256 40 257 37 257 33 c 0
 257 15 242 -1 224 -1 c 0
 210 -1 197 9 192 23 c 0
 175 75 145 106 113 140 c 0
 85 169 55 201 29 251 c 0
 26 256 25 261 25 267 c 0
EndSplineSet
Validated: 1
EndChar

StartChar: asteriskmath
Encoding: 23 8727 23
Width: 268
Flags: W
HStem: 132 72<30.6954 77.7649> 140 65<188.462 239.515>
VStem: 100 67<189 256.515>
LayerCount: 2
Fore
SplineSet
58 204 m 0xa0
 66 204 72 200 80 196 c 0
 86 193 92 190 100 187 c 1
 100 229 l 2
 101 246 115 260 133 260 c 0
 151 260 167 244 167 226 c 2
 167 189 l 1
 190 200 203 205 209 205 c 0
 227 205 243 189 243 171 c 0
 243 157 235 145 223 140 c 0x60
 198 130 198 130 188 125 c 1
 217 96 l 2
 223 90 227 81 227 72 c 0
 227 54 212 39 194 39 c 0
 184 39 176 42 170 48 c 2
 133 86 l 1
 129 82 120 71 113 62 c 0
 109 57 106 52 105 51 c 0
 99 43 90 39 79 39 c 0
 61 39 46 54 46 72 c 0
 46 86 47 88 78 124 c 1
 73 126 67 129 61 132 c 0xa0
 55 135 49 138 44 140 c 0x60
 33 145 25 157 25 170 c 0
 25 188 40 204 58 204 c 0xa0
EndSplineSet
Validated: 1
EndChar

StartChar: uni2218
Encoding: 24 8728 24
Width: 219
Flags: W
HStem: 180 67<94.0805 126.53>
VStem: 25 67<123.661 171> 127 67<130.012 178.73>
LayerCount: 2
Fore
SplineSet
91 54 m 0
 50 54 25 92 25 153 c 0
 25 211 56 247 104 247 c 0
 153 247 194 206 194 158 c 0
 194 108 140 54 91 54 c 0
94 171 m 1
 94 168 l 2
 92 163 92 162 92 153 c 0
 92 142 93 132 96 123 c 1
 114 132 127 147 127 158 c 0
 127 169 116 180 104 180 c 0
 98 180 97 179 95 172 c 2
 94 171 l 1
EndSplineSet
Validated: 1
EndChar

StartChar: uni2219
Encoding: 25 8729 25
Width: 118
Flags: W
HStem: 112 66<28.1243 89.8757>
VStem: 25 68<115.293 174.707>
LayerCount: 2
Fore
SplineSet
25 145 m 0
 25 163 41 178 59 178 c 0
 77 178 93 163 93 145 c 0
 93 127 77 112 59 112 c 0
 41 112 25 127 25 145 c 0
EndSplineSet
Validated: 1
EndChar

StartChar: radical
Encoding: 26 8730 26
Width: 378
VWidth: 0
Flags: W
HStem: 490 66<286.519 350.05>
LayerCount: 2
Fore
SplineSet
320 490 m 0
 312 490 297 491 286 492 c 1
 275 445 260 351 245 253 c 0
 226 132 206 7 191 -42 c 0
 182 -71 170 -84 150 -84 c 0
 135 -84 124 -76 114 -59 c 0
 110 -53 106 -43 100 -31 c 0
 84 2 59 51 32 85 c 0
 27 91 25 98 25 106 c 0
 25 124 40 140 58 140 c 0
 68 140 79 135 85 127 c 0
 103 104 121 74 141 37 c 1
 151 89 166 186 180 277 c 0
 192 353 204 424 211 462 c 0
 224 529 230 543 247 552 c 0
 257 557 268 560 277 560 c 0
 282 560 286 560 291 559 c 0
 298 558 306 556 320 556 c 0
 338 556 353 541 353 523 c 0
 353 505 338 490 320 490 c 0
EndSplineSet
Validated: 1
EndChar

StartChar: uni221B
Encoding: 27 8731 27
Width: 426
VWidth: 0
Flags: W
HStem: 200 44<31.1263 63> 466 45<25.7621 150.191> 490 66<328.695 396.9>
VStem: 136 45<262.324 285 286 317.923>
LayerCount: 2
Fore
SplineSet
367 490 m 0xb0
 359 490 344 491 333 492 c 1
 322 445 307 351 292 253 c 0
 273 132 253 7 238 -42 c 0
 229 -71 217 -84 197 -84 c 0
 182 -84 172 -76 162 -59 c 0
 158 -53 153 -43 147 -31 c 0
 131 2 107 51 80 85 c 0
 75 91 72 98 72 106 c 0
 72 124 88 140 106 140 c 0
 116 140 126 135 132 127 c 0
 150 104 168 74 188 37 c 1
 198 89 214 186 228 277 c 0
 240 353 252 424 259 462 c 0
 272 529 277 543 294 552 c 0
 304 557 315 560 324 560 c 0
 329 560 334 560 339 559 c 0
 346 558 354 556 368 556 c 0
 386 556 400 541 400 523 c 0
 400 505 385 490 367 490 c 0xb0
198 462 m 0
 198 439 177 421 157 403 c 0
 144 392 131 381 124 368 c 1
 132 360 134 359 138 355 c 0
 167 330 181 307 181 286 c 0
 181 268 165 245 140 228 c 0
 123 217 71 200 53 200 c 0
 41 200 31 210 31 222 c 0
 31 233 38 241 48 244 c 2
 63 247 l 2
 117 258 129 264 136 284 c 1
 136 285 l 1
 137 286 l 1
 137 300 122 313 108 326 c 0
 94 339 79 352 79 366 c 0
 79 396 106 419 128 437 c 0
 138 446 147 453 152 460 c 1
 146 464 129 466 101 466 c 0
 92 466 92 466 50 464 c 2
 47 464 l 2
 35 464 25 474 25 486 c 0
 25 497 34 507 45 508 c 0
 65 510 84 511 101 511 c 0xd0
 166 511 198 495 198 462 c 0
EndSplineSet
Validated: 1
EndChar

StartChar: uni221C
Encoding: 28 8732 28
Width: 432
VWidth: 0
Flags: W
HStem: 311 46<71.1205 103.806> 327 74<165.536 196.621> 490 66<334.695 402.9>
VStem: 25 51<391.201 509.406> 25 44<357.331 488.799> 97 45<200.315 309.124> 118 45<380.123 510.718>
LayerCount: 2
Fore
SplineSet
373 490 m 0x20
 365 490 350 491 339 492 c 1
 328 445 313 351 298 253 c 0
 279 132 259 7 244 -42 c 0
 235 -71 223 -84 203 -84 c 0
 188 -84 178 -76 168 -59 c 0
 164 -53 159 -43 153 -31 c 0
 137 2 113 51 86 85 c 0
 81 91 78 98 78 106 c 0
 78 124 94 140 112 140 c 0
 122 140 132 135 138 127 c 0
 156 104 174 74 194 37 c 1
 204 89 220 186 234 277 c 0
 246 353 258 424 265 462 c 0
 278 529 283 543 300 552 c 0
 310 557 321 560 330 560 c 0
 335 560 340 560 345 559 c 0
 352 558 360 556 374 556 c 0
 392 556 406 541 406 523 c 0
 406 505 391 490 373 490 c 0x20
154 376 m 1
 170 383 180 389 187 393 c 0
 196 398 201 401 209 401 c 0
 221 401 231 391 231 379 c 0
 231 371 227 363 220 359 c 0
 201 348 177 337 150 327 c 0x6a
 149 326 143 250 142 225 c 2
 142 221 l 2
 141 209 131 200 120 200 c 0
 108 200 97 211 97 223 c 0
 97 229 97 229 104 313 c 1
 100 312 87 311 82 311 c 0
 41 311 25 334 25 391 c 0xac
 25 410 25 415 31 490 c 0
 32 502 41 511 53 511 c 0
 65 511 76 501 76 489 c 0xb0
 76 485 74 462 72 440 c 0
 70 418 69 395 69 391 c 0
 69 375 71 364 74 357 c 1
 75 357 l 2
 77 356 77 356 82 356 c 0
 91 356 99 357 108 360 c 0
 109 361 109 361 109 365 c 0
 115 430 116 446 118 491 c 0
 119 503 128 511 140 511 c 0
 152 511 163 501 163 489 c 0xaa
 163 487 161 465 154 376 c 1
EndSplineSet
Validated: 1
EndChar

StartChar: proportional
Encoding: 29 8733 29
Width: 486
VWidth: 0
Flags: W
HStem: -0 21G<96.5 137.5 365.5 384> 234 66<380.478 458.05>
VStem: 25 67<68.9217 219.526>
LayerCount: 2
Fore
SplineSet
134 233 m 1
 105 229 92 192 92 112 c 0
 92 79 98 69 122 67 c 1
 134 78 159 104 181 127 c 0
 192 138 201 148 209 156 c 1
 168 202 146 224 134 233 c 1
25 112 m 0
 25 239 63 300 141 300 c 0
 165 300 186 283 257 203 c 1
 329 270 383 300 428 300 c 0
 446 300 461 285 461 267 c 0
 461 249 446 234 428 234 c 0
 402 234 358 205 302 153 c 1
 348 102 377 73 395 60 c 0
 403 54 408 44 408 33 c 0
 408 15 393 0 375 -0 c 0
 356 0 326 25 254 106 c 1
 254 106 253 105 252 104 c 0
 240 92 184 33 172 22 c 0
 154 6 144 0 131 -0 c 0
 62 0 25 39 25 112 c 0
EndSplineSet
Validated: 1
EndChar

StartChar: infinity
Encoding: 30 8734 30
Width: 601
VWidth: 0
Flags: W
HStem: -0 66<126.998 199.071 395.247 476.358> 234 66<117.166 221.882 389.698 492.49>
VStem: 25 67<108.59 209.031> 509 67<101.018 217.084>
LayerCount: 2
Fore
SplineSet
344 160 m 1
 386 93 407 66 419 66 c 0
 477 66 509 105 509 174 c 0
 509 212 481 234 429 234 c 0
 406 234 382 213 344 160 c 1
25 178 m 0
 25 247 95 300 185 300 c 0
 227 300 265 275 305 220 c 1
 348 276 386 300 429 300 c 0
 518 300 576 250 576 174 c 0
 576 69 514 0 419 -0 c 0
 379 0 348 26 302 100 c 1
 250 29 207 0 155 -0 c 0
 90 0 25 88 25 178 c 0
92 178 m 0
 92 131 129 66 155 66 c 0
 186 66 213 91 263 162 c 1
 230 212 207 234 185 234 c 0
 136 234 93 208 92 179 c 0
 92 178 l 0
EndSplineSet
Validated: 1
EndChar

StartChar: orthogonal
Encoding: 31 8735 31
Width: 307
VWidth: 0
Flags: W
HStem: 5 67<95.9849 275.993> 280 20G<71 91>
VStem: 47 67<75.8581 297.05>
LayerCount: 2
Fore
SplineSet
66 -2 m 0
 41 -2 25 12 25 33 c 0
 25 65 30 106 36 146 c 0
 42 186 47 227 47 259 c 0
 47 260 47 261 47 263 c 0
 47 265 47 266 47 267 c 0
 47 285 62 300 80 300 c 0
 102 300 114 286 114 259 c 0
 114 223 108 186 103 147 c 0
 99 121 96 94 94 67 c 1
 163 72 171 72 196 72 c 0
 258 72 282 61 282 33 c 0
 282 15 267 -1 249 -1 c 0
 235 -1 228 1 222 2 c 0
 216 3 210 5 196 5 c 0
 189 5 160 4 131 2 c 0
 102 0 73 -2 66 -2 c 0
EndSplineSet
Validated: 1
EndChar

StartChar: angle
Encoding: 32 8736 32
Width: 354
VWidth: 0
Flags: W
HStem: -0 67<123 294.917> 280 20G<254.5 266>
LayerCount: 2
Fore
SplineSet
133 -0 m 0
 50 0 25 10 25 42 c 0
 25 61 33 72 92 130 c 0
 166 203 202 244 228 285 c 0
 233 285 237 289 242 293 c 0
 247 297 252 300 257 300 c 0
 275 300 290 285 290 267 c 0
 290 242 248 192 123 67 c 1
 126 67 130 67 133 67 c 0
 156 67 185 70 214 72 c 0
 243 74 273 77 296 77 c 0
 314 77 329 61 329 43 c 0
 329 26 316 12 300 10 c 0
 260 4 191 0 133 -0 c 0
EndSplineSet
Validated: 1
EndChar

StartChar: uni2221
Encoding: 33 8737 33
Width: 354
VWidth: 0
Flags: W
HStem: -0 67<123 190> 280 20G<254.5 266>
VStem: 190 66<72 121.109>
LayerCount: 2
Fore
SplineSet
179 122 m 1
 165 108 131 75 124 68 c 0
 123 67 123 67 123 67 c 1
 126 67 130 67 133 67 c 0
 150 67 170 67 190 68 c 0
 190 69 l 0
 190 87 186 107 179 122 c 1
133 -0 m 0
 50 0 25 10 25 42 c 0
 25 61 33 72 92 130 c 0
 166 203 202 244 228 285 c 0
 233 285 237 289 242 293 c 0
 247 297 252 300 257 300 c 0
 275 300 290 285 290 267 c 0
 290 260 289 254 285 249 c 0
 270 226 250 200 226 173 c 1
 244 149 255 110 256 72 c 1
 264 73 280 75 289 76 c 0
 293 76 296 77 296 77 c 0
 314 77 329 61 329 43 c 0
 329 26 316 12 300 10 c 0
 260 4 191 0 133 -0 c 0
EndSplineSet
Validated: 1
EndChar

StartChar: uni2222
Encoding: 34 8738 34
Width: 321
VWidth: 0
Flags: W
VStem: 163 67<108.073 201.306> 220 66<-84.404 -24.6094>
LayerCount: 2
Fore
SplineSet
160 202 m 1x80
 113 164 103 156 94 145 c 1
 101 137 109 131 148 107 c 1
 158 123 163 143 163 167 c 0
 163 178 162 190 160 202 c 1x80
25 147 m 0
 25 179 67 214 117 255 c 0
 158 288 203 325 235 369 c 0
 240 369 245 373 249 376 c 0
 253 379 258 382 263 382 c 0
 281 382 296 367 296 349 c 0
 296 342 294 335 290 329 c 0
 272 305 248 279 217 251 c 0
 224 231 230 193 230 167 c 0x80
 230 129 221 97 204 70 c 1
 248 35 286 -23 286 -54 c 0
 286 -72 270 -88 252 -88 c 0
 237 -88 224 -78 220 -64 c 0x40
 202 -5 152 26 107 54 c 0
 63 81 25 104 25 147 c 0
EndSplineSet
Validated: 1
EndChar

StartChar: uni2223
Encoding: 35 8739 35
Width: 132
Flags: W
HStem: -233 21G<49 67> 447 20G<64 82>
VStem: 25 66<-230.05 9.32785> 40 67<221.644 463.707>
LayerCount: 2
Fore
SplineSet
25 -200 m 0xe0
 25 -199 25 -199 25 -198 c 0xe0
 25 -191 25 -191 37 301 c 0
 38 337 39 377 40 419 c 2
 40 434 l 2
 40 452 55 467 73 467 c 0
 91 467 107 452 107 434 c 0xd0
 100 176 94 -69 91 -200 c 0
 91 -218 76 -233 58 -233 c 0
 40 -233 25 -218 25 -200 c 0xe0
EndSplineSet
Validated: 1
EndChar

StartChar: uni2224
Encoding: 36 8740 36
Width: 293
VWidth: 0
Flags: W
HStem: -233 21G<119 137> 165 66<200.5 264.947> 447 20G<134 152>
VStem: 95 66<-230.05 14.4051> 102 67<-90.7164 69 207 423.44> 110 67<210.517 463.707>
LayerCount: 2
Fore
SplineSet
102 69 m 1xe8
 75 48 69 45 58 45 c 0
 40 45 25 60 25 78 c 0
 25 89 31 100 40 106 c 0
 57 118 70 129 104 157 c 1
 105 219 107 280 108 330 c 0
 109 367 109 398 110 419 c 2
 110 434 l 2
 110 452 125 467 143 467 c 0
 161 467 177 452 177 434 c 0xe4
 175 359 173 282 171 207 c 1
 194 220 223 231 235 231 c 0
 253 231 268 216 268 198 c 0
 268 183 258 169 243 165 c 0
 222 160 200 147 169 123 c 1xe8
 165 -13 163 -124 161 -200 c 0
 161 -218 146 -233 128 -233 c 0
 110 -233 95 -218 95 -200 c 0xf0
 95 -192 98 -103 102 69 c 1xe8
EndSplineSet
Validated: 1
EndChar

StartChar: uni2225
Encoding: 37 8741 37
Width: 240
Flags: W
HStem: -233 21G<49 67 157 175> 447 20G<64 82 172 190>
VStem: 25 66<-230.05 9.32785> 40 67<221.644 463.707> 133 66<-230.05 9.32785> 148 67<221.644 463.707>
LayerCount: 2
Fore
SplineSet
133 -200 m 0xc8
 133 -199 133 -199 133 -198 c 0xc8
 133 -191 133 -191 145 301 c 0
 146 337 147 377 148 419 c 2
 148 434 l 2
 148 452 163 467 181 467 c 0
 199 467 215 452 215 434 c 0xc4
 208 176 202 -69 199 -200 c 0
 199 -218 184 -233 166 -233 c 0
 148 -233 133 -218 133 -200 c 0xc8
25 -200 m 0xe0
 25 -199 25 -199 25 -198 c 0xe0
 25 -191 25 -191 37 301 c 0
 38 337 39 377 40 419 c 2
 40 434 l 2
 40 452 55 467 73 467 c 0
 91 467 107 452 107 434 c 0xd0
 100 176 94 -69 91 -200 c 0
 91 -218 76 -233 58 -233 c 0
 40 -233 25 -218 25 -200 c 0xe0
EndSplineSet
Validated: 1
EndChar

StartChar: uni2226
Encoding: 38 8742 38
Width: 424
VWidth: 0
Flags: W
HStem: -233 21G<142 160 250 268> 0 21G<49 63.5> 198 66<331.935 395.658> 447 20G<157 175 265 283>
VStem: 118 66<-230.05 11.1792> 125 66<-127.262 39 172 385.17> 133 67<220.373 463.707> 226 66<-230.05 11.7705> 234 67<-51.5333 116> 241 67<240 463.707>
LayerCount: 2
Fore
SplineSet
125 39 m 1xf4
 70 0 69 0 58 0 c 0
 40 0 25 15 25 33 c 0
 25 44 31 55 40 61 c 0
 68 80 104 106 127 122 c 1
 129 198 130 273 131 333 c 0
 132 368 133 398 133 419 c 2
 133 434 l 2
 133 452 148 467 166 467 c 0
 184 467 200 452 200 434 c 0
 198 348 195 257 193 172 c 1
 206 181 221 191 236 201 c 1
 237 248 238 293 239 331 c 0
 240 368 241 398 241 419 c 2
 241 434 l 2
 241 452 256 467 274 467 c 0
 292 467 308 452 308 434 c 0xf240
 306 370 305 304 303 240 c 1
 332 255 355 264 366 264 c 0
 384 264 399 248 399 230 c 0
 399 215 389 202 374 198 c 0
 360 194 336 182 301 160 c 1xf080
 297 8 294 -117 292 -200 c 0
 292 -218 277 -233 259 -233 c 0
 241 -233 226 -218 226 -200 c 0xf1
 226 -192 229 -88 234 116 c 1
 221 107 207 97 191 86 c 1xf480
 188 -34 185 -131 184 -200 c 0
 184 -218 169 -233 151 -233 c 0
 133 -233 118 -218 118 -200 c 0xf8
 118 -193 121 -114 125 39 c 1xf4
EndSplineSet
Validated: 1
EndChar

StartChar: logicaland
Encoding: 39 8743 39
Width: 357
VWidth: 0
Flags: W
HStem: -0 21G<49 64 291.5 307> 280 20G<182 203.5>
VStem: 268 64<2.58738 60.7096>
LayerCount: 2
Fore
SplineSet
58 -0 m 0
 40 0 25 15 25 33 c 0
 25 39 27 45 30 50 c 0
 51 85 71 128 90 167 c 0
 115 219 137 265 155 284 c 0
 165 295 176 300 188 300 c 0
 219 300 231 282 282 157 c 0
 306 98 317 72 329 48 c 0
 331 43 332 38 332 33 c 0
 332 15 316 -1 298 -1 c 0
 285 -1 274 6 268 18 c 0
 252 51 234 95 218 135 c 0
 206 165 196 192 187 210 c 1
 177 191 164 167 151 140 c 0
 131 99 109 53 87 16 c 0
 81 6 70 0 58 -0 c 0
EndSplineSet
Validated: 1
EndChar

StartChar: logicalor
Encoding: 40 8744 40
Width: 357
VWidth: 0
Flags: W
HStem: -0 21G<141.5 171.5> 281 20G<49 63.5 293 308>
LayerCount: 2
Fore
SplineSet
25 267 m 0
 25 285 40 301 58 301 c 0
 69 301 80 295 86 286 c 0
 116 242 133 184 147 137 c 0
 154 114 160 93 167 78 c 1
 181 99 196 132 212 168 c 0
 230 207 249 249 270 284 c 0
 276 294 287 301 299 301 c 0
 317 301 332 285 332 267 c 0
 332 261 330 255 327 250 c 0
 308 218 291 179 274 142 c 0
 249 87 225 36 200 14 c 0
 189 4 178 0 165 -0 c 0
 118 0 100 59 81 125 c 0
 68 168 54 215 31 248 c 0
 27 254 25 260 25 267 c 0
EndSplineSet
Validated: 1
EndChar

StartChar: intersection
Encoding: 41 8745 41
Width: 353
VWidth: 0
Flags: W
HStem: -1 21G<50 67.5 279 299> 234 66<153.26 248.601>
VStem: 25 67<2.53394 135.843> 256 67<2.13757 224.06>
LayerCount: 2
Fore
SplineSet
290 -1 m 0
 268 -1 256 14 256 42 c 0
 256 60 258 78 259 97 c 0
 260 116 261 135 261 153 c 0
 261 214 247 234 202 234 c 0
 142 234 109 173 92 29 c 0
 90 12 76 -1 59 -1 c 0
 41 -1 25 15 25 33 c 0
 25 100 60 209 94 250 c 0
 122 283 160 300 202 300 c 0
 286 300 328 251 328 153 c 0
 328 135 327 116 326 97 c 0
 325 78 323 60 323 42 c 0
 323 41 323 39 323 37 c 0
 323 35 323 34 323 33 c 0
 323 15 308 -1 290 -1 c 0
EndSplineSet
Validated: 1
EndChar

StartChar: union
Encoding: 42 8746 42
Width: 356
VWidth: 0
Flags: W
HStem: -0 66<133.223 199.371> 281 20G<51 69 290.5 307>
VStem: 25 67<118.166 297.136> 265 66<208.017 297.876>
LayerCount: 2
Fore
SplineSet
92 231 m 0
 92 126 124 66 180 66 c 0
 187 66 197 79 207 97 c 0
 220 121 232 155 251 226 c 0
 259 253 261 264 265 277 c 0
 269 291 283 301 298 301 c 0
 316 301 331 285 331 267 c 0
 331 264 331 264 316 208 c 0
 272 48 240 0 180 -0 c 0
 83 0 25 86 25 231 c 0
 25 243 25 256 26 269 c 0
 27 287 42 301 60 301 c 0
 78 301 93 285 93 267 c 0
 93 261 93 255 93 249 c 0
 93 243 92 237 92 231 c 0
EndSplineSet
Validated: 1
EndChar

StartChar: integral
Encoding: 43 8747 43
Width: 396
VWidth: 0
Flags: W
HStem: -234 67<92.808 164.824> 400 67<245.954 302.05>
VStem: 25 67<-165.26 -101.044> 178 67<231.625 397.515> 188 67<-135.358 375.298> 304 67<345.485 397.989>
LayerCount: 2
Fore
SplineSet
92 -136 m 0xec
 92 -160 99 -167 122 -167 c 0
 152 -167 167 -154 172 -127 c 0
 183 -59 188 5 188 81 c 0xec
 188 117 185 173 183 229 c 0
 181 285 178 341 178 377 c 0
 178 427 223 467 279 467 c 0
 328 467 371 424 371 376 c 0
 371 358 356 342 338 342 c 0
 321 342 306 356 304 373 c 0
 303 389 293 400 279 400 c 0
 260 400 245 389 245 377 c 0xf4
 245 341 248 285 250 229 c 0
 252 173 255 117 255 81 c 0
 255 2 250 -68 238 -139 c 0
 228 -198 184 -234 122 -234 c 0
 61 -234 25 -197 25 -136 c 0
 25 -113 39 -98 59 -98 c 0
 77 -98 92 -113 92 -131 c 0
 92 -131 92 -132 92 -133 c 0
 92 -134 92 -136 92 -136 c 0xec
EndSplineSet
Validated: 1
EndChar

StartChar: uni222C
Encoding: 44 8748 44
Width: 661
VWidth: 0
Flags: W
HStem: -234 67<92.808 164.824 358.394 428.872> 400 67<245.954 302.05 510.847 567.05>
VStem: 25 67<-165.26 -101.044> 178 67<231.625 397.515> 188 67<-135.358 375.298> 290 67<-164.26 -100.044> 304 67<345.485 397.989> 443 67<231.626 396.992> 453 67<-134.673 376.297> 569 67<346.485 398.923>
LayerCount: 2
Fore
SplineSet
92 -136 m 0xe840
 92 -160 99 -167 122 -167 c 0
 152 -167 167 -154 172 -127 c 0
 183 -59 188 5 188 81 c 0xe840
 188 117 185 173 183 229 c 0
 181 285 178 341 178 377 c 0
 178 427 223 467 279 467 c 0
 328 467 371 424 371 376 c 0
 371 358 356 342 338 342 c 0
 321 342 306 356 304 373 c 0
 303 389 293 400 279 400 c 0
 260 400 245 389 245 377 c 0xf240
 245 341 248 285 250 229 c 0
 252 173 255 117 255 81 c 0
 255 2 250 -68 238 -139 c 0
 228 -198 184 -234 122 -234 c 0
 61 -234 25 -197 25 -136 c 0
 25 -113 39 -98 59 -98 c 0
 77 -98 92 -113 92 -131 c 0
 92 -131 92 -132 92 -133 c 0
 92 -134 92 -136 92 -136 c 0xe840
357 -135 m 0xe4c0
 357 -159 365 -166 388 -166 c 0
 418 -166 432 -154 437 -127 c 0
 448 -59 453 5 453 81 c 0xe4c0
 453 117 450 173 448 229 c 0
 446 285 443 342 443 378 c 0
 443 428 488 467 544 467 c 0
 593 467 636 425 636 377 c 0
 636 359 621 343 603 343 c 0
 586 343 571 356 569 373 c 0
 568 389 558 400 544 400 c 0
 525 400 510 390 510 378 c 0xe140
 510 342 513 285 515 229 c 0
 517 173 520 117 520 81 c 0
 520 2 515 -67 503 -138 c 0
 493 -197 450 -233 388 -233 c 0
 327 -233 290 -196 290 -135 c 0
 290 -112 304 -97 324 -97 c 0
 342 -97 357 -112 357 -130 c 0
 357 -130 357 -132 357 -133 c 0
 357 -134 357 -135 357 -135 c 0xe4c0
EndSplineSet
Validated: 1
EndChar

StartChar: uni222D
Encoding: 45 8749 45
Width: 961
VWidth: 0
Flags: W
HStem: -233 67<92.7422 165.086 379.315 450.386 658.315 729.386> 400 67<245.954 302.05 531.847 588.05 810.847 867.05>
VStem: 25 67<-165.26 -101.044> 178 67<231.625 397.515> 188 67<-135.358 375.298> 304 67<345.485 397.989> 311 67<-164.26 -100.044> 464 67<231.626 396.992> 474 67<-134.673 376.297> 590 67<-164.26 -100.044 346.485 398.923> 743 67<231.626 396.992> 753 67<-134.673 376.297> 869 67<346.485 398.923>
LayerCount: 2
Fore
SplineSet
92 -136 m 0xe848
 92 -160 99 -167 122 -167 c 0
 152 -167 167 -154 172 -127 c 0
 183 -59 188 5 188 81 c 0xe848
 188 117 185 173 183 229 c 0
 181 285 178 341 178 377 c 0
 178 427 223 467 279 467 c 0
 328 467 371 424 371 376 c 0
 371 358 356 342 338 342 c 0
 321 342 306 356 304 373 c 0
 303 389 293 400 279 400 c 0
 260 400 245 389 245 377 c 0xf448
 245 341 248 285 250 229 c 0
 252 173 255 117 255 81 c 0
 255 2 250 -68 238 -139 c 0
 228 -198 184 -234 122 -234 c 0
 61 -234 25 -197 25 -136 c 0
 25 -113 39 -98 59 -98 c 0
 77 -98 92 -113 92 -131 c 0
 92 -131 92 -132 92 -133 c 0
 92 -134 92 -136 92 -136 c 0xe848
378 -135 m 0xe2c8
 378 -159 386 -166 409 -166 c 0
 439 -166 453 -154 458 -127 c 0
 469 -59 474 5 474 81 c 0xe2c8
 474 117 471 173 469 229 c 0
 467 285 464 342 464 378 c 0
 464 428 509 467 565 467 c 0
 614 467 657 425 657 377 c 0
 657 359 642 343 624 343 c 0
 607 343 592 356 590 373 c 0
 589 389 579 400 565 400 c 0
 546 400 531 390 531 378 c 0xe148
 531 342 534 285 536 229 c 0
 538 173 541 117 541 81 c 0
 541 2 536 -67 524 -138 c 0
 514 -197 471 -233 409 -233 c 0
 348 -233 311 -196 311 -135 c 0
 311 -112 325 -97 345 -97 c 0
 363 -97 378 -112 378 -130 c 0
 378 -130 378 -132 378 -133 c 0
 378 -134 378 -135 378 -135 c 0xe2c8
657 -135 m 0
 657 -159 665 -166 688 -166 c 0
 718 -166 732 -154 737 -127 c 0
 748 -59 753 5 753 81 c 0xe058
 753 117 750 173 748 229 c 0
 746 285 743 342 743 378 c 0
 743 428 788 467 844 467 c 0
 893 467 936 425 936 377 c 0
 936 359 921 343 903 343 c 0
 886 343 871 356 869 373 c 0
 868 389 858 400 844 400 c 0
 825 400 810 390 810 378 c 0xe068
 810 342 813 285 815 229 c 0
 817 173 820 117 820 81 c 0xe058
 820 2 815 -67 803 -138 c 0
 793 -197 750 -233 688 -233 c 0
 627 -233 590 -196 590 -135 c 0
 590 -112 604 -97 624 -97 c 0
 642 -97 657 -112 657 -130 c 0
 657 -130 657 -132 657 -133 c 0
 657 -134 657 -135 657 -135 c 0
EndSplineSet
Validated: 1
EndChar

StartChar: uni222E
Encoding: 46 8750 46
Width: 396
VWidth: 0
Flags: W
HStem: -233 67<92.808 165.086> 400 67<245.847 302.05>
VStem: 25 67<-164.26 -100.044> 98 67<75.3125 184.625> 178 67<260.799 396.992> 188 67<-137.984 8.05 102 186 253.526 377.108> 277 67<105.325 188.377> 304 67<346.485 398.923>
LayerCount: 2
Fore
SplineSet
252 191 m 1xf6
 253 155 255 126 255 102 c 1
 270 118 277 135 277 153 c 0
 277 172 268 186 252 191 c 1xf6
185 186 m 1
 171 180 170 174 166 129 c 0
 166 126 165 123 165 120 c 0
 165 94 174 75 188 72 c 1
 188 75 188 78 188 81 c 0
 188 108 187 141 185 186 c 1
98 120 m 0
 98 202 122 240 182 255 c 1
 178 338 178 359 178 378 c 0
 178 428 223 467 279 467 c 0
 328 467 371 425 371 377 c 0
 371 359 356 343 338 343 c 0
 321 343 306 356 304 373 c 0
 303 389 293 400 279 400 c 0
 260 400 245 390 245 378 c 0xf9
 245 360 245 340 249 259 c 1
 306 252 344 210 344 153 c 0
 344 99 308 45 254 19 c 1
 252 -35 247 -86 238 -138 c 0
 228 -197 184 -233 122 -233 c 0
 61 -233 25 -196 25 -135 c 0
 25 -112 39 -97 59 -97 c 0
 77 -97 92 -112 92 -130 c 0
 92 -130 92 -132 92 -133 c 0
 92 -134 92 -135 92 -135 c 0
 92 -159 99 -166 122 -166 c 0
 152 -166 167 -154 172 -127 c 0
 179 -83 184 -40 186 5 c 1
 132 10 98 55 98 120 c 0
EndSplineSet
Validated: 1
EndChar

StartChar: uni222F
Encoding: 47 8751 47
Width: 661
VWidth: 0
Flags: W
HStem: -234 67<92.808 164.824 358.394 428.872> -8 67<255 451> 215 67<253.566 447> 400 67<245.954 302.05 510.847 567.05>
VStem: 25 67<-165.26 -101.044> 81 67<86.0652 168.098> 178 67<263.615 397.515> 188 67<75 181 268 376.109> 290 67<-164.26 -100.044> 304 67<345.485 397.989> 443 67<278.333 396.992> 453 67<87 197 281 377.197> 550 67<94.5181 186.611> 569 67<346.485 398.923>
LayerCount: 2
Fore
SplineSet
520 87 m 1xf018
 541 100 550 115 550 137 c 0
 550 166 539 185 517 197 c 1
 519 150 520 115 520 87 c 1xf018
255 62 m 1xf110
 275 60 331 59 374 59 c 0
 402 59 430 61 453 65 c 1
 453 70 453 76 453 81 c 0
 453 113 452 154 449 214 c 1
 438 215 427 215 415 215 c 0
 372 215 294 208 252 201 c 1
 254 149 255 111 255 81 c 0
 255 75 255 68 255 62 c 1xf110
186 181 m 1
 160 168 148 151 148 126 c 0xf5
 148 100 160 86 188 75 c 1
 188 77 188 79 188 81 c 0
 188 107 188 139 186 181 c 1
81 126 m 0
 81 185 116 228 183 252 c 1
 179 339 178 358 178 377 c 0
 178 427 223 467 279 467 c 0
 328 467 371 424 371 376 c 0
 371 358 356 342 338 342 c 0
 321 342 306 356 304 373 c 0
 303 389 293 400 279 400 c 0
 260 400 245 389 245 377 c 0
 245 360 246 337 249 268 c 1
 292 275 372 282 415 282 c 0
 427 282 437 282 447 281 c 1
 445 336 443 361 443 378 c 0
 443 428 488 467 544 467 c 0
 593 467 636 425 636 377 c 0
 636 359 621 343 603 343 c 0
 586 343 571 356 569 373 c 0xf664
 568 389 558 400 544 400 c 0
 525 400 510 390 510 378 c 0
 510 361 511 337 514 270 c 1
 581 250 617 204 617 137 c 0
 617 80 583 36 519 13 c 1
 517 -39 511 -88 503 -138 c 0
 493 -197 450 -233 388 -233 c 0
 327 -233 290 -196 290 -135 c 0
 290 -112 304 -97 324 -97 c 0
 342 -97 357 -112 357 -130 c 0
 357 -130 357 -132 357 -133 c 0
 357 -134 357 -135 357 -135 c 0
 357 -159 365 -166 388 -166 c 0
 418 -166 432 -154 437 -127 c 0
 444 -86 448 -45 451 -3 c 1
 428 -6 402 -8 374 -8 c 0
 332 -8 273 -6 253 -5 c 1
 250 -50 245 -95 238 -139 c 0
 228 -198 184 -234 122 -234 c 0
 61 -234 25 -197 25 -136 c 0
 25 -113 39 -98 59 -98 c 0
 77 -98 92 -113 92 -131 c 0
 92 -131 92 -132 92 -133 c 0
 92 -134 92 -136 92 -136 c 0xf8a8
 92 -160 99 -167 122 -167 c 0
 152 -167 167 -154 172 -127 c 0
 179 -83 184 -40 186 5 c 1
 118 23 81 65 81 126 c 0
EndSplineSet
Validated: 1
EndChar

StartChar: uni2230
Encoding: 48 8752 48
Width: 961
VWidth: 0
Flags: W
HStem: -233 67<92.7422 165.086 379.315 450.386 658.315 729.386> 7 67<541 751> 221 67<254.557 467 537 746> 400 67<245.954 302.05 531.847 588.05 810.847 867.05>
VStem: 25 67<-165.26 -101.044> 103 67<117.521 190.486> 178 67<275.448 397.515> 188 66<-138.983 36 117 191 278 376.152> 304 67<345.485 397.989> 311 67<-164.26 -100.044> 464 67<79.0156 220 288 396.18> 474 67<-137.985 9 79 220> 590 67<-164.26 -100.044 346.485 398.923> 743 67<86.3176 195 282 396.18> 753 67<-137.985 10 85 195> 848 67<91.8674 184.155> 869 67<346.485 398.923>
LayerCount: 2
Fore
SplineSet
565 467 m 0xfea8
 614 467 657 425 657 377 c 0
 657 359 642 343 624 343 c 0
 607 343 592 356 590 373 c 0
 589 389 579 400 565 400 c 0
 546 400 531 390 531 378 c 0
 531 362 532 338 534 287 c 1
 569 287 569 287 746 282 c 1
 744 336 743 361 743 378 c 0
 743 428 788 467 844 467 c 0
 893 467 936 425 936 377 c 0
 936 359 921 343 903 343 c 0
 886 343 871 356 869 373 c 0xfeac80
 868 389 858 400 844 400 c 0
 825 400 810 390 810 378 c 0
 810 361 811 338 814 275 c 0
 871 253 915 196 915 146 c 0
 915 77 879 28 819 16 c 1
 817 -37 811 -87 803 -138 c 0
 793 -197 750 -233 688 -233 c 0
 627 -233 590 -196 590 -135 c 0
 590 -112 604 -97 624 -97 c 0
 642 -97 657 -112 657 -130 c 0
 657 -130 657 -132 657 -133 c 0
 657 -134 657 -135 657 -135 c 0
 657 -159 665 -166 688 -166 c 0
 718 -166 732 -154 737 -127 c 0
 745 -81 749 -37 751 10 c 1
 707 8 665 7 625 7 c 0
 596 7 567 8 539 9 c 1
 537 -41 532 -89 524 -138 c 0
 514 -197 471 -233 409 -233 c 0
 348 -233 311 -196 311 -135 c 0
 311 -112 325 -97 345 -97 c 0
 363 -97 378 -112 378 -130 c 0
 378 -130 378 -132 378 -133 c 0
 378 -134 378 -135 378 -135 c 0
 378 -159 386 -166 409 -166 c 0
 439 -166 453 -154 458 -127 c 0
 466 -81 471 -35 473 12 c 1
 406 16 336 24 254 36 c 1
 252 -24 248 -82 238 -139 c 0
 228 -198 184 -234 122 -234 c 0
 61 -234 25 -197 25 -136 c 0
 25 -113 39 -98 59 -98 c 0
 77 -98 92 -113 92 -131 c 0
 92 -131 92 -132 92 -133 c 0
 92 -134 92 -136 92 -136 c 0
 92 -160 99 -167 122 -167 c 0
 152 -167 167 -154 172 -127 c 0
 182 -70 187 -15 188 46 c 1xfd4d
 139 56 103 98 103 146 c 0
 103 201 135 250 182 267 c 1
 179 335 178 359 178 377 c 0
 178 427 223 467 279 467 c 0
 328 467 371 424 371 376 c 0
 371 358 356 342 338 342 c 0
 321 342 306 356 304 373 c 0
 303 389 293 400 279 400 c 0
 260 400 245 389 245 377 c 0
 245 361 246 337 249 278 c 1
 324 284 393 287 467 288 c 1
 465 337 464 362 464 378 c 0
 464 428 509 467 565 467 c 0xfea8
749 215 m 1
 566 220 567 220 537 220 c 1
 540 157 541 114 541 81 c 0
 541 80 541 80 541 79 c 0
 541 78 541 77 541 76 c 0
 569 75 597 74 625 74 c 0
 666 74 708 75 753 77 c 0
 753 78 753 78 753 79 c 0
 753 80 753 80 753 81 c 0xfc1a
 753 113 752 154 749 215 c 1
820 85 m 1
 836 92 848 118 848 146 c 0xfc0b
 848 160 836 179 817 195 c 1
 819 148 820 113 820 85 c 1
470 221 m 1
 396 221 327 217 251 211 c 1
 253 166 255 131 255 103 c 1
 338 91 407 84 474 79 c 1
 474 80 l 0
 474 81 l 0xfc18
 474 114 473 157 470 221 c 1
185 191 m 1
 178 182 170 158 170 146 c 0
 170 135 177 124 188 117 c 1xfd08
 188 138 186 162 185 191 c 1
EndSplineSet
Validated: 1
EndChar

StartChar: uni2231
Encoding: 49 8753 49
Width: 481
VWidth: 0
Flags: W
HStem: -233 67<92.808 165.086> 67 67<264.953 347.182> 179 67<253 325.895> 400 67<245.847 302.05>
VStem: 25 67<-164.26 -100.044> 178 67<270.836 396.18> 188 67<-134.673 156 245.5 377.118> 304 67<346.485 398.923> 389 67<201.047 260.497>
LayerCount: 2
Fore
SplineSet
316 67 m 0xfd80
 277 67 262 76 262 101 c 0
 262 119 277 135 295 135 c 0
 298 135 303 134 306 134 c 0
 309 134 313 134 316 134 c 0
 329 134 340 135 349 138 c 1
 326 165 298 179 265 179 c 0
 261 179 257 178 253 178 c 1
 254 138 255 106 255 81 c 0
 255 2 250 -67 238 -138 c 0
 228 -197 184 -233 122 -233 c 0
 61 -233 25 -196 25 -135 c 0
 25 -112 39 -97 59 -97 c 0
 77 -97 92 -112 92 -130 c 0
 92 -130 92 -132 92 -133 c 0
 92 -134 92 -135 92 -135 c 0
 92 -159 99 -166 122 -166 c 0
 152 -166 167 -154 172 -127 c 0
 183 -59 188 5 188 81 c 0xfb80
 188 101 187 126 186 156 c 1
 155 139 137 121 124 108 c 0
 111 95 102 87 88 87 c 0
 70 87 55 102 55 120 c 0
 55 129 58 137 64 143 c 0
 101 183 143 212 184 229 c 1
 183 243 182 256 182 267 c 0
 178 350 178 358 178 368 c 0
 178 369 178 371 178 372 c 0
 178 374 178 376 178 378 c 0
 178 428 223 467 279 467 c 0
 328 467 371 425 371 377 c 0
 371 359 356 343 338 343 c 0
 321 343 306 356 304 373 c 0
 303 389 293 400 279 400 c 0
 260 400 245 390 245 378 c 0
 245 359 245 352 250 245 c 1
 255 245 260 246 265 246 c 0
 309 246 349 230 383 199 c 1
 385 210 387 222 389 235 c 0
 391 251 405 264 422 264 c 0
 440 264 456 248 456 230 c 0
 456 199 436 130 422 114 c 1
 402 82 367 67 316 67 c 0xfd80
EndSplineSet
Validated: 1
EndChar

StartChar: uni2232
Encoding: 50 8754 50
Width: 470
VWidth: 0
Flags: W
HStem: -233 67<92.808 163.6> 119 72<254.488 310.208> 228 69<149.16 181> 400 67<245.847 302.05>
VStem: 25 67<-164.26 -100.044 48.2734 161.587> 178 67<188.922 228 296.061 396.18> 188 67<8 127 187 228> 304 67<346.485 398.923> 334 67<50.9275 119>
LayerCount: 2
Fore
SplineSet
92 -135 m 0xfc80
 92 -159 99 -166 122 -166 c 0
 163 -166 170 -154 180 -64 c 1
 92 -52 28 16 28 96 c 0
 28 192 93 278 181 297 c 1
 179 339 178 363 178 378 c 0
 178 428 223 467 279 467 c 0
 328 467 371 425 371 377 c 0
 371 359 356 343 338 343 c 0
 321 343 306 356 304 373 c 0xfd
 303 389 293 400 279 400 c 0
 260 400 245 390 245 378 c 0
 245 364 246 341 248 299 c 1
 297 291 341 262 369 219 c 1
 376 280 384 296 411 296 c 0
 429 296 445 281 445 263 c 0
 445 258 443 253 441 248 c 0
 439 242 438 231 437 219 c 0
 434 189 430 148 400 131 c 1
 400 125 401 120 401 114 c 0
 401 24 340 -45 248 -62 c 1
 239 -144 233 -169 214 -193 c 0
 193 -218 160 -233 122 -233 c 0
 61 -233 25 -196 25 -135 c 0
 25 -112 39 -97 59 -97 c 0
 77 -97 92 -112 92 -130 c 0
 92 -130 92 -132 92 -133 c 0
 92 -134 92 -135 92 -135 c 0xfc80
184 228 m 1
 132 211 95 156 95 96 c 0
 95 51 133 12 186 3 c 1
 187 28 188 53 188 81 c 0xfa
 188 115 187 159 184 228 c 1
333 119 m 0
 301 119 264 122 254 127 c 1
 254 110 255 94 255 81 c 0
 255 55 254 32 253 8 c 1
 304 24 334 62 334 114 c 0
 334 116 334 117 334 119 c 0xfa80
 333 119 l 0
252 187 m 1
 257 190 263 191 269 191 c 0
 271 191 274 191 278 190 c 0
 284 189 294 187 311 186 c 1
 296 207 275 223 251 230 c 1
 252 214 252 200 252 187 c 1
EndSplineSet
Validated: 1
EndChar

StartChar: uni2233
Encoding: 51 8755 51
Width: 523
VWidth: 0
Flags: W
HStem: -233 67<92.808 163.6> 171 92<397.479 453.056> 232 68<251 292.454> 400 67<245.847 302.05>
VStem: 25 67<-164.26 -100.044> 36 67<43.5292 167.302> 178 67<108.504 225 297.393 396.18> 188 67<6 104 107 221.877> 304 67<346.485 398.923> 342 67<51.3063 146.448>
LayerCount: 2
Fore
SplineSet
92 -135 m 0xd840
 92 -159 99 -166 122 -166 c 0
 163 -166 170 -154 180 -63 c 1
 96 -48 36 19 36 96 c 0
 36 188 97 273 181 295 c 1
 179 339 178 363 178 378 c 0
 178 428 223 467 279 467 c 0
 328 467 371 425 371 377 c 0
 371 359 356 343 338 343 c 0
 321 343 306 356 304 373 c 0
 303 389 293 400 279 400 c 0
 260 400 245 390 245 378 c 0
 245 364 246 341 248 300 c 1xb680
 283 296 316 282 343 258 c 1
 348 260 365 263 371 263 c 0xd680
 398 263 429 252 451 244 c 0
 460 241 466 238 472 237 c 0
 487 233 498 220 498 205 c 0
 498 187 482 171 464 171 c 0
 456 171 444 176 429 181 c 0
 418 185 405 189 392 192 c 1
 403 167 409 141 409 114 c 0
 409 21 344 -50 248 -64 c 1
 239 -146 233 -169 214 -193 c 0
 193 -218 160 -233 122 -233 c 0
 61 -233 25 -196 25 -135 c 0
 25 -112 39 -97 59 -97 c 0
 77 -97 92 -112 92 -130 c 0
 92 -130 92 -132 92 -133 c 0
 92 -134 92 -135 92 -135 c 0xd840
184 225 m 1
 136 206 103 152 103 96 c 0
 103 53 137 16 186 4 c 1
 187 29 188 54 188 81 c 0x95
 188 115 187 158 184 225 c 1
253 6 m 1
 309 20 342 59 342 114 c 0x9140
 342 125 341 136 338 147 c 1
 331 131 325 113 321 98 c 0
 317 83 303 73 288 73 c 0
 270 73 256 86 255 104 c 1
 255 96 255 88 255 81 c 0
 255 54 254 30 253 6 c 1
255 107 m 1
 256 126 276 179 295 211 c 1
 282 221 267 229 251 232 c 1xb1
 253 177 255 139 255 107 c 1
EndSplineSet
Validated: 1
EndChar

StartChar: therefore
Encoding: 52 8756 52
Width: 294
Flags: W
HStem: 33 66<28.1243 89.8757 204.124 265.876> 201 66<114.124 175.876>
VStem: 25 68<36.2926 95.7074> 111 68<204.293 263.707> 201 68<36.2926 95.7074>
LayerCount: 2
Fore
SplineSet
111 234 m 0
 111 252 127 267 145 267 c 0
 163 267 179 252 179 234 c 0
 179 216 163 201 145 201 c 0
 127 201 111 216 111 234 c 0
25 66 m 0
 25 84 41 99 59 99 c 0
 77 99 93 84 93 66 c 0
 93 48 77 33 59 33 c 0
 41 33 25 48 25 66 c 0
201 66 m 0
 201 84 217 99 235 99 c 0
 253 99 269 84 269 66 c 0
 269 48 253 33 235 33 c 0
 217 33 201 48 201 66 c 0
EndSplineSet
Validated: 1
EndChar

StartChar: uni2235
Encoding: 53 8757 53
Width: 294
Flags: W
HStem: 33 66<100.124 161.876> 201 66<28.1243 89.8757 204.124 265.876>
VStem: 25 68<204.293 263.707> 97 68<36.2926 95.7074> 201 68<204.293 263.707>
LayerCount: 2
Fore
SplineSet
97 66 m 0
 97 84 113 99 131 99 c 0
 149 99 165 84 165 66 c 0
 165 48 149 33 131 33 c 0
 113 33 97 48 97 66 c 0
25 234 m 0
 25 252 41 267 59 267 c 0
 77 267 93 252 93 234 c 0
 93 216 77 201 59 201 c 0
 41 201 25 216 25 234 c 0
201 234 m 0
 201 252 217 267 235 267 c 0
 253 267 269 252 269 234 c 0
 269 216 253 201 235 201 c 0
 217 201 201 216 201 234 c 0
EndSplineSet
Validated: 1
EndChar

StartChar: uni2236
Encoding: 54 8758 54
Width: 119
Flags: W
HStem: 33 67<29.4854 90.5146> 199 68<28.2926 88.5146>
VStem: 26 68<36.4854 96.7074 203.673 262.327>
LayerCount: 2
Fore
SplineSet
26 67 m 0
 26 85 42 100 60 100 c 0
 78 100 94 85 94 67 c 0
 94 49 78 33 60 33 c 0
 42 33 26 49 26 67 c 0
25 233 m 0
 25 251 40 267 58 267 c 0
 76 267 92 251 92 233 c 0
 92 215 76 199 58 199 c 0
 40 199 25 215 25 233 c 0
EndSplineSet
Validated: 1
EndChar

StartChar: uni2237
Encoding: 55 8759 55
Width: 285
Flags: W
HStem: 33 67<29.4854 90.5146 195.485 256.515> 199 68<28.2926 88.5146 194.293 254.515>
VStem: 26 68<36.4854 96.7074 203.673 262.327> 192 68<36.4854 96.7074 203.673 262.327>
LayerCount: 2
Fore
SplineSet
26 67 m 0
 26 85 42 100 60 100 c 0
 78 100 94 85 94 67 c 0
 94 49 78 33 60 33 c 0
 42 33 26 49 26 67 c 0
25 233 m 0
 25 251 40 267 58 267 c 0
 76 267 92 251 92 233 c 0
 92 215 76 199 58 199 c 0
 40 199 25 215 25 233 c 0
192 67 m 0
 192 85 208 100 226 100 c 0
 244 100 260 85 260 67 c 0
 260 49 244 33 226 33 c 0
 208 33 192 49 192 67 c 0
191 233 m 0
 191 251 206 267 224 267 c 0
 242 267 258 251 258 233 c 0
 258 215 242 199 224 199 c 0
 206 199 191 215 191 233 c 0
EndSplineSet
Validated: 1
EndChar

StartChar: uni2238
Encoding: 56 8760 56
Width: 327
Flags: W
HStem: 234 66<131.124 192.876>
VStem: 128 68<237.293 296.707>
LayerCount: 2
Fore
SplineSet
270 127 m 0
 154 121 73 117 59 116 c 0
 41 116 25 132 25 150 c 0
 25 168 39 182 57 183 c 0
 173 189 254 193 268 194 c 0
 286 194 302 178 302 160 c 0
 302 142 288 128 270 127 c 0
128 267 m 0
 128 285 144 300 162 300 c 0
 180 300 196 285 196 267 c 0
 196 249 180 234 162 234 c 0
 144 234 128 249 128 267 c 0
EndSplineSet
Validated: 1
EndChar

StartChar: uni2239
Encoding: 57 8761 57
Width: 434
Flags: W
HStem: 33 67<344.485 405.515> 199 68<343.293 403.515>
VStem: 341 68<36.4854 96.7074 203.673 262.327>
LayerCount: 2
Fore
SplineSet
270 127 m 0
 154 121 73 117 59 116 c 0
 41 116 25 132 25 150 c 0
 25 168 39 182 57 183 c 0
 173 189 254 193 268 194 c 0
 286 194 302 178 302 160 c 0
 302 142 288 128 270 127 c 0
341 67 m 0
 341 85 357 100 375 100 c 0
 393 100 409 85 409 67 c 0
 409 49 393 33 375 33 c 0
 357 33 341 49 341 67 c 0
340 233 m 0
 340 251 355 267 373 267 c 0
 391 267 407 251 407 233 c 0
 407 215 391 199 373 199 c 0
 355 199 340 215 340 233 c 0
EndSplineSet
Validated: 1
EndChar

StartChar: uni223A
Encoding: 58 8762 58
Width: 330
Flags: W
HStem: 0 66<29.1243 90.8757 239.124 300.876> 234 66<30.1243 91.8757 240.124 301.876>
VStem: 26 68<3.2926 62.7074 238.028 295.972> 236 68<3.2926 62.7074 238.028 295.972>
LayerCount: 2
Fore
SplineSet
270 127 m 0
 154 121 73 117 59 116 c 0
 41 116 25 132 25 150 c 0
 25 168 39 182 57 183 c 0
 173 189 254 193 268 194 c 0
 286 194 302 178 302 160 c 0
 302 142 288 128 270 127 c 0
27 267 m 0
 27 285 43 300 61 300 c 0
 79 300 95 285 95 267 c 0
 95 249 79 234 61 234 c 0
 43 234 27 249 27 267 c 0
237 267 m 0
 237 285 253 300 271 300 c 0
 289 300 305 285 305 267 c 0
 305 249 289 234 271 234 c 0
 253 234 237 249 237 267 c 0
26 33 m 0
 26 51 42 66 60 66 c 0
 78 66 94 51 94 33 c 0
 94 15 78 0 60 0 c 0
 42 0 26 15 26 33 c 0
236 33 m 0
 236 51 252 66 270 66 c 0
 288 66 304 51 304 33 c 0
 304 15 288 0 270 0 c 0
 252 0 236 15 236 33 c 0
EndSplineSet
Validated: 1
EndChar

StartChar: uni223B
Encoding: 59 8763 59
Width: 432
Flags: W
HStem: 0 66<190.124 251.876> 158 67<117.659 185.204> 234 66<190.124 251.876>
VStem: 187 68<3.2926 62.7074 237.293 296.707>
LayerCount: 2
Fore
SplineSet
258 138 m 1
 297 141 314 169 329 193 c 0
 341 213 352 231 373 231 c 0
 391 231 407 215 407 197 c 0
 407 185 400 176 393 168 c 0
 389 164 386 160 384 155 c 0
 344 95 313 74 261 71 c 2
 259 71 l 2
 258 71 258 71 257 70 c 0
 230 70 216 92 202 114 c 0
 188 136 175 158 148 158 c 0
 127 158 115 137 103 116 c 0
 91 95 79 75 58 75 c 0
 40 75 25 90 25 108 c 0
 25 118 30 128 40 143 c 0
 41 143 41 143 41 144 c 0
 78 205 105 225 148 225 c 0
 188 225 215 206 244 158 c 0
 251 147 254 142 258 138 c 1
187 33 m 0
 187 51 203 66 221 66 c 0
 239 66 255 51 255 33 c 0
 255 15 239 0 221 0 c 0
 203 0 187 15 187 33 c 0
187 267 m 0
 187 285 203 300 221 300 c 0
 239 300 255 285 255 267 c 0
 255 249 239 234 221 234 c 0
 203 234 187 249 187 267 c 0
EndSplineSet
Validated: 1
EndChar

StartChar: similar
Encoding: 60 8764 60
Width: 432
Flags: W
HStem: 158 67<117.659 185.204>
LayerCount: 2
Fore
SplineSet
258 138 m 1
 297 141 314 169 329 193 c 0
 341 213 352 231 373 231 c 0
 391 231 407 215 407 197 c 0
 407 185 400 176 393 168 c 0
 389 164 386 160 384 155 c 0
 344 95 313 74 261 71 c 2
 259 71 l 2
 258 71 258 71 257 70 c 0
 230 70 216 92 202 114 c 0
 188 136 175 158 148 158 c 0
 127 158 115 137 103 116 c 0
 91 95 79 75 58 75 c 0
 40 75 25 90 25 108 c 0
 25 118 30 128 40 143 c 0
 41 143 41 143 41 144 c 0
 78 205 105 225 148 225 c 0
 188 225 215 206 244 158 c 0
 251 147 254 142 258 138 c 1
EndSplineSet
Validated: 1
EndChar

StartChar: uni223D
Encoding: 61 8765 61
Width: 432
Flags: W
HStem: 76 67<116.495 185.204>
LayerCount: 2
Fore
SplineSet
258 163 m 1
 254 159 251 154 244 143 c 0
 215 95 188 76 148 76 c 0
 105 76 78 96 41 157 c 0
 41 158 41 158 40 158 c 0
 30 173 25 183 25 193 c 0
 25 211 40 226 58 226 c 0
 79 226 91 205 103 184 c 0
 115 163 127 143 148 143 c 0
 175 143 188 165 202 187 c 0
 216 209 230 231 257 231 c 0
 258 230 258 230 259 230 c 2
 261 230 l 2
 313 227 344 206 384 146 c 0
 386 141 389 137 393 133 c 0
 400 125 407 116 407 104 c 0
 407 86 391 70 373 70 c 0
 352 70 341 88 329 108 c 0
 314 132 297 160 258 163 c 1
EndSplineSet
Validated: 1
EndChar

StartChar: uni223E
Encoding: 62 8766 62
Width: 559
VWidth: 0
Flags: W
HStem: -0 66<113.844 201.05 374.62 446.994> 234 66<104.245 192.336 376.176 436.194>
VStem: 25 67<86.0397 221.664> 467 67<84.9957 200.266>
LayerCount: 2
Fore
SplineSet
407 301 m 0
 470 301 534 220 534 140 c 0
 534 70 482 0 430 -0 c 0
 361 0 285 55 246 133 c 0
 210 205 183 234 151 234 c 0
 110 234 92 212 92 163 c 0
 92 91 112 66 171 66 c 0
 189 66 204 51 204 33 c 0
 204 15 189 0 171 -0 c 0
 73 0 25 53 25 163 c 0
 25 204 33 232 52 256 c 0
 74 285 110 300 151 300 c 0
 213 300 257 261 308 159 c 0
 333 108 387 67 429 67 c 1
 446 73 467 113 467 140 c 0
 467 184 436 229 402 234 c 0
 386 236 373 250 373 267 c 0
 373 285 389 301 407 301 c 0
EndSplineSet
Validated: 1
EndChar

StartChar: uni223F
Encoding: 63 8767 63
Width: 473
VWidth: 0
Flags: W
HStem: -0 67<310.903 344.142> 234 66<143.658 216.733>
LayerCount: 2
Fore
SplineSet
322 -0 m 0
 280 0 266 58 252 116 c 0
 238 174 224 234 182 234 c 0
 156 234 115 195 88 144 c 0
 82 133 71 126 59 126 c 0
 41 126 25 142 25 160 c 0
 25 166 26 171 29 176 c 0
 70 253 129 300 182 300 c 0
 207 300 231 290 248 270 c 0
 274 239 284 191 294 147 c 0
 300 122 305 98 313 81 c 0
 317 72 320 67 322 67 c 0
 336 72 362 105 385 146 c 0
 391 157 403 164 415 164 c 0
 433 164 448 148 448 130 c 0
 448 124 447 119 444 114 c 0
 402 37 361 0 322 -0 c 0
EndSplineSet
Validated: 1
EndChar

StartChar: uni2240
Encoding: 64 8768 64
Width: 210
Flags: W
VStem: 31 66<50.8913 119.535>
LayerCount: 2
Fore
SplineSet
117 192 m 1
 114 232 86 249 62 264 c 0
 42 276 25 288 25 308 c 0
 25 326 41 342 59 342 c 0
 71 342 79 335 87 328 c 0
 91 324 96 320 101 318 c 0
 161 278 182 248 185 196 c 2
 185 194 l 2
 185 193 l 0
 185 193 184 193 185 192 c 0
 185 165 163 151 141 137 c 0
 119 123 97 109 97 82 c 0
 97 61 118 49 139 37 c 0
 160 25 181 13 181 -8 c 0
 181 -25 166 -40 147 -40 c 0
 137 -40 127 -36 113 -26 c 0
 113 -25 112 -24 111 -24 c 0
 51 13 31 39 31 82 c 0
 31 122 49 149 97 178 c 0
 108 185 113 188 117 192 c 1
EndSplineSet
Validated: 1
EndChar

StartChar: uni2241
Encoding: 65 8769 65
Width: 432
Flags: W
HStem: 0 21G<150 165.5> 158 67<117.659 174.493> 280 20G<258 274>
VStem: 125 65<3.48541 63.9398> 234 65<236.029 296.515>
LayerCount: 2
Fore
SplineSet
148 158 m 0
 127 158 115 137 103 116 c 0
 91 95 79 75 58 75 c 0
 40 75 25 90 25 108 c 0
 25 118 30 128 40 143 c 0
 41 143 41 143 41 144 c 0
 78 205 105 225 148 225 c 0
 169 225 186 219 202 208 c 1
 209 223 215 237 220 248 c 0
 228 267 234 279 234 280 c 0
 239 292 251 300 265 300 c 0
 283 300 299 284 299 266 c 0
 299 262 283 224 249 150 c 1
 253 144 255 141 258 138 c 0
 297 141 314 169 329 193 c 0
 341 213 352 231 373 231 c 0
 391 231 407 215 407 197 c 0
 407 185 400 176 393 168 c 0
 389 164 386 160 384 155 c 0
 344 95 313 74 261 71 c 2
 259 71 l 2
 258 71 258 71 257 70 c 0
 243 70 232 76 221 88 c 1
 220 85 218 83 217 81 c 0
 190 23 190 22 190 21 c 0
 186 9 172 0 159 0 c 0
 141 0 125 16 125 34 c 0
 125 36 142 75 175 149 c 1
 167 155 158 158 148 158 c 0
EndSplineSet
Validated: 1
EndChar

StartChar: uni2242
Encoding: 66 8770 66
Width: 446
Flags: W
HStem: 158 67<119.659 187.204> 282 67<28.1243 417.515>
LayerCount: 2
Fore
SplineSet
260 138 m 1
 299 141 316 169 331 193 c 0
 343 213 354 231 375 231 c 0
 393 231 409 215 409 197 c 0
 409 185 402 176 395 168 c 0
 391 164 388 160 386 155 c 0
 346 95 315 74 263 71 c 2
 261 71 l 2
 260 71 260 71 259 70 c 0
 232 70 218 92 204 114 c 0
 190 136 177 158 150 158 c 0
 129 158 117 137 105 116 c 0
 93 95 81 75 60 75 c 0
 42 75 27 90 27 108 c 0
 27 118 32 128 42 143 c 0
 43 143 43 143 43 144 c 0
 80 205 107 225 150 225 c 0
 190 225 217 206 246 158 c 0
 253 147 256 142 260 138 c 1
389 282 m 0
 355 282 290 282 224 282 c 0
 158 282 93 281 59 281 c 0
 41 281 25 297 25 315 c 0
 25 333 39 348 57 348 c 0
 134 349 263 349 387 349 c 0
 405 349 421 333 421 315 c 0
 421 297 407 282 389 282 c 0
EndSplineSet
Validated: 1
EndChar

StartChar: uni2243
Encoding: 67 8771 67
Width: 446
Flags: W
HStem: -56 68<28.4854 417.515> 158 67<125.659 193.204>
LayerCount: 2
Fore
SplineSet
266 138 m 1
 305 141 322 169 337 193 c 0
 349 213 360 231 381 231 c 0
 399 231 415 215 415 197 c 0
 415 185 408 176 401 168 c 0
 397 164 394 160 392 155 c 0
 352 95 321 74 269 71 c 2
 267 71 l 2
 266 71 266 71 265 70 c 0
 238 70 224 92 210 114 c 0
 196 136 183 158 156 158 c 0
 135 158 123 137 111 116 c 0
 99 95 87 75 66 75 c 0
 48 75 33 90 33 108 c 0
 33 118 38 128 48 143 c 0
 49 143 49 143 49 144 c 0
 86 205 113 225 156 225 c 0
 196 225 223 206 252 158 c 0
 259 147 262 142 266 138 c 1
389 -55 m 0
 355 -55 290 -56 224 -56 c 0
 158 -56 93 -56 59 -56 c 0
 41 -56 25 -40 25 -22 c 0
 25 -4 39 11 57 11 c 0
 134 12 263 12 387 12 c 0
 405 12 421 -4 421 -22 c 0
 421 -40 407 -55 389 -55 c 0
EndSplineSet
Validated: 1
EndChar

StartChar: uni2244
Encoding: 68 8772 68
Width: 446
Flags: W
HStem: -55 67<28.1243 141 243 417.515> 75 150<66 156> 158 67<125.659 192.862> 280 20G<306.5 327>
LayerCount: 2
Fore
SplineSet
156 158 m 0xb0
 135 158 123 137 111 116 c 0
 99 95 87 75 66 75 c 0
 48 75 33 90 33 108 c 0
 33 118 38 128 48 143 c 0
 49 143 49 143 49 144 c 0
 86 205 113 225 156 225 c 0xd0
 191 225 216 210 241 175 c 1
 295 300 295 300 318 300 c 0
 336 300 352 284 352 266 c 0
 352 263 336 225 304 152 c 1
 319 163 328 179 337 193 c 0
 349 213 360 231 381 231 c 0
 399 231 415 215 415 197 c 0
 415 185 408 176 401 168 c 0
 397 164 394 160 392 155 c 0
 352 95 321 74 269 71 c 2
 261 52 252 33 243 12 c 1
 290 12 344 12 387 12 c 0
 405 12 421 -4 421 -22 c 0
 421 -40 407 -55 389 -55 c 0
 345 -55 286 -55 213 -55 c 1
 208 -66 204 -76 200 -85 c 0
 159 -179 159 -179 159 -179 c 0
 155 -191 141 -200 128 -200 c 0
 110 -200 94 -184 94 -166 c 0
 94 -164 110 -128 141 -56 c 1
 125 -56 110 -56 98 -56 c 0
 77 -56 62 -56 59 -56 c 0
 41 -56 25 -40 25 -22 c 0
 25 -4 39 11 57 11 c 0
 88 11 126 12 170 12 c 1
 183 41 197 73 213 110 c 1
 187 150 178 158 156 158 c 0xb0
EndSplineSet
Validated: 1
EndChar

StartChar: congruent
Encoding: 69 8773 69
Width: 447
Flags: W
HStem: -50 67<29.1243 418.515> 52 68<28.4854 417.515> 267 67<123.495 192.535>
LayerCount: 2
Fore
SplineSet
265 247 m 1
 304 250 321 278 336 302 c 0
 348 322 359 340 380 340 c 0
 398 340 414 324 414 306 c 0
 414 294 407 285 400 277 c 0
 396 273 393 269 391 264 c 0
 351 204 320 183 268 180 c 2
 266 180 l 2
 265 180 265 180 264 179 c 0
 237 179 224 201 210 223 c 0
 196 245 182 267 155 267 c 0
 134 267 122 247 110 226 c 0
 98 205 86 184 65 184 c 0
 47 184 32 199 32 217 c 0
 32 227 37 237 47 252 c 0
 48 252 48 252 48 253 c 0
 85 314 112 334 155 334 c 0
 195 334 222 315 251 267 c 0
 258 256 261 251 265 247 c 1
389 53 m 0
 355 53 290 52 224 52 c 0
 158 52 93 52 59 52 c 0
 41 52 25 68 25 86 c 0
 25 104 39 119 57 119 c 0
 134 120 263 120 387 120 c 0
 405 120 421 104 421 86 c 0
 421 68 407 53 389 53 c 0
390 -50 m 0
 356 -50 291 -50 225 -50 c 0
 159 -50 94 -51 60 -51 c 0
 42 -51 26 -35 26 -17 c 0
 26 1 40 16 58 16 c 0
 135 17 264 17 388 17 c 0
 406 17 422 1 422 -17 c 0
 422 -35 408 -50 390 -50 c 0
EndSplineSet
Validated: 1
EndChar

StartChar: uni2246
Encoding: 70 8774 70
Width: 447
Flags: W
HStem: -50 67<29.1243 152 252 418.515> 53 67<28.1243 195 295 417.515> 267 67<123.495 192.535>
VStem: 140 65<-112.515 -51.9302> 223 75<120 156.625>
LayerCount: 2
Fore
SplineSet
265 247 m 1
 304 250 321 278 336 302 c 0
 348 322 359 340 380 340 c 0
 398 340 414 324 414 306 c 0
 414 294 407 285 400 277 c 0
 396 273 393 269 391 264 c 0
 351 204 320 183 268 180 c 2
 266 180 l 2
 265 180 265 180 264 179 c 0
 237 179 224 201 210 223 c 0
 196 245 182 267 155 267 c 0
 134 267 122 247 110 226 c 0
 98 205 86 184 65 184 c 0
 47 184 32 199 32 217 c 0
 32 227 37 237 47 252 c 0
 48 252 48 252 48 253 c 0
 85 314 112 334 155 334 c 0
 195 334 222 315 251 267 c 0
 258 256 261 251 265 247 c 1
264 164 m 0
 282 164 298 148 298 130 c 0
 298 129 297 126 295 120 c 1
 327 120 360 120 387 120 c 0
 405 120 421 104 421 86 c 0
 421 68 407 53 389 53 c 0
 357 53 317 53 268 53 c 1
 264 42 258 30 252 17 c 1
 296 17 348 17 388 17 c 0
 406 17 422 1 422 -17 c 0
 422 -35 408 -50 390 -50 c 0
 348 -50 293 -50 224 -50 c 1
 208 -87 205 -94 205 -95 c 0
 201 -107 187 -116 174 -116 c 0
 156 -116 140 -100 140 -82 c 0
 140 -81 144 -71 152 -51 c 1
 132 -51 115 -51 100 -51 c 0
 78 -51 63 -51 60 -51 c 0
 42 -51 26 -35 26 -17 c 0
 26 1 40 16 58 16 c 0
 91 16 132 17 180 17 c 1
 185 28 190 40 195 53 c 1
 157 53 124 52 99 52 c 0
 77 52 62 52 59 52 c 0
 41 52 25 68 25 86 c 0
 25 104 39 119 57 119 c 0
 100 119 156 120 223 120 c 1
 240 159 244 164 264 164 c 0
EndSplineSet
Validated: 1
EndChar

StartChar: uni2247
Encoding: 71 8775 71
Width: 447
Flags: W
HStem: -233 21G<88 103.5> -50 67<29.1243 127 230 418.515> 53 67<28.1243 173 276 417.515> 267 67<123.495 191.32> 447 20G<366 382>
VStem: 63 65<-229.515 -167.934> 342 65<400.821 463.515>
LayerCount: 2
Fore
SplineSet
155 267 m 0
 134 267 122 247 110 226 c 0
 98 205 86 184 65 184 c 0
 47 184 32 199 32 217 c 0
 32 227 37 237 47 252 c 0
 48 252 48 252 48 253 c 0
 85 314 112 334 155 334 c 0
 195 334 222 315 251 267 c 0
 255 260 258 255 260 252 c 1
 285 311 333 425 342 447 c 0
 347 459 359 467 373 467 c 0
 391 467 407 451 407 433 c 0
 407 430 394 396 370 338 c 1
 373 339 376 340 380 340 c 0
 398 340 414 324 414 306 c 0
 414 294 407 285 400 277 c 0
 396 273 393 269 391 264 c 0
 361 219 336 196 305 186 c 1
 295 163 285 141 276 120 c 1
 313 120 355 120 387 120 c 0
 405 120 421 104 421 86 c 0
 421 68 407 53 389 53 c 0
 352 53 305 53 247 53 c 1
 242 42 236 30 230 17 c 1
 280 17 340 17 388 17 c 0
 406 17 422 1 422 -17 c 0
 422 -35 408 -50 390 -50 c 0
 343 -50 280 -50 200 -50 c 1
 154 -151 139 -186 128 -212 c 0
 124 -224 110 -233 97 -233 c 0
 79 -233 63 -217 63 -199 c 0
 63 -196 80 -158 127 -51 c 1
 116 -51 107 -51 98 -51 c 0
 77 -51 63 -51 60 -51 c 0
 42 -51 26 -35 26 -17 c 0
 26 1 40 16 58 16 c 0
 86 16 119 17 157 17 c 1
 163 30 168 41 173 52 c 1
 144 52 119 52 99 52 c 0
 77 52 62 52 59 52 c 0
 41 52 25 68 25 86 c 0
 25 104 39 119 57 119 c 0
 96 119 145 120 203 120 c 1
 215 147 225 170 234 191 c 1
 224 200 216 212 208 224 c 0
 194 246 181 267 155 267 c 0
EndSplineSet
Validated: 1
EndChar

StartChar: approxequal
Encoding: 72 8776 72
Width: 433
Flags: W
HStem: 81 67<116.495 185.204> 239 67<117.495 186.535>
LayerCount: 2
Fore
SplineSet
259 219 m 1
 298 222 315 250 330 274 c 0
 342 294 353 312 374 312 c 0
 392 312 408 296 408 278 c 0
 408 266 401 257 394 249 c 0
 390 245 387 241 385 236 c 0
 345 176 314 155 262 152 c 2
 260 152 l 2
 259 152 259 152 258 151 c 0
 231 151 218 173 204 195 c 0
 190 217 176 239 149 239 c 0
 128 239 116 219 104 198 c 0
 92 177 80 156 59 156 c 0
 41 156 26 171 26 189 c 0
 26 199 31 209 41 224 c 0
 42 224 42 224 42 225 c 0
 79 286 106 306 149 306 c 0
 189 306 216 287 245 239 c 0
 252 228 255 223 259 219 c 1
258 61 m 1
 297 64 314 92 329 116 c 0
 341 136 352 154 373 154 c 0
 391 154 407 138 407 120 c 0
 407 108 400 99 393 91 c 0
 389 87 386 83 384 78 c 0
 344 18 313 -3 261 -6 c 2
 259 -6 l 2
 258 -6 258 -6 257 -7 c 0
 230 -7 216 15 202 37 c 0
 188 59 175 81 148 81 c 0
 127 81 115 61 103 40 c 0
 91 19 79 -2 58 -2 c 0
 40 -2 25 13 25 31 c 0
 25 41 30 51 40 66 c 0
 41 66 41 66 41 67 c 0
 78 128 105 148 148 148 c 0
 188 148 215 129 244 81 c 0
 251 70 254 65 258 61 c 1
EndSplineSet
Validated: 1
EndChar

StartChar: uni2249
Encoding: 73 8777 73
Width: 433
Flags: W
HStem: 81 67<116.634 152.949> 239 67<117.495 185.961>
VStem: 99 65<-79.5146 -15.2822> 278 63<322.915 381.138>
LayerCount: 2
Fore
SplineSet
149 239 m 0
 128 239 116 219 104 198 c 0
 92 177 80 156 59 156 c 0
 41 156 26 171 26 189 c 0
 26 199 31 209 41 224 c 0
 42 224 42 224 42 225 c 0
 79 286 106 306 149 306 c 0
 183 306 207 292 231 260 c 1
 266 341 276 358 278 362 c 0
 278 363 l 0
 283 375 295 383 309 383 c 0
 334 383 341 371 341 356 c 0
 341 340 332 319 326 307 c 0
 318 289 307 264 291 229 c 1
 309 240 320 258 330 274 c 0
 342 294 353 312 374 312 c 0
 392 312 408 296 408 278 c 0
 408 266 401 257 394 249 c 0
 390 245 387 241 385 236 c 0
 345 176 314 155 262 152 c 2
 260 152 l 2
 259 152 259 152 258 151 c 0
 257 151 257 151 256 151 c 0
 248 132 240 114 233 98 c 1
 238 91 242 85 245 79 c 0
 250 71 253 66 258 61 c 1
 297 64 314 92 329 116 c 0
 341 136 352 154 373 154 c 0
 391 154 407 138 407 120 c 0
 407 108 400 99 393 91 c 0
 389 87 386 83 384 78 c 0
 344 18 313 -3 261 -6 c 2
 259 -6 l 2
 258 -6 258 -6 257 -7 c 0
 237 -7 223 3 204 33 c 1
 188 -4 175 -35 164 -62 c 0
 160 -74 146 -83 133 -83 c 0
 115 -83 99 -67 99 -49 c 0
 99 -46 116 -4 153 81 c 1
 151 81 150 81 148 81 c 0
 127 81 115 61 103 40 c 0
 91 19 79 -2 58 -2 c 0
 40 -2 25 13 25 31 c 0
 25 41 30 51 40 66 c 0
 41 66 41 66 41 67 c 0
 78 128 105 148 148 148 c 0
 160 148 170 146 180 143 c 1
 187 159 194 176 203 196 c 1
 181 230 170 239 149 239 c 0
EndSplineSet
Validated: 1
EndChar

StartChar: uni224A
Encoding: 74 8778 74
Width: 446
Flags: W
HStem: -84 68<28.4854 417.515> 118 67<125.659 193.204> 276 67<126.659 194.535>
LayerCount: 2
Fore
SplineSet
267 256 m 1
 306 259 323 287 338 311 c 0
 350 331 361 349 382 349 c 0
 400 349 416 333 416 315 c 0
 416 303 409 294 402 286 c 0
 398 282 395 278 393 273 c 0
 353 213 322 192 270 189 c 2
 268 189 l 2
 267 189 267 189 266 188 c 0
 239 188 226 210 212 232 c 0
 198 254 184 276 157 276 c 0
 136 276 124 255 112 234 c 0
 100 213 88 193 67 193 c 0
 49 193 34 208 34 226 c 0
 34 236 39 246 49 261 c 0
 50 261 50 261 50 262 c 0
 87 323 114 343 157 343 c 0
 197 343 224 324 253 276 c 0
 260 265 263 260 267 256 c 1
266 98 m 1
 305 101 322 129 337 153 c 0
 349 173 360 191 381 191 c 0
 399 191 415 175 415 157 c 0
 415 145 408 136 401 128 c 0
 397 124 394 120 392 115 c 0
 352 55 321 34 269 31 c 2
 267 31 l 2
 266 31 266 31 265 30 c 0
 238 30 224 52 210 74 c 0
 196 96 183 118 156 118 c 0
 135 118 123 97 111 76 c 0
 99 55 87 35 66 35 c 0
 48 35 33 50 33 68 c 0
 33 78 38 88 48 103 c 0
 49 103 49 103 49 104 c 0
 86 165 113 185 156 185 c 0
 196 185 223 166 252 118 c 0
 259 107 262 102 266 98 c 1
389 -83 m 0
 355 -83 290 -84 224 -84 c 0
 158 -84 93 -84 59 -84 c 0
 41 -84 25 -68 25 -50 c 0
 25 -32 39 -17 57 -17 c 0
 134 -16 263 -16 387 -16 c 0
 405 -16 421 -32 421 -50 c 0
 421 -68 407 -83 389 -83 c 0
EndSplineSet
Validated: 1
EndChar

StartChar: uni224B
Encoding: 75 8779 75
Width: 446
Flags: W
HStem: 5 67<130.495 199.204> 160 67<117.659 185.204> 318 65<117.956 186.51>
LayerCount: 2
Fore
SplineSet
259 298 m 1
 298 301 315 329 330 353 c 0
 342 373 353 391 374 391 c 0
 392 391 408 375 408 357 c 0
 408 345 401 336 394 328 c 0
 390 324 387 320 385 315 c 0
 345 255 314 234 262 231 c 2
 260 231 l 2
 259 231 259 231 258 230 c 0
 231 230 218 252 204 274 c 0
 190 296 176 318 149 318 c 0
 128 318 116 297 104 276 c 0
 92 255 80 235 59 235 c 0
 41 235 26 250 26 268 c 0
 26 278 31 288 41 303 c 0
 42 303 42 303 42 303 c 0
 42 304 l 0
 78 364 104 383 148 383 c 0
 189 383 217 364 245 318 c 0
 252 307 255 302 259 298 c 1
258 140 m 1
 297 143 314 171 329 195 c 0
 341 215 352 233 373 233 c 0
 391 233 407 217 407 199 c 0
 407 187 400 178 393 170 c 0
 389 166 386 162 384 157 c 0
 344 97 313 76 261 73 c 2
 259 73 l 2
 258 73 258 73 257 72 c 0
 230 72 216 94 202 116 c 0
 188 138 175 160 148 160 c 0
 127 160 115 139 103 118 c 0
 91 97 79 77 58 77 c 0
 40 77 25 92 25 110 c 0
 25 120 30 130 40 145 c 0
 41 145 41 145 41 146 c 0
 78 207 105 227 148 227 c 0
 188 227 215 208 244 160 c 0
 251 149 254 144 258 140 c 1
272 -15 m 1
 311 -12 328 16 343 40 c 0
 355 60 366 78 387 78 c 0
 405 78 421 62 421 44 c 0
 421 32 414 23 407 15 c 0
 403 11 400 7 398 2 c 0
 358 -58 327 -79 275 -82 c 2
 273 -82 l 2
 272 -82 272 -82 271 -83 c 0
 244 -83 230 -61 216 -39 c 0
 202 -17 189 5 162 5 c 0
 141 5 129 -15 117 -36 c 0
 105 -57 93 -78 72 -78 c 0
 54 -78 39 -63 39 -45 c 0
 39 -35 44 -25 54 -10 c 0
 55 -10 55 -10 55 -9 c 0
 92 52 119 72 162 72 c 0
 202 72 229 53 258 5 c 0
 265 -6 268 -11 272 -15 c 1
EndSplineSet
Validated: 1
EndChar

StartChar: uni224C
Encoding: 76 8780 76
Width: 447
Flags: W
HStem: -50 67<29.1243 418.515> 52 68<28.4854 417.515> 194 67<116.495 185.204>
LayerCount: 2
Fore
SplineSet
389 53 m 0
 355 53 290 52 224 52 c 0
 158 52 93 52 59 52 c 0
 41 52 25 68 25 86 c 0
 25 104 39 119 57 119 c 0
 134 120 263 120 387 120 c 0
 405 120 421 104 421 86 c 0
 421 68 407 53 389 53 c 0
390 -50 m 0
 356 -50 291 -50 225 -50 c 0
 159 -50 94 -51 60 -51 c 0
 42 -51 26 -35 26 -17 c 0
 26 1 40 16 58 16 c 0
 135 17 264 17 388 17 c 0
 406 17 422 1 422 -17 c 0
 422 -35 408 -50 390 -50 c 0
258 281 m 1
 254 277 251 272 244 261 c 0
 215 213 188 194 148 194 c 0
 105 194 78 214 41 275 c 0
 41 276 41 276 40 276 c 0
 30 291 25 301 25 311 c 0
 25 329 40 344 58 344 c 0
 79 344 91 323 103 302 c 0
 115 281 127 261 148 261 c 0
 175 261 188 283 202 305 c 0
 216 327 230 349 257 349 c 0
 258 348 258 348 259 348 c 2
 261 348 l 2
 313 345 344 324 384 264 c 0
 386 259 389 255 393 251 c 0
 400 243 407 234 407 222 c 0
 407 204 391 188 373 188 c 0
 352 188 341 206 329 226 c 0
 314 250 297 278 258 281 c 1
EndSplineSet
Validated: 1
EndChar

StartChar: uni224D
Encoding: 77 8781 77
Width: 401
VWidth: 0
Flags: W
HStem: -0 21G<55 78 327.5 352> 66 68<148.998 254.445> 166 67<150.162 246.874> 280 20G<49 71.5 313.5 335>
LayerCount: 2
Fore
SplineSet
200 66 m 0
 172 66 152 50 132 33 c 0
 112 16 92 0 64 -0 c 0
 46 0 31 15 31 33 c 0
 31 42 35 51 41 57 c 0
 96 111 143 134 200 134 c 0
 261 134 298 117 365 58 c 0
 372 52 376 43 376 33 c 0
 376 15 361 -1 343 -1 c 0
 312 -1 292 16 272 33 c 0
 252 50 231 66 200 66 c 0
202 233 m 0
 227 233 246 250 264 267 c 0
 282 284 301 300 326 300 c 0
 344 300 360 285 360 267 c 0
 360 257 356 249 348 241 c 0
 287 184 253 166 202 166 c 0
 155 166 125 178 71 217 c 0
 56 228 49 233 40 239 c 0
 40 244 37 248 33 253 c 0
 29 258 25 262 25 267 c 0
 25 285 40 300 58 300 c 0
 85 300 108 284 130 267 c 0
 152 250 175 233 202 233 c 0
EndSplineSet
Validated: 1
EndChar

StartChar: uni224E
Encoding: 78 8782 78
Width: 639
VWidth: 0
Flags: W
HStem: -84 68<292.181 338.741> 32 67<413.765 609.381> 42 67<30.7661 218.881> 164 66<485.638 599.699> 168 67<39.0117 213.108 406 482.934> 176 67<38.2548 206.922 406 569.251> 314 67<295.33 329.414>
LayerCount: 2
Fore
SplineSet
310 -84 m 0xc2
 255 -84 223 -40 217 44 c 1
 181 42 161 42 138 42 c 0
 105 42 78 43 54 47 c 0
 38 49 25 63 25 80 c 0
 25 98 41 114 59 114 c 0
 74 114 85 112 98 111 c 0
 111 110 123 109 138 109 c 0
 146 109 168 109 190 110 c 0
 212 111 234 112 242 112 c 0
 243 112 242 112 243 112 c 0
 244 112 244 112 245 112 c 0
 266 112 279 99 282 76 c 0
 282 72 283 66 283 60 c 0
 284 47 285 31 288 16 c 0
 293 -6 300 -16 310 -16 c 0
 339 -16 345 13 351 42 c 0xa2
 355 61 359 80 370 90 c 0
 381 100 395 103 420 103 c 0
 438 103 455 102 474 101 c 0
 493 100 511 99 529 99 c 0
 536 99 546 99 555 100 c 0
 564 101 574 102 581 102 c 0
 599 102 614 86 614 68 c 0
 614 51 601 37 584 35 c 0
 567 33 549 32 529 32 c 0
 523 32 499 33 474 34 c 0
 449 35 426 36 420 36 c 0
 419 36 l 0
 402 -46 368 -84 310 -84 c 0xc2
484 176 m 0x86
 468 176 452 175 436 173 c 0
 420 171 405 169 389 169 c 2
 388 169 l 2
 360 169 346 183 341 215 c 0
 340 223 339 232 338 242 c 0
 336 261 334 282 330 297 c 0
 326 310 322 313 321 314 c 0
 321 314 321 314 320 314 c 0
 298 314 288 296 279 230 c 0x92
 271 174 264 168 208 168 c 0
 185 168 162 169 137 170 c 0
 114 171 90 173 66 173 c 0
 48 173 33 188 33 206 c 0
 33 224 49 240 67 240 c 0
 82 240 109 238 137 237 c 0
 165 236 193 235 208 235 c 0
 210 235 211 235 212 235 c 0x8a
 227 342 257 381 320 381 c 0
 372 381 395 344 404 249 c 0
 404 245 406 242 406 238 c 0
 455 243 461 243 484 243 c 0x86
 519 243 550 239 579 230 c 0
 593 226 603 213 603 198 c 0
 603 180 588 164 570 164 c 0x92
 554 164 540 167 527 170 c 0
 514 173 500 176 484 176 c 0x86
EndSplineSet
Validated: 1
EndChar

StartChar: uni224F
Encoding: 79 8783 79
Width: 624
VWidth: 0
Flags: W
HStem: -0 67<32.1243 595.515> 116 66<477.638 591.699> 120 67<30.6953 205.108 396.123 474.934> 128 67<30.2548 198.922 394.463 561.251> 233 67<277.866 324.732>
LayerCount: 2
Fore
SplineSet
476 128 m 0x98
 460 128 444 127 428 125 c 0
 412 123 397 121 381 121 c 2
 380 121 l 2
 352 121 338 135 333 167 c 0
 332 175 331 181 331 186 c 0
 330 194 330 201 326 216 c 0
 322 229 318 232 317 233 c 0
 317 233 317 233 316 233 c 0
 282 233 278 229 271 182 c 0xc8
 263 126 256 120 200 120 c 0
 177 120 154 121 129 122 c 0
 106 123 82 125 58 125 c 0
 40 125 25 140 25 158 c 0
 25 176 40 191 58 191 c 0
 73 191 101 190 129 189 c 0
 157 188 185 187 200 187 c 0
 201 187 201 187 202 187 c 0
 203 187 204 186 204 187 c 0xa8
 211 239 224 258 265 285 c 0
 279 294 298 300 316 300 c 0
 364 300 389 267 398 190 c 1
 447 195 453 195 476 195 c 0x98
 511 195 542 191 571 182 c 0
 585 178 595 165 595 150 c 0
 595 132 580 116 562 116 c 0xc8
 546 116 532 119 519 122 c 0
 506 125 492 128 476 128 c 0x98
567 0 m 0
 533 0 424 0 315 -0 c 0
 206 -0 97 -1 63 -1 c 0
 45 -1 29 15 29 33 c 0
 29 51 43 66 61 66 c 0
 136 67 339 67 565 67 c 0
 583 67 599 51 599 33 c 0
 599 15 585 0 567 0 c 0
EndSplineSet
Validated: 1
EndChar

StartChar: uni2250
Encoding: 80 8784 80
Width: 327
Flags: W
HStem: 37 67<28.4854 147.176> 45 67<60.7849 298.515> 173 67<29.44 155.843> 183 61<62.6381 257 258 289.219> 317 66<131.124 192.876>
VStem: 128 68<320.293 379.707>
LayerCount: 2
Fore
SplineSet
269 45 m 0x4c
 251 45 217 44 178 42 c 0
 140 40 97 38 59 37 c 0
 41 37 25 53 25 71 c 0
 25 89 39 103 58 104 c 0x8c
 76 104 110 105 149 107 c 0
 187 109 230 111 268 112 c 0
 286 112 302 96 302 78 c 0
 302 60 288 46 269 45 c 0x4c
58 240 m 0x2c
 65 240 112 242 158 244 c 0
 204 246 250 249 257 249 c 2
 258 250 l 1
 276 250 292 234 292 216 c 0
 292 198 278 184 260 183 c 0x1c
 253 183 136 177 59 173 c 0
 41 173 26 189 26 207 c 0
 26 225 40 239 58 240 c 0x2c
128 350 m 0
 128 368 144 383 162 383 c 0
 180 383 196 368 196 350 c 0
 196 332 180 317 162 317 c 0
 144 317 128 332 128 350 c 0
EndSplineSet
Validated: 1
EndChar

StartChar: uni2251
Encoding: 81 8785 81
Width: 327
Flags: W
HStem: -83 66<135.124 196.876> 37 67<28.4854 147.176> 45 67<60.7849 298.515> 173 67<29.44 155.843> 183 61<62.6381 257 258 289.219> 317 66<131.124 192.876>
VStem: 132 68<-79.7074 -20.2926 322.695 377.305>
LayerCount: 2
Fore
SplineSet
269 45 m 0xa6
 251 45 217 44 178 42 c 0
 140 40 97 38 59 37 c 0
 41 37 25 53 25 71 c 0
 25 89 39 103 58 104 c 0xc6
 76 104 110 105 149 107 c 0
 187 109 230 111 268 112 c 0
 286 112 302 96 302 78 c 0
 302 60 288 46 269 45 c 0xa6
58 240 m 0x96
 65 240 112 242 158 244 c 0
 204 246 250 249 257 249 c 2
 258 250 l 1
 276 250 292 234 292 216 c 0
 292 198 278 184 260 183 c 0x8e
 253 183 136 177 59 173 c 0
 41 173 26 189 26 207 c 0
 26 225 40 239 58 240 c 0x96
128 350 m 0
 128 368 144 383 162 383 c 0
 180 383 196 368 196 350 c 0
 196 332 180 317 162 317 c 0
 144 317 128 332 128 350 c 0
132 -50 m 0
 132 -32 148 -17 166 -17 c 0
 184 -17 200 -32 200 -50 c 0
 200 -68 184 -83 166 -83 c 0
 148 -83 132 -68 132 -50 c 0
EndSplineSet
Validated: 1
EndChar

StartChar: uni2252
Encoding: 82 8786 82
Width: 327
Flags: W
HStem: -83 66<235.124 296.876> 37 67<28.4854 147.176> 45 67<60.7849 298.515> 173 67<29.44 155.843> 183 61<62.6381 257 258 289.219> 317 66<29.1243 90.8757>
VStem: 26 68<320.293 379.707> 232 68<-79.7074 -20.2926>
LayerCount: 2
Fore
SplineSet
269 45 m 0xa7
 251 45 217 44 178 42 c 0
 140 40 97 38 59 37 c 0
 41 37 25 53 25 71 c 0
 25 89 39 103 58 104 c 0xc7
 76 104 110 105 149 107 c 0
 187 109 230 111 268 112 c 0
 286 112 302 96 302 78 c 0
 302 60 288 46 269 45 c 0xa7
58 240 m 0x97
 65 240 112 242 158 244 c 0
 204 246 250 249 257 249 c 2
 258 250 l 1
 276 250 292 234 292 216 c 0
 292 198 278 184 260 183 c 0x8f
 253 183 136 177 59 173 c 0
 41 173 26 189 26 207 c 0
 26 225 40 239 58 240 c 0x97
26 350 m 0
 26 368 42 383 60 383 c 0
 78 383 94 368 94 350 c 0
 94 332 78 317 60 317 c 0
 42 317 26 332 26 350 c 0
232 -50 m 0
 232 -32 248 -17 266 -17 c 0
 284 -17 300 -32 300 -50 c 0
 300 -68 284 -83 266 -83 c 0
 248 -83 232 -68 232 -50 c 0
EndSplineSet
Validated: 1
EndChar

StartChar: uni2253
Encoding: 83 8787 83
Width: 327
Flags: W
HStem: -83 66<38.1243 99.8757> 37 67<28.4854 147.176> 45 67<60.7849 298.515> 173 67<29.44 155.843> 183 61<62.6381 257 258 289.219> 317 66<227.124 288.876>
VStem: 35 68<-79.7074 -20.2926> 224 68<320.293 379.707>
LayerCount: 2
Fore
SplineSet
269 45 m 0xa7
 251 45 217 44 178 42 c 0
 140 40 97 38 59 37 c 0
 41 37 25 53 25 71 c 0
 25 89 39 103 58 104 c 0xc7
 76 104 110 105 149 107 c 0
 187 109 230 111 268 112 c 0
 286 112 302 96 302 78 c 0
 302 60 288 46 269 45 c 0xa7
58 240 m 0x97
 65 240 112 242 158 244 c 0
 204 246 250 249 257 249 c 2
 258 250 l 1
 276 250 292 234 292 216 c 0
 292 198 278 184 260 183 c 0x8f
 253 183 136 177 59 173 c 0
 41 173 26 189 26 207 c 0
 26 225 40 239 58 240 c 0x97
224 350 m 0
 224 368 240 383 258 383 c 0
 276 383 292 368 292 350 c 0
 292 332 276 317 258 317 c 0
 240 317 224 332 224 350 c 0
35 -50 m 0
 35 -32 51 -17 69 -17 c 0
 87 -17 103 -32 103 -50 c 0
 103 -68 87 -83 69 -83 c 0
 51 -83 35 -68 35 -50 c 0
EndSplineSet
Validated: 1
EndChar

StartChar: uni2254
Encoding: 84 8788 84
Width: 441
Flags: W
HStem: 33 67<29.4854 90.5146 145.012 380.215> 45 67<174.785 412.515> 173 67<143.44 269.843> 183 61<176.638 371 372 403.219> 199 68<28.2926 88.5146>
VStem: 26 68<36.4854 96.7074 203.673 262.327>
LayerCount: 2
Fore
SplineSet
383 45 m 0x44
 365 45 331 44 292 42 c 0
 254 40 211 38 173 37 c 0
 155 37 139 53 139 71 c 0
 139 89 153 103 172 104 c 0
 190 104 224 105 263 107 c 0
 301 109 344 111 382 112 c 0
 400 112 416 96 416 78 c 0
 416 60 402 46 383 45 c 0x44
172 240 m 0x24
 179 240 226 242 272 244 c 0
 318 246 364 249 371 249 c 2
 372 250 l 1
 390 250 406 234 406 216 c 0
 406 198 392 184 374 183 c 0x14
 367 183 250 177 173 173 c 0
 155 173 140 189 140 207 c 0
 140 225 154 239 172 240 c 0x24
25 233 m 0
 25 251 40 267 58 267 c 0
 76 267 92 251 92 233 c 0
 92 215 76 199 58 199 c 0x0c
 40 199 25 215 25 233 c 0
26 67 m 0
 26 85 42 100 60 100 c 0
 78 100 94 85 94 67 c 0
 94 49 78 33 60 33 c 0x84
 42 33 26 49 26 67 c 0
EndSplineSet
Validated: 1
EndChar

StartChar: uni2255
Encoding: 85 8789 85
Width: 441
Flags: W
HStem: 33 67<31.0117 266.215 351.485 412.515> 45 67<60.7849 298.515> 173 67<29.44 155.843> 183 61<62.6381 257 258 289.219> 199 68<350.293 410.515>
VStem: 348 68<36.4854 96.7074 203.673 262.327>
LayerCount: 2
Fore
SplineSet
269 45 m 0x44
 251 45 217 44 178 42 c 0
 140 40 97 38 59 37 c 0
 41 37 25 53 25 71 c 0
 25 89 39 103 58 104 c 0
 76 104 110 105 149 107 c 0
 187 109 230 111 268 112 c 0
 286 112 302 96 302 78 c 0
 302 60 288 46 269 45 c 0x44
58 240 m 0x24
 65 240 112 242 158 244 c 0
 204 246 250 249 257 249 c 2
 258 250 l 1
 276 250 292 234 292 216 c 0
 292 198 278 184 260 183 c 0x14
 253 183 136 177 59 173 c 0
 41 173 26 189 26 207 c 0
 26 225 40 239 58 240 c 0x24
347 233 m 0
 347 251 362 267 380 267 c 0
 398 267 414 251 414 233 c 0
 414 215 398 199 380 199 c 0x0c
 362 199 347 215 347 233 c 0
348 67 m 0
 348 85 364 100 382 100 c 0
 400 100 416 85 416 67 c 0
 416 49 400 33 382 33 c 0x84
 364 33 348 49 348 67 c 0
EndSplineSet
Validated: 1
EndChar

StartChar: uni2256
Encoding: 86 8790 86
Width: 327
Flags: W
HStem: 0 67<28.4854 92> 8 67<222.795 298.515> 191 67<31.44 94.3921> 201 66<222 259 260 290.876>
VStem: 79 67<102.423 150> 181 67<109.459 158.433>
LayerCount: 2
Fore
SplineSet
269 8 m 0x5c
 251 8 217 7 178 5 c 0
 140 3 97 1 59 0 c 0
 41 0 25 16 25 34 c 0
 25 52 39 66 58 67 c 0
 61 67 77 67 92 68 c 1
 84 85 79 107 79 132 c 0
 79 156 85 177 95 193 c 1
 82 192 71 192 61 191 c 0
 43 191 28 207 28 225 c 0
 28 243 42 257 60 258 c 0xac
 67 258 114 260 160 262 c 0
 206 264 252 267 259 267 c 2
 260 268 l 1
 278 268 294 252 294 234 c 0
 294 216 280 202 262 201 c 0
 260 201 246 200 222 199 c 1
 239 182 248 160 248 137 c 0
 248 116 239 93 222 73 c 1
 239 74 254 75 268 75 c 0
 286 75 302 59 302 41 c 0
 302 23 288 9 269 8 c 0x5c
148 150 m 1
 148 147 l 2
 146 142 146 141 146 132 c 0
 146 121 147 111 150 102 c 1
 168 111 181 126 181 137 c 0
 181 148 170 159 158 159 c 0
 152 159 151 158 149 151 c 2
 148 150 l 1
EndSplineSet
Validated: 1
EndChar

StartChar: uni2257
Encoding: 87 8791 87
Width: 327
Flags: W
HStem: -83 67<28.4854 147.176> -75 67<60.7849 298.515> 53 67<29.44 155.843> 63 61<62.6381 257 258 289.219> 316 67<153.08 185.53>
VStem: 84 69<259.661 307> 186 67<266.012 314.73>
LayerCount: 2
Fore
SplineSet
269 -75 m 0x4e
 251 -75 217 -76 178 -78 c 0
 140 -80 97 -82 59 -83 c 0
 41 -83 25 -67 25 -49 c 0
 25 -31 39 -17 58 -16 c 0x8e
 76 -16 110 -15 149 -13 c 0
 187 -11 230 -9 268 -8 c 0
 286 -8 302 -24 302 -42 c 0
 302 -60 288 -74 269 -75 c 0x4e
58 120 m 0x2e
 65 120 112 122 158 124 c 0
 204 126 250 129 257 129 c 2
 258 130 l 1
 276 130 292 114 292 96 c 0
 292 78 278 64 260 63 c 0x1e
 253 63 136 57 59 53 c 0
 41 53 26 69 26 87 c 0
 26 105 40 119 58 120 c 0x2e
153 307 m 1
 153 304 l 2
 151 299 151 298 151 289 c 0
 151 278 152 268 155 259 c 1
 173 268 186 283 186 294 c 0
 186 305 175 316 163 316 c 0
 157 316 156 315 154 308 c 2
 153 307 l 1
150 190 m 0
 109 190 84 228 84 289 c 0
 84 347 115 383 163 383 c 0
 212 383 253 342 253 294 c 0
 253 244 199 190 150 190 c 0
EndSplineSet
Validated: 1
EndChar

StartChar: uni2258
Encoding: 88 8792 88
Width: 327
Flags: W
HStem: -83 67<28.4854 147.176> -75 67<60.7849 298.515> 53 67<29.44 155.843> 63 61<62.6381 257 258 289.219> 316 67<136.946 192.015>
VStem: 207 63<236.95 309.994>
LayerCount: 2
Fore
SplineSet
101 246 m 0x0c
 97 246 93 243 89 240 c 0
 85 237 80 234 76 234 c 0
 58 234 43 250 43 268 c 0
 43 276 46 283 51 289 c 0
 55 294 59 301 64 309 c 0
 74 326 87 346 109 362 c 0
 129 376 153 383 181 383 c 0
 222 383 243 363 258 310 c 0
 263 291 266 283 268 279 c 0
 270 275 270 273 270 267 c 0
 270 249 255 234 237 234 c 0
 224 234 212 241 207 253 c 0
 201 266 196 281 193 293 c 0
 190 303 188 312 185 316 c 0
 184 316 183 316 181 316 c 0
 153 316 142 308 121 274 c 0
 111 258 107 253 101 246 c 0x0c
269 -75 m 0x4c
 251 -75 217 -76 178 -78 c 0
 140 -80 97 -82 59 -83 c 0
 41 -83 25 -67 25 -49 c 0
 25 -31 39 -17 58 -16 c 0x8c
 76 -16 110 -15 149 -13 c 0
 187 -11 230 -9 268 -8 c 0
 286 -8 302 -24 302 -42 c 0
 302 -60 288 -74 269 -75 c 0x4c
58 120 m 0x2c
 65 120 112 122 158 124 c 0
 204 126 250 129 257 129 c 2
 258 130 l 1
 276 130 292 114 292 96 c 0
 292 78 278 64 260 63 c 0x1c
 253 63 136 57 59 53 c 0
 41 53 26 69 26 87 c 0
 26 105 40 119 58 120 c 0x2c
EndSplineSet
Validated: 1
EndChar

StartChar: uni2259
Encoding: 89 8793 89
Width: 327
Flags: W
HStem: -83 67<28.4854 147.176> -75 67<60.7849 298.515> 53 67<29.44 155.843> 63 61<62.6381 257 258 289.219>
VStem: 176 92<246.391 291.839>
LayerCount: 2
Fore
SplineSet
234 208 m 0x08
 211 208 208 214 176 293 c 1
 157 270 135 246 109 220 c 0
 103 214 94 211 85 211 c 0
 67 211 52 226 52 244 c 0
 52 253 55 262 61 268 c 0
 92 299 113 322 138 352 c 0
 158 376 167 382 184 382 c 0
 208 382 217 371 242 308 c 0
 253 281 259 265 263 258 c 0
 266 253 268 248 268 242 c 0
 268 224 252 208 234 208 c 0x08
269 -75 m 0x48
 251 -75 217 -76 178 -78 c 0
 140 -80 97 -82 59 -83 c 0
 41 -83 25 -67 25 -49 c 0
 25 -31 39 -17 58 -16 c 0x88
 76 -16 110 -15 149 -13 c 0
 187 -11 230 -9 268 -8 c 0
 286 -8 302 -24 302 -42 c 0
 302 -60 288 -74 269 -75 c 0x48
58 120 m 0x28
 65 120 112 122 158 124 c 0
 204 126 250 129 257 129 c 2
 258 130 l 1
 276 130 292 114 292 96 c 0
 292 78 278 64 260 63 c 0x18
 253 63 136 57 59 53 c 0
 41 53 26 69 26 87 c 0
 26 105 40 119 58 120 c 0x28
EndSplineSet
Validated: 1
EndChar

StartChar: uni225A
Encoding: 90 8794 90
Width: 327
Flags: W
HStem: -83 67<28.4854 147.176> -75 67<60.7849 298.515> 53 67<29.44 155.843> 63 61<62.6381 257 258 289.219>
VStem: 25 277<-71.5522 -19.4478>
LayerCount: 2
Fore
SplineSet
45 349 m 0x08
 45 367 61 383 79 383 c 0
 90 383 101 377 107 368 c 0
 115 357 122 344 130 331 c 0
 141 313 152 295 161 284 c 1
 167 295 174 309 182 325 c 0
 189 338 196 353 203 365 c 0
 209 376 220 383 232 383 c 0
 250 383 266 367 266 349 c 0
 266 343 264 338 261 333 c 0
 255 322 249 310 243 297 c 0
 233 277 224 257 213 241 c 0
 198 218 183 207 164 207 c 0
 135 207 117 226 73 296 c 0
 62 314 56 322 51 330 c 0
 47 336 45 342 45 349 c 0x08
269 -75 m 0x48
 251 -75 217 -76 178 -78 c 0
 140 -80 97 -82 59 -83 c 0
 41 -83 25 -67 25 -49 c 0
 25 -31 39 -17 58 -16 c 0x88
 76 -16 110 -15 149 -13 c 0
 187 -11 230 -9 268 -8 c 0
 286 -8 302 -24 302 -42 c 0
 302 -60 288 -74 269 -75 c 0x48
58 120 m 0x28
 65 120 112 122 158 124 c 0
 204 126 250 129 257 129 c 2
 258 130 l 1
 276 130 292 114 292 96 c 0
 292 78 278 64 260 63 c 0x18
 253 63 136 57 59 53 c 0
 41 53 26 69 26 87 c 0
 26 105 40 119 58 120 c 0x28
EndSplineSet
Validated: 1
EndChar

StartChar: uni225B
Encoding: 91 8795 91
Width: 327
Flags: W
HStem: -83 67<28.4854 147.176> -75 67<60.7849 298.515> 33 67<29.44 155.843> 43 61<62.6381 257 258 289.219> 255 72<51.6954 98.7649> 263 65<209.462 260.515>
VStem: 121 67<312 379.515>
LayerCount: 2
Fore
SplineSet
269 -75 m 0x42
 251 -75 217 -76 178 -78 c 0
 140 -80 97 -82 59 -83 c 0
 41 -83 25 -67 25 -49 c 0
 25 -31 39 -17 58 -16 c 0x82
 76 -16 110 -15 149 -13 c 0
 187 -11 230 -9 268 -8 c 0
 286 -8 302 -24 302 -42 c 0
 302 -60 288 -74 269 -75 c 0x42
58 100 m 0x22
 65 100 112 102 158 104 c 0
 204 106 250 109 257 109 c 2
 258 110 l 1
 276 110 292 94 292 76 c 0
 292 58 278 44 260 43 c 0x12
 253 43 136 37 59 33 c 0
 41 33 26 49 26 67 c 0
 26 85 40 99 58 100 c 0x22
79 327 m 0x0a
 87 327 93 323 101 319 c 0
 107 316 113 313 121 310 c 1
 121 352 l 2
 122 369 136 383 154 383 c 0
 172 383 188 367 188 349 c 2
 188 312 l 1
 211 323 224 328 230 328 c 0
 248 328 264 312 264 294 c 0
 264 280 256 268 244 263 c 0x06
 219 253 219 253 209 248 c 1
 238 219 l 2
 244 213 248 204 248 195 c 0
 248 177 233 162 215 162 c 0
 205 162 197 165 191 171 c 2
 154 209 l 1
 150 205 141 194 134 185 c 0
 130 180 127 175 126 174 c 0
 120 166 111 162 100 162 c 0
 82 162 67 177 67 195 c 0
 67 209 68 211 99 247 c 1
 94 249 88 252 82 255 c 0x0a
 76 258 70 261 65 263 c 0x06
 54 268 46 280 46 293 c 0
 46 311 61 327 79 327 c 0x0a
EndSplineSet
Validated: 1
EndChar

StartChar: uni225C
Encoding: 92 8796 92
Width: 327
Flags: W
HStem: -83 67<28.4854 147.176> -75 67<60.7849 298.515> 53 67<29.44 155.843> 63 61<62.6381 257 258 289.219> 199 64<139 164.267>
VStem: 25 277<-71.5522 -19.4478>
LayerCount: 2
Fore
SplineSet
165 262 m 1x0c
 161 271 157 279 153 287 c 1
 149 280 144 272 139 263 c 1
 165 262 l 1x0c
249 226 m 0
 249 208 234 192 215 192 c 0
 214 192 214 193 80 199 c 0
 62 200 48 214 48 232 c 0
 48 241 48 240 62 264 c 0
 124 372 132 382 155 382 c 0
 175 382 185 371 209 324 c 0
 233 277 249 239 249 226 c 0
269 -75 m 0x4c
 251 -75 217 -76 178 -78 c 0
 140 -80 97 -82 59 -83 c 0
 41 -83 25 -67 25 -49 c 0
 25 -31 39 -17 58 -16 c 0x8c
 76 -16 110 -15 149 -13 c 0
 187 -11 230 -9 268 -8 c 0
 286 -8 302 -24 302 -42 c 0
 302 -60 288 -74 269 -75 c 0x4c
58 120 m 0x2c
 65 120 112 122 158 124 c 0
 204 126 250 129 257 129 c 2
 258 130 l 1
 276 130 292 114 292 96 c 0
 292 78 278 64 260 63 c 0x1c
 253 63 136 57 59 53 c 0
 41 53 26 69 26 87 c 0
 26 105 40 119 58 120 c 0x2c
EndSplineSet
Validated: 1
EndChar

StartChar: uni225D
Encoding: 93 8797 93
Width: 633
Flags: W
HStem: -83 67<28.4854 286.991> -67 67<365.485 604.515> 53 67<29.44 271.091> 62 66<96.5428 525.078> 71 66<350.264 563 564 594.876> 200 45<70.5237 128.402 275.499 362.863> 349 44<387.301 409 410 433> 355 45<85.7792 145.753 434 440.954 491 588.685> 467 44<506.17 560.664>
VStem: 26 44<245.112 342.848> 147 53<259.349 342.953 391 507.572> 156 44<392.178 510.838> 316 46<305.211 330 330.031 353.752> 438 45<200.496 284 285 348.4> 445 46<396 454.89>
LayerCount: 2
Fore
SplineSet
575 -67 m 0x44c8
 497 -67 156 -79 76 -82 c 0
 66 -82 60 -83 59 -83 c 0
 41 -83 25 -67 25 -49 c 0
 25 -31 39 -17 58 -16 c 0x84c8
 59 -16 72 -16 95 -15 c 0
 173 -12 366 -5 574 0 c 0
 592 0 608 -16 608 -34 c 0
 608 -52 594 -66 575 -67 c 0x44c8
58 120 m 0x24c8
 72 120 191 124 310 128 c 0x14c8
 429 132 549 137 563 137 c 1
 564 138 l 1
 582 138 598 122 598 104 c 0
 598 86 584 72 566 71 c 0x0cc8
 546 71 429 66 312 62 c 0x14c8
 195 58 79 53 59 53 c 0
 41 53 26 69 26 87 c 0
 26 105 40 119 58 120 c 0x24c8
82 245 m 0
 88 245 95 247 101 250 c 0
 107 253 114 256 120 256 c 0
 141 264 147 271 147 289 c 2
 147 290 l 2
 146 304 146 309 146 336 c 2
 146 338 l 2
 147 341 147 342 146 343 c 0
 131 351 118 355 108 355 c 0x05e8
 88 355 70 313 70 267 c 0
 70 250 73 245 82 245 c 0
194 338 m 0
 194 333 195 306 196 280 c 0
 197 254 198 228 198 223 c 0
 198 211 187 200 175 200 c 0
 163 200 153 210 152 222 c 1
 133 209 103 200 82 200 c 0
 47 200 26 225 26 267 c 0
 26 344 60 400 108 400 c 0
 120 400 130 398 147 391 c 1x05e8
 148 416 151 450 156 491 c 0x05d8
 157 502 167 511 178 511 c 0
 191 511 200 502 200 489 c 2
 200 485 l 1
 196 437 194 385 194 338 c 0
316 329 m 2
 316 330 l 0
 317 332 l 0
 318 333 318 333 318 335 c 2
 318 336 l 2
 318 341 315 348 310 355 c 1
 292 348 283 333 274 296 c 1
 292 299 305 308 316 328 c 1
 316 329 l 2
382 241 m 0
 382 220 339 200 294 200 c 0
 253 200 226 228 226 271 c 0
 226 339 267 400 312 400 c 0
 340 400 362 372 362 336 c 0
 362 297 320 256 275 251 c 1
 278 246 282 245 294 245 c 0
 305 245 315 250 326 254 c 0
 337 258 348 263 359 263 c 0
 371 263 382 253 382 241 c 0
554 448 m 0
 549 448 545 453 542 458 c 0
 539 463 536 467 531 467 c 0
 512 467 498 442 491 396 c 1x06ca
 513 397 532 398 548 399 c 0
 550 399 551 400 552 400 c 0
 553 400 554 400 556 400 c 2
 567 400 l 2
 579 400 589 389 589 377 c 0
 589 365 580 356 568 355 c 0
 546 353 503 351 485 351 c 1
 485 346 484 316 483 286 c 0
 482 256 481 226 481 221 c 0
 480 209 471 200 459 200 c 0
 447 200 436 211 436 223 c 0
 437 225 437 226 437 244 c 0
 437 246 438 247 438 249 c 0
 438 251 438 252 438 254 c 2
 438 284 l 1x05cc
 439 285 l 1
 440 336 440 336 441 349 c 1
 440 348 440 349 439 349 c 0
 438 349 438 349 437 349 c 2
 429 349 l 2
 421 349 419 349 416 348 c 2
 412 348 l 2
 410 348 l 0
 409 347 l 0
 397 347 387 357 387 369 c 0
 387 387 398 393 433 393 c 0
 434 394 l 0
 436 394 l 2
 445 394 l 1x06ca
 455 471 484 511 531 511 c 0
 553 511 576 490 576 471 c 0
 576 459 566 448 554 448 c 0
EndSplineSet
Validated: 1
EndChar

StartChar: uni225E
Encoding: 94 8798 94
Width: 344
Flags: W
HStem: -83 67<38.4854 157.176> -75 67<70.7849 308.515> 53 67<39.44 165.843> 63 61<72.6381 267 268 299.219> 347 45<98.1653 151.945 224.641 271.395>
VStem: 28 46<200.916 271 272 321.884> 148 45<233.279 306.35> 271 44<200.179 345.582>
LayerCount: 2
Fore
SplineSet
279 -75 m 0x4f
 261 -75 227 -76 188 -78 c 0
 150 -80 107 -82 69 -83 c 0
 51 -83 35 -67 35 -49 c 0
 35 -31 49 -17 68 -16 c 0x8f
 86 -16 120 -15 159 -13 c 0
 197 -11 240 -9 278 -8 c 0
 296 -8 312 -24 312 -42 c 0
 312 -60 298 -74 279 -75 c 0x4f
68 120 m 0x2f
 75 120 122 122 168 124 c 0
 214 126 260 129 267 129 c 2
 268 130 l 1
 286 130 302 114 302 96 c 0
 302 78 288 64 270 63 c 0x1f
 263 63 146 57 69 53 c 0
 51 53 36 69 36 87 c 0
 36 105 50 119 68 120 c 0x2f
319 299 m 0
 319 285 318 274 317 264 c 0
 316 254 315 243 315 229 c 2
 315 223 l 1
 316 223 l 1
 316 211 305 200 293 200 c 0
 281 200 271 210 271 222 c 2
 271 229 l 2
 271 235 271 249 272 264 c 0
 273 279 274 293 274 299 c 0
 274 334 268 347 252 347 c 0
 231 347 203 302 193 251 c 0
 191 241 182 233 171 233 c 0
 158 233 148 243 148 256 c 0
 148 270 150 276 152 282 c 0
 154 288 155 293 155 307 c 0
 155 323 151 336 143 346 c 0
 142 346 142 346 141 347 c 0
 104 347 77 314 74 265 c 0
 72 214 66 200 47 200 c 0
 34 200 25 209 25 222 c 2
 25 224 l 2
 26 231 26 231 26 232 c 0
 26 235 26 236 27 237 c 0
 27 238 28 239 28 240 c 0
 28 241 28 241 28 242 c 2
 28 248 l 2
 28 254 28 257 29 262 c 0
 29 263 30 265 30 266 c 0
 30 267 30 269 30 270 c 2
 30 271 l 1
 31 272 l 1
 31 283 l 1
 36 367 47 400 70 400 c 0
 82 400 91 391 92 379 c 1
 111 387 128 391 141 391 c 0
 164 391 176 383 189 357 c 1
 207 380 229 392 252 392 c 0
 296 392 319 360 319 299 c 0
EndSplineSet
Validated: 1
EndChar

StartChar: uni225F
Encoding: 95 8799 95
Width: 327
Flags: W
HStem: -83 67<28.4854 147.176> -75 67<60.7849 298.515> 33 67<29.44 155.843> 43 61<62.6381 257 258 289.219> 124 66<133.124 194.876>
VStem: 120 139<304.906 358.333> 130 68<127.293 186.707>
LayerCount: 2
Fore
SplineSet
177 304 m 1x0c
 162 296 162 295 154 295 c 0
 136 295 120 311 120 329 c 0
 120 355 168 383 211 383 c 0
 241 383 259 364 259 333 c 0
 259 292 234 256 179 218 c 0
 173 214 167 212 160 212 c 0
 142 212 127 228 127 246 c 0
 127 257 132 268 141 274 c 0
 156 284 168 294 177 304 c 1x0c
130 157 m 0x0a
 130 175 146 190 164 190 c 0
 182 190 198 175 198 157 c 0
 198 139 182 124 164 124 c 0
 146 124 130 139 130 157 c 0x0a
269 -75 m 0x48
 251 -75 217 -76 178 -78 c 0
 140 -80 97 -82 59 -83 c 0
 41 -83 25 -67 25 -49 c 0
 25 -31 39 -17 58 -16 c 0x88
 76 -16 110 -15 149 -13 c 0
 187 -11 230 -9 268 -8 c 0
 286 -8 302 -24 302 -42 c 0
 302 -60 288 -74 269 -75 c 0x48
58 100 m 0x28
 65 100 112 102 158 104 c 0
 204 106 250 109 257 109 c 2
 258 110 l 1
 276 110 292 94 292 76 c 0
 292 58 278 44 260 43 c 0x18
 253 43 136 37 59 33 c 0
 41 33 26 49 26 67 c 0
 26 85 40 99 58 100 c 0x28
EndSplineSet
Validated: 1
EndChar

StartChar: notequal
Encoding: 96 8800 96
Width: 327
Flags: W
HStem: 37 67<28.4854 72> 40 69<176 296.128> 173 67<29.44 133> 183 66<238.603 257 258 288.876>
VStem: 36 65<-79.5146 -16.083> 213 65<314.096 379.515>
LayerCount: 2
Fore
SplineSet
58 240 m 0xac
 62 240 117 242 163 244 c 1
 196 319 196 319 213 363 c 0
 218 375 230 383 244 383 c 0
 262 383 278 367 278 349 c 0
 278 343 268 317 238 248 c 1
 251 249 255 249 257 249 c 2
 258 250 l 1
 276 250 292 234 292 216 c 0
 292 198 278 184 260 183 c 0
 257 183 239 183 208 181 c 1
 193 148 187 133 176 109 c 1
 210 111 242 111 268 112 c 0
 286 112 302 96 302 78 c 0
 302 60 288 46 269 45 c 0
 254 45 229 44 145 40 c 1x5c
 123 -9 111 -37 101 -62 c 0
 97 -74 83 -83 70 -83 c 0
 52 -83 36 -67 36 -49 c 0
 36 -46 47 -20 72 37 c 1
 68 37 63 37 59 37 c 0
 41 37 25 53 25 71 c 0
 25 89 39 103 58 104 c 0
 62 104 83 104 102 105 c 1
 106 115 111 125 115 135 c 0
 121 149 127 163 133 177 c 1
 106 176 80 174 59 173 c 0
 41 173 26 189 26 207 c 0
 26 225 40 239 58 240 c 0xac
EndSplineSet
Validated: 1
EndChar

StartChar: equivalence
Encoding: 97 8801 97
Width: 328
Flags: W
HStem: -50 67<29.4854 148.176> -42 67<61.7849 299.515> 119 67<29.44 155.843> 129 61<62.6381 257 258 289.219> 273 67<28.44 153.844> 283 61<61.6381 256 257 288.219>
VStem: 26 277
LayerCount: 2
Fore
SplineSet
58 186 m 0x22
 65 186 112 188 158 190 c 0
 204 192 250 195 257 195 c 2
 258 196 l 1
 276 196 292 180 292 162 c 0
 292 144 278 130 260 129 c 0x12
 253 129 136 123 59 119 c 0
 41 119 26 135 26 153 c 0
 26 171 40 185 58 186 c 0x22
270 -42 m 0x42
 252 -42 218 -43 179 -45 c 0
 141 -47 98 -49 60 -50 c 0
 42 -50 26 -34 26 -16 c 0
 26 2 40 16 59 17 c 0x82
 77 17 111 18 150 20 c 0
 188 22 231 24 269 25 c 0
 287 25 303 9 303 -9 c 0
 303 -27 289 -41 270 -42 c 0x42
57 340 m 0x0a
 64 340 110 342 156 344 c 0
 202 346 249 349 256 349 c 2
 257 350 l 1
 275 350 291 334 291 316 c 0
 291 298 277 284 259 283 c 0x06
 252 283 135 277 58 273 c 0
 40 273 25 289 25 307 c 0
 25 325 39 339 57 340 c 0x0a
EndSplineSet
Validated: 1
EndChar

StartChar: uni2262
Encoding: 98 8802 98
Width: 328
Flags: W
HStem: -42 67<134 299.515> 119 67<29.44 106> 125 68<210 257 258 286.897> 273 67<28.44 175>
VStem: 34 71<-78.9565 -49>
LayerCount: 2
Fore
SplineSet
134 19 m 1xb8
 266 24 266 25 269 25 c 0
 287 25 303 9 303 -9 c 0
 303 -27 289 -41 270 -42 c 0
 250 -42 133 -47 109 -48 c 0
 107 -48 105 -49 105 -49 c 0
 93 -77 86 -83 68 -83 c 0
 50 -83 34 -67 34 -49 c 0
 34 -48 35 -45 37 -40 c 1
 30 -33 26 -25 26 -16 c 0
 26 2 40 16 59 17 c 0
 59 17 60 17 61 17 c 0
 72 43 86 75 106 121 c 1
 88 120 73 120 59 119 c 0
 41 119 26 135 26 153 c 0
 26 171 40 185 58 186 c 0xd8
 62 186 84 187 135 189 c 1
 139 198 143 207 147 216 c 0
 156 237 166 258 175 279 c 1
 134 277 90 275 58 273 c 0
 40 273 25 289 25 307 c 0
 25 325 39 339 57 340 c 0
 66 340 168 344 204 346 c 1
 217 375 226 383 244 383 c 0
 262 383 278 367 278 349 c 0
 278 347 278 345 277 343 c 0
 286 336 291 326 291 316 c 0
 291 298 277 284 259 283 c 0
 258 283 255 283 250 283 c 1
 236 253 224 224 210 193 c 1
 218 193 225 194 231 194 c 0
 245 195 254 195 257 195 c 2
 258 196 l 1
 276 196 292 180 292 162 c 0
 292 144 278 130 260 129 c 0
 257 129 226 127 180 125 c 1
 159 79 146 46 134 19 c 1xb8
EndSplineSet
Validated: 1
EndChar

StartChar: uni2263
Encoding: 99 8803 99
Width: 328
Flags: W
HStem: -50 67<29.4854 148.176> -42 67<61.7849 299.515> 56 67<29.44 155.843> 66 62<62.6381 257 258 289.219> 164 67<29.44 155.843> 174 62<62.6381 257 258 289.219> 273 67<28.44 153.844> 283 61<61.6381 256 257 288.219>
VStem: 26 277
LayerCount: 2
Fore
SplineSet
58 123 m 0x2080
 65 123 112 126 158 128 c 0
 204 130 250 132 257 132 c 2
 258 133 l 1
 276 133 292 117 292 99 c 0
 292 81 278 67 260 66 c 0x1080
 253 66 136 60 59 56 c 0
 41 56 26 72 26 90 c 0
 26 108 40 122 58 123 c 0x2080
270 -42 m 0x4080
 252 -42 218 -43 179 -45 c 0
 141 -47 98 -49 60 -50 c 0
 42 -50 26 -34 26 -16 c 0
 26 2 40 16 59 17 c 0x8080
 77 17 111 18 150 20 c 0
 188 22 231 24 269 25 c 0
 287 25 303 9 303 -9 c 0
 303 -27 289 -41 270 -42 c 0x4080
57 340 m 0x0280
 64 340 110 342 156 344 c 0
 202 346 249 349 256 349 c 2
 257 350 l 1
 275 350 291 334 291 316 c 0
 291 298 277 284 259 283 c 0x0180
 252 283 135 277 58 273 c 0
 40 273 25 289 25 307 c 0
 25 325 39 339 57 340 c 0x0280
58 231 m 0x0880
 65 231 112 234 158 236 c 0
 204 238 250 240 257 240 c 2
 258 241 l 1
 276 241 292 225 292 207 c 0
 292 189 278 175 260 174 c 0x0480
 253 174 136 168 59 164 c 0
 41 164 26 180 26 198 c 0
 26 216 40 230 58 231 c 0x0880
EndSplineSet
Validated: 1
EndChar

StartChar: lessequal
Encoding: 100 8804 100
Width: 314
Flags: W
HStem: -83 63<224.794 280.374> 10 63<28.1243 83.759> 49 84<189.447 252.53>
VStem: 25 264
LayerCount: 2
Fore
SplineSet
25 40 m 0xd0
 25 58 41 73 59 73 c 0
 64 73 68 72 73 70 c 0
 106 53 137 40 168 26 c 0
 199 12 231 -3 265 -20 c 0
 276 -26 284 -36 284 -49 c 0
 284 -67 268 -83 250 -83 c 0
 245 -83 240 -81 235 -79 c 0
 204 -64 172 -49 140 -35 c 0
 108 -20 75 -6 43 10 c 0
 32 16 25 27 25 40 c 0xd0
256 349 m 0
 274 349 289 334 289 316 c 0
 289 304 283 293 274 287 c 0
 245 267 214 251 186 237 c 0
 156 222 129 208 110 193 c 1
 122 177 147 162 212 133 c 0
 268 108 274 103 274 82 c 0
 274 64 259 49 241 49 c 0xb0
 223 49 116 101 84 125 c 0
 55 146 40 171 40 198 c 0
 40 231 59 247 164 303 c 0
 186 314 198 321 217 332 c 0
 241 347 247 349 256 349 c 0
EndSplineSet
Validated: 1
EndChar

StartChar: greaterequal
Encoding: 101 8805 101
Width: 307
Flags: W
HStem: -83 65<28.5332 84.3748> 21 63<224.517 279.375>
VStem: 25 257
LayerCount: 2
Fore
SplineSet
59 -83 m 0
 41 -83 25 -67 25 -49 c 0
 25 -35 34 -23 47 -18 c 0
 48 -18 101 10 151 37 c 0
 195 61 237 84 238 84 c 0
 242 85 245 86 249 86 c 0
 267 86 282 70 282 52 c 0
 282 38 273 26 260 21 c 0
 259 21 206 -8 156 -35 c 0
 112 -59 71 -81 70 -81 c 0
 66 -82 63 -83 59 -83 c 0
48 82 m 0
 48 107 85 131 123 155 c 0
 152 173 183 192 197 212 c 1
 178 227 153 238 127 251 c 0
 105 262 82 274 61 287 c 0
 52 292 46 304 46 316 c 0
 46 334 61 349 79 349 c 0
 89 349 90 348 101 341 c 0
 111 335 128 325 163 308 c 0
 249 264 267 249 267 216 c 0
 267 178 244 152 160 98 c 0
 153 94 144 87 134 80 c 0
 115 66 94 49 81 49 c 0
 63 49 48 64 48 82 c 0
EndSplineSet
Validated: 1
EndChar

StartChar: uni2266
Encoding: 102 8806 102
Width: 327
Flags: W
HStem: -103 67<28.4854 147.176> -95 67<60.7849 298.515> 33 67<29.44 155.843> 43 61<62.6381 257 258 289.219> 151 84<188.447 251.53>
VStem: 25 277<-91.5522 -39.4478>
LayerCount: 2
Fore
SplineSet
255 451 m 0x0c
 273 451 288 436 288 418 c 0
 288 406 282 395 273 389 c 0
 244 369 213 353 185 339 c 0
 155 324 128 310 109 295 c 1
 121 279 146 264 211 235 c 0
 267 210 273 205 273 184 c 0
 273 166 258 151 240 151 c 0
 222 151 115 203 83 227 c 0
 54 248 39 273 39 300 c 0
 39 333 58 349 163 405 c 0
 185 416 197 423 216 434 c 0
 240 449 246 451 255 451 c 0x0c
269 -95 m 0x4c
 251 -95 217 -96 178 -98 c 0
 140 -100 97 -102 59 -103 c 0
 41 -103 25 -87 25 -69 c 0
 25 -51 39 -37 58 -36 c 0x8c
 76 -36 110 -35 149 -33 c 0
 187 -31 230 -29 268 -28 c 0
 286 -28 302 -44 302 -62 c 0
 302 -80 288 -94 269 -95 c 0x4c
58 100 m 0x2c
 65 100 112 102 158 104 c 0
 204 106 250 109 257 109 c 2
 258 110 l 1
 276 110 292 94 292 76 c 0
 292 58 278 44 260 43 c 0x1c
 253 43 136 37 59 33 c 0
 41 33 26 49 26 67 c 0
 26 85 40 99 58 100 c 0x2c
EndSplineSet
Validated: 1
EndChar

StartChar: uni2267
Encoding: 103 8807 103
Width: 327
Flags: W
HStem: -103 67<28.4854 147.176> -95 67<60.7849 298.515> 33 67<29.44 155.843> 43 61<62.6381 257 258 289.219>
VStem: 25 277<-91.5522 -39.4478>
LayerCount: 2
Fore
SplineSet
269 -95 m 0x48
 251 -95 217 -96 178 -98 c 0
 140 -100 97 -102 59 -103 c 0
 41 -103 25 -87 25 -69 c 0
 25 -51 39 -37 58 -36 c 0x88
 76 -36 110 -35 149 -33 c 0
 187 -31 230 -29 268 -28 c 0
 286 -28 302 -44 302 -62 c 0
 302 -80 288 -94 269 -95 c 0x48
58 100 m 0x28
 65 100 112 102 158 104 c 0
 204 106 250 109 257 109 c 2
 258 110 l 1
 276 110 292 94 292 76 c 0
 292 58 278 44 260 43 c 0x18
 253 43 136 37 59 33 c 0
 41 33 26 49 26 67 c 0
 26 85 40 99 58 100 c 0x28
51 166 m 0
 51 191 89 215 127 239 c 0
 156 257 186 276 200 296 c 1
 181 311 156 322 130 335 c 0
 108 346 85 358 64 371 c 0
 55 376 49 388 49 400 c 0
 49 418 64 433 82 433 c 0
 92 433 94 432 105 425 c 0
 115 419 131 409 166 392 c 0
 252 348 270 333 270 300 c 0
 270 262 247 236 163 182 c 0
 156 178 147 171 137 164 c 0
 118 150 97 133 84 133 c 0
 66 133 51 148 51 166 c 0
EndSplineSet
Validated: 1
EndChar

StartChar: uni2268
Encoding: 104 8808 104
Width: 327
Flags: W
HStem: -103 67<28.4854 83 188 266.919> -95 67<189.404 298.515> 0 67<32.44 130> 10 65<235.251 260 261 292.219> 151 84<188.447 251.53>
VStem: 68 65<-168.515 -108.179> 161 83<75.6519 115.266>
LayerCount: 2
Fore
SplineSet
255 451 m 0x0e
 273 451 288 436 288 418 c 0
 288 406 282 395 273 389 c 0
 244 369 213 353 185 339 c 0
 155 324 128 310 109 295 c 1
 121 279 146 264 211 235 c 0
 267 210 273 205 273 184 c 0
 273 166 258 151 240 151 c 0
 222 151 115 203 83 227 c 0
 54 248 39 273 39 300 c 0
 39 333 58 349 163 405 c 0
 185 416 197 423 216 434 c 0
 240 449 246 451 255 451 c 0x0e
59 -103 m 0x8e
 41 -103 25 -87 25 -69 c 0
 25 -51 39 -37 58 -36 c 0
 63 -36 90 -35 113 -34 c 1
 118 -23 124 -10 130 4 c 1
 105 3 81 1 62 0 c 0
 44 0 29 16 29 34 c 0
 29 52 43 66 61 67 c 0xae
 66 67 89 68 161 71 c 1
 174 100 178 110 179 112 c 0
 184 124 196 132 210 132 c 0
 228 132 244 116 244 98 c 0
 244 97 241 89 235 75 c 1
 253 76 258 76 260 76 c 2
 261 77 l 1
 279 77 295 61 295 43 c 0
 295 25 281 11 263 10 c 0
 260 10 239 9 205 7 c 1
 200 -5 194 -17 188 -31 c 1
 218 -30 245 -29 268 -28 c 0
 286 -28 302 -44 302 -62 c 0
 302 -80 288 -94 269 -95 c 0x5e
 255 -95 211 -96 157 -99 c 1
 138 -140 133 -150 133 -151 c 0
 129 -163 115 -172 102 -172 c 0
 84 -172 68 -156 68 -138 c 0
 68 -137 73 -125 83 -102 c 1
 75 -102 66 -103 59 -103 c 0x8e
EndSplineSet
Validated: 1
EndChar

StartChar: uni2269
Encoding: 105 8809 105
Width: 327
Flags: W
HStem: -102 67<28.4854 83 188 266.919> -94 67<189.404 298.515> 1 67<32.44 130> 11 65<235.251 260 261 292.219>
VStem: 68 65<-167.515 -107.179> 161 83<76.6519 116.266>
LayerCount: 2
Fore
SplineSet
58 166 m 0x0c
 58 191 96 215 134 239 c 0
 163 257 193 276 207 296 c 1
 188 311 163 322 137 335 c 0
 115 346 92 358 71 371 c 0
 62 376 56 388 56 400 c 0
 56 418 71 433 89 433 c 0
 99 433 101 432 112 425 c 0
 122 419 138 409 173 392 c 0
 259 348 277 333 277 300 c 0
 277 262 254 236 170 182 c 0
 163 178 154 171 144 164 c 0
 125 150 104 133 91 133 c 0
 73 133 58 148 58 166 c 0x0c
59 -102 m 0x8c
 41 -102 25 -86 25 -68 c 0
 25 -50 39 -36 58 -35 c 0
 63 -35 90 -34 113 -33 c 1
 118 -22 124 -9 130 5 c 1
 105 4 81 2 62 1 c 0
 44 1 29 17 29 35 c 0
 29 53 43 67 61 68 c 0xac
 66 68 89 69 161 72 c 1
 174 101 178 111 179 113 c 0
 184 125 196 133 210 133 c 0
 228 133 244 117 244 99 c 0
 244 98 241 90 235 76 c 1
 253 77 258 77 260 77 c 2
 261 78 l 1
 279 78 295 62 295 44 c 0
 295 26 281 12 263 11 c 0
 260 11 239 10 205 8 c 1
 200 -4 194 -16 188 -30 c 1
 218 -29 245 -28 268 -27 c 0
 286 -27 302 -43 302 -61 c 0
 302 -79 288 -93 269 -94 c 0x5c
 255 -94 211 -95 157 -98 c 1
 138 -139 133 -149 133 -150 c 0
 129 -162 115 -171 102 -171 c 0
 84 -171 68 -155 68 -137 c 0
 68 -136 73 -124 83 -101 c 1
 75 -101 66 -102 59 -102 c 0x8c
EndSplineSet
Validated: 1
EndChar

StartChar: uni226A
Encoding: 106 8810 106
Width: 543
Flags: W
HStem: 0 84<174.447 237.53 418.447 481.53> 280 20G<236.5 250 483.5 494>
LayerCount: 2
Fore
SplineSet
241 300 m 0
 259 300 274 285 274 267 c 0
 274 255 268 244 259 238 c 0
 230 218 199 202 171 188 c 0
 141 173 114 159 95 144 c 1
 107 128 132 113 197 84 c 0
 253 59 259 54 259 33 c 0
 259 15 244 0 226 0 c 0
 208 0 101 52 69 76 c 0
 40 97 25 122 25 149 c 0
 25 182 44 198 149 254 c 0
 171 265 183 272 202 283 c 0
 226 298 232 300 241 300 c 0
485 300 m 0
 503 300 518 285 518 267 c 0
 518 255 512 244 503 238 c 0
 474 218 443 202 415 188 c 0
 385 173 358 159 339 144 c 1
 351 128 376 113 441 84 c 0
 497 59 503 54 503 33 c 0
 503 15 488 0 470 0 c 0
 452 0 345 52 313 76 c 0
 284 97 269 122 269 149 c 0
 269 182 288 198 393 254 c 0
 411 263 411 263 467 295 c 0
 477 299 482 300 485 300 c 0
EndSplineSet
Validated: 1
EndChar

StartChar: uni226B
Encoding: 107 8811 107
Width: 492
Flags: W
HStem: 0 21G<51 66.5 272 287.5> 202 98<68.4597 100.357 289.46 321.357>
LayerCount: 2
Fore
SplineSet
248 33 m 0
 248 58 286 82 324 106 c 0
 353 124 383 143 397 163 c 1
 378 178 353 189 327 202 c 0
 305 213 282 225 261 238 c 0
 252 243 246 255 246 267 c 0
 246 285 261 300 279 300 c 0
 289 300 291 299 302 292 c 0
 312 286 328 276 363 259 c 0
 449 215 467 200 467 167 c 0
 467 129 444 103 360 49 c 0
 353 45 344 38 334 31 c 0
 315 17 294 0 281 0 c 0
 263 0 248 15 248 33 c 0
27 33 m 0
 27 58 65 82 103 106 c 0
 132 124 162 143 176 163 c 1
 157 178 132 189 106 202 c 0
 84 213 61 225 40 238 c 0
 31 243 25 255 25 267 c 0
 25 285 40 300 58 300 c 0
 68 300 70 299 81 292 c 0
 91 286 107 276 142 259 c 0
 228 215 246 200 246 167 c 0
 246 129 223 103 139 49 c 0
 132 45 123 38 113 31 c 0
 94 17 73 0 60 0 c 0
 42 0 27 15 27 33 c 0
EndSplineSet
Validated: 1
EndChar

StartChar: uni226C
Encoding: 108 8812 108
Width: 319
VWidth: 0
Flags: W
HStem: 317 65<28.1243 102.782>
VStem: 100 67<97.3303 235.374> 227 67<155.137 229.587>
LayerCount: 2
Fore
SplineSet
174 97 m 1
 204 146 223 182 227 200 c 0
 227 209 212 228 192 245 c 1
 175 217 167 184 167 143 c 0
 167 126 169 111 174 97 c 1
175 -24 m 1
 135 -82 134 -84 116 -84 c 0
 98 -84 83 -68 83 -50 c 0
 83 -43 85 -37 89 -31 c 0
 105 -8 120 12 132 31 c 1
 111 66 100 102 100 143 c 0
 100 197 111 243 135 282 c 1
 108 296 80 308 49 317 c 0
 35 321 25 334 25 349 c 0
 25 367 41 382 59 382 c 0
 75 382 138 357 177 335 c 1
 214 375 225 382 239 382 c 0
 257 382 272 367 272 349 c 0
 272 340 269 331 262 325 c 0
 250 314 242 305 234 297 c 1
 273 264 294 231 294 200 c 0
 294 171 269 120 213 33 c 1
 224 20 224 20 270 -27 c 0
 276 -33 280 -41 280 -50 c 0
 280 -68 265 -84 247 -84 c 0
 238 -84 229 -79 223 -73 c 0
 182 -32 182 -32 175 -24 c 1
EndSplineSet
Validated: 1
EndChar

StartChar: uni226D
Encoding: 109 8813 109
Width: 401
VWidth: 0
Flags: W
HStem: -0 21G<55 71.5 327.5 352> 280 20G<49 65 320 335>
VStem: 72 65<-79.5146 -16.6706> 244 68<304.645 379.515>
LayerCount: 2
Fore
SplineSet
101 21 m 1
 79 1 76 -0 67 -0 c 0
 66 -0 65 0 64 -0 c 0
 46 0 31 15 31 33 c 0
 31 42 35 51 41 57 c 0
 79 94 112 115 147 126 c 1
 149 131 151 135 153 139 c 0
 162 160 162 160 164 166 c 0
 164 167 165 169 166 170 c 1
 135 176 113 186 71 217 c 0
 56 228 49 233 40 239 c 0
 40 244 37 248 33 253 c 0
 29 258 25 262 25 267 c 0
 25 285 40 300 58 300 c 0
 72 300 88 289 105 276 c 0
 129 258 156 236 194 234 c 1
 201 249 207 263 213 277 c 0
 240 339 242 349 244 355 c 0
 245 357 245 359 247 363 c 0
 252 375 264 383 278 383 c 0
 296 383 312 367 312 349 c 0
 312 343 303 318 284 273 c 1
 314 300 314 300 326 300 c 0
 344 300 360 285 360 267 c 0
 360 257 356 249 348 241 c 0
 300 195 276 180 240 171 c 1
 234 158 229 145 223 132 c 1
 273 127 304 111 365 58 c 0
 372 52 376 43 376 33 c 0
 376 15 361 -1 343 -1 c 0
 312 -1 292 16 272 33 c 0
 252 50 231 66 200 66 c 0
 198 66 195 66 193 66 c 0
 161 -6 149 -33 137 -62 c 0
 133 -74 119 -83 106 -83 c 0
 88 -83 72 -67 72 -49 c 0
 72 -47 81 -25 101 21 c 1
EndSplineSet
Validated: 1
EndChar

StartChar: uni226E
Encoding: 110 8814 110
Width: 299
Flags: W
HStem: 0 84<173.672 237.53>
VStem: 28 65<-79.5146 -16.2459> 200 68<304.604 379.515>
LayerCount: 2
Fore
SplineSet
78 70 m 1
 43 93 25 119 25 149 c 0
 25 183 42 197 162 261 c 0
 164 266 166 271 169 277 c 0
 196 339 198 349 200 355 c 0
 201 357 201 359 203 363 c 0
 208 375 220 383 234 383 c 0
 252 383 268 367 268 349 c 0
 268 344 262 328 250 299 c 1
 264 295 274 281 274 267 c 0
 274 247 265 239 213 210 c 1
 199 177 183 141 164 99 c 1
 173 94 184 90 197 84 c 0
 253 59 259 54 259 33 c 0
 259 15 244 0 226 0 c 0
 217 0 178 16 136 37 c 1
 115 -10 103 -37 93 -62 c 0
 89 -74 75 -83 62 -83 c 0
 44 -83 28 -67 28 -49 c 0
 28 -46 42 -12 78 70 c 1
117 159 m 1
 108 154 101 149 95 144 c 1
 98 140 102 137 106 133 c 1
 110 143 113 151 117 159 c 1
EndSplineSet
Validated: 1
EndChar

StartChar: uni226F
Encoding: 111 8815 111
Width: 290
Flags: W
HStem: 280 20G<60 74>
VStem: 25 65<-79.5146 -15.6758> 197 68<304.604 379.515>
LayerCount: 2
Fore
SplineSet
231 383 m 0
 249 383 265 367 265 349 c 0
 265 341 250 301 216 224 c 1
 247 204 257 191 257 167 c 0
 257 129 234 103 150 49 c 0
 145 46 140 43 133 38 c 0
 112 -9 100 -37 90 -62 c 0
 86 -74 72 -83 59 -83 c 0
 41 -83 25 -67 25 -49 c 0
 25 -47 33 -28 49 9 c 1
 42 15 38 24 38 33 c 0
 38 48 51 64 82 85 c 1
 89 101 96 117 103 134 c 0
 112 154 122 175 131 196 c 1
 40 241 36 244 36 267 c 0
 36 285 51 300 69 300 c 0
 79 300 81 299 92 292 c 0
 102 286 118 276 153 259 c 0
 154 258 155 258 157 257 c 1
 160 264 163 270 166 277 c 0
 193 339 195 349 197 355 c 0
 198 357 198 359 200 363 c 0
 205 375 217 383 231 383 c 0
EndSplineSet
Validated: 1
EndChar

StartChar: uni2270
Encoding: 112 8816 112
Width: 378
VWidth: 0
Flags: W
HStem: -84 72<238.938 310.523> 447 20G<312 328>
VStem: 25 65<-196.515 -133.01> 71 245<-50 33> 288 65<402 463.515>
LayerCount: 2
Fore
SplineSet
95 0 m 1xe0
 78 8 71 18 71 33 c 0xd0
 71 51 86 66 104 66 c 0
 110 66 115 65 122 62 c 1
 129 78 135 94 143 112 c 1
 85 144 63 169 63 200 c 0
 63 236 82 257 162 308 c 0
 231 352 253 372 257 376 c 0
 258 377 l 0
 273 413 285 439 288 447 c 0
 293 459 305 467 319 467 c 0
 337 467 353 451 353 433 c 0xc8
 353 425 327 364 229 143 c 1
 298 107 316 92 316 71 c 0
 316 53 301 37 283 37 c 0
 273 37 271 38 264 43 c 0
 257 49 242 60 202 81 c 1
 195 65 188 50 181 34 c 1
 215 19 237 8 251 2 c 0
 278 -10 279 -10 283 -12 c 0
 285 -13 289 -15 298 -20 c 0
 309 -26 316 -37 316 -50 c 0xd0
 316 -68 301 -84 283 -84 c 0
 278 -84 273 -82 268 -80 c 0
 262 -77 258 -75 255 -74 c 0
 247 -70 248 -70 208 -52 c 0
 195 -46 178 -38 155 -28 c 1
 123 -101 100 -154 90 -179 c 0
 86 -191 72 -200 59 -200 c 0
 41 -200 25 -184 25 -166 c 0
 25 -163 48 -108 95 0 c 1xe0
206 256 m 1
 150 220 139 213 131 201 c 1
 138 193 151 185 170 174 c 1
 179 196 186 210 206 256 c 1
EndSplineSet
Validated: 1
EndChar

StartChar: uni2271
Encoding: 113 8817 113
Width: 382
VWidth: 0
Flags: W
HStem: -11 65<247.665 320.707> 447 20G<316 332>
VStem: 25 65<-196.515 -134.969> 292 65<400.89 463.515>
LayerCount: 2
Fore
SplineSet
200 234 m 1
 142 269 91 323 91 349 c 0
 91 367 106 383 124 383 c 0
 141 383 148 374 158 360 c 0
 169 345 185 322 227 296 c 1
 259 369 286 432 292 447 c 0
 297 459 309 467 323 467 c 0
 341 467 357 451 357 433 c 0
 357 427 334 372 285 260 c 1
 301 246 310 229 310 211 c 0
 310 169 283 137 216 104 c 1
 207 83 203 74 176 14 c 1
 285 53 285 54 291 54 c 0
 309 54 324 38 324 20 c 0
 324 6 315 -6 302 -11 c 0
 301 -11 247 -31 197 -49 c 0
 175 -57 154 -64 138 -70 c 1
 113 -126 98 -160 90 -179 c 0
 86 -191 72 -200 59 -200 c 0
 41 -200 25 -184 25 -166 c 0
 25 -164 39 -131 70 -61 c 0
 68 -57 67 -53 67 -48 c 0
 67 -34 75 -21 89 -16 c 1
 97 3 106 23 122 58 c 1
 120 58 119 58 117 58 c 0
 99 58 83 73 83 91 c 0
 83 112 89 116 165 153 c 1
 179 185 190 211 200 234 c 1
EndSplineSet
Validated: 1
EndChar

StartChar: uni2272
Encoding: 114 8818 114
Width: 432
Flags: W
HStem: 5 67<116.495 185.204> 83 84<220.447 283.53>
LayerCount: 2
Fore
SplineSet
287 383 m 0
 305 383 320 368 320 350 c 0
 320 338 314 327 305 321 c 0
 276 301 245 285 217 271 c 0
 187 256 160 242 141 227 c 1
 153 211 178 196 243 167 c 0
 299 142 305 137 305 116 c 0
 305 98 290 83 272 83 c 0
 254 83 147 135 115 159 c 0
 86 180 71 205 71 232 c 0
 71 265 90 281 195 337 c 0
 217 348 229 355 248 366 c 0
 272 381 278 383 287 383 c 0
258 -15 m 1
 297 -12 314 16 329 40 c 0
 341 60 352 78 373 78 c 0
 391 78 407 62 407 44 c 0
 407 32 400 23 393 15 c 0
 389 11 386 7 384 2 c 0
 344 -58 313 -79 261 -82 c 2
 259 -82 l 2
 258 -82 258 -82 257 -83 c 0
 230 -83 216 -61 202 -39 c 0
 188 -17 175 5 148 5 c 0
 127 5 115 -15 103 -36 c 0
 91 -57 79 -78 58 -78 c 0
 40 -78 25 -63 25 -45 c 0
 25 -35 30 -25 40 -10 c 0
 41 -10 41 -10 41 -9 c 0
 78 52 105 72 148 72 c 0
 188 72 215 53 244 5 c 0
 251 -6 254 -11 258 -15 c 1
EndSplineSet
Validated: 1
EndChar

StartChar: uni2273
Encoding: 115 8819 115
Width: 432
Flags: W
HStem: 5 67<116.495 185.204>
LayerCount: 2
Fore
SplineSet
258 -15 m 1
 297 -12 314 16 329 40 c 0
 341 60 352 78 373 78 c 0
 391 78 407 62 407 44 c 0
 407 32 400 23 393 15 c 0
 389 11 386 7 384 2 c 0
 344 -58 313 -79 261 -82 c 2
 259 -82 l 2
 258 -82 258 -82 257 -83 c 0
 230 -83 216 -61 202 -39 c 0
 188 -17 175 5 148 5 c 0
 127 5 115 -15 103 -36 c 0
 91 -57 79 -78 58 -78 c 0
 40 -78 25 -63 25 -45 c 0
 25 -35 30 -25 40 -10 c 0
 41 -10 41 -10 41 -9 c 0
 78 52 105 72 148 72 c 0
 188 72 215 53 244 5 c 0
 251 -6 254 -11 258 -15 c 1
126 116 m 0
 126 141 164 165 202 189 c 0
 231 207 261 226 275 246 c 1
 256 261 231 272 205 285 c 0
 183 296 160 308 139 321 c 0
 130 326 124 338 124 350 c 0
 124 368 139 383 157 383 c 0
 167 383 169 382 180 375 c 0
 190 369 206 359 241 342 c 0
 327 298 345 283 345 250 c 0
 345 212 322 186 238 132 c 0
 231 128 222 121 212 114 c 0
 193 100 172 83 159 83 c 0
 141 83 126 98 126 116 c 0
EndSplineSet
Validated: 1
EndChar

StartChar: uni2274
Encoding: 116 8820 116
Width: 432
Flags: W
HStem: 447 20G<319 335>
VStem: 33 65<-196.515 -133.675> 295 65<401.577 463.515>
LayerCount: 2
Fore
SplineSet
258 -15 m 1
 297 -12 314 16 329 40 c 0
 341 60 352 78 373 78 c 0
 391 78 407 62 407 44 c 0
 407 32 400 23 393 15 c 0
 389 11 386 7 384 2 c 0
 344 -58 313 -79 261 -82 c 2
 259 -82 l 2
 258 -82 258 -82 257 -83 c 0
 230 -83 215 -60 201 -38 c 0
 192 -24 184 -11 173 -3 c 1
 139 -81 110 -150 98 -179 c 0
 94 -191 80 -200 67 -200 c 0
 49 -200 33 -184 33 -166 c 0
 33 -164 45 -133 70 -75 c 1
 66 -77 62 -78 58 -78 c 0
 40 -78 25 -63 25 -45 c 0
 25 -35 30 -25 40 -10 c 0
 41 -10 41 -10 41 -9 c 0
 74 45 99 66 133 71 c 1
 141 90 150 111 159 132 c 1
 95 167 71 194 71 232 c 0
 71 265 90 281 195 337 c 0
 234 357 259 372 264 375 c 0
 265 375 265 376 265 376 c 0
 281 413 292 439 295 447 c 0
 300 459 312 467 326 467 c 0
 344 467 360 451 360 433 c 0
 360 426 325 346 246 166 c 1
 298 142 305 137 305 116 c 0
 305 98 290 83 272 83 c 0
 266 83 246 91 219 103 c 1
 213 89 206 73 199 57 c 1
 220 43 234 21 244 4 c 0
 249 -4 254 -11 258 -15 c 1
220 273 m 1
 181 253 155 238 141 227 c 1
 149 217 162 207 186 194 c 1
 198 221 209 248 220 273 c 1
EndSplineSet
Validated: 1
EndChar

StartChar: uni2275
Encoding: 117 8821 117
Width: 432
Flags: W
HStem: 447 20G<319 335>
VStem: 33 65<-196.515 -133.675> 295 65<401.373 463.515>
LayerCount: 2
Fore
SplineSet
258 -15 m 1
 297 -12 314 16 329 40 c 0
 341 60 352 78 373 78 c 0
 391 78 407 62 407 44 c 0
 407 32 400 23 393 15 c 0
 389 11 386 7 384 2 c 0
 344 -58 313 -79 261 -82 c 2
 259 -82 l 2
 258 -82 258 -82 257 -83 c 0
 230 -83 215 -60 201 -38 c 0
 192 -24 184 -11 173 -3 c 1
 139 -81 110 -150 98 -179 c 0
 94 -191 80 -200 67 -200 c 0
 49 -200 33 -184 33 -166 c 0
 33 -164 45 -133 70 -75 c 1
 66 -77 62 -78 58 -78 c 0
 40 -78 25 -63 25 -45 c 0
 25 -35 30 -25 40 -10 c 0
 41 -10 41 -10 41 -9 c 0
 74 45 99 66 133 71 c 1
 135 77 137 83 140 89 c 1
 131 95 126 105 126 116 c 0
 126 132 141 149 177 173 c 1
 200 226 216 263 221 274 c 0
 222 276 222 277 222 277 c 0
 154 311 154 311 139 321 c 0
 130 326 124 338 124 350 c 0
 124 368 139 383 157 383 c 0
 167 383 169 382 180 375 c 0
 190 369 206 359 241 342 c 0
 244 341 247 339 249 338 c 1
 273 393 290 436 295 447 c 0
 300 459 312 467 326 467 c 0
 344 467 360 451 360 433 c 0
 360 428 343 386 308 305 c 1
 336 287 345 273 345 250 c 0
 345 212 322 186 238 132 c 0
 235 130 232 128 229 126 c 0
 220 105 210 82 199 57 c 1
 220 43 234 21 244 4 c 0
 249 -4 254 -11 258 -15 c 1
EndSplineSet
Validated: 1
EndChar

StartChar: uni2276
Encoding: 118 8822 118
Width: 299
Flags: W
HStem: 118 84<174.447 237.53>
VStem: 25 249
LayerCount: 2
Fore
SplineSet
241 418 m 0
 259 418 274 403 274 385 c 0
 274 373 268 362 259 356 c 0
 230 336 199 320 171 306 c 0
 141 291 114 277 95 262 c 1
 107 246 132 231 197 202 c 0
 253 177 259 172 259 151 c 0
 259 133 244 118 226 118 c 0
 208 118 101 170 69 194 c 0
 40 215 25 240 25 267 c 0
 25 300 44 316 149 372 c 0
 171 383 183 390 202 401 c 0
 226 416 232 418 241 418 c 0
41 -134 m 0
 41 -109 79 -85 117 -61 c 0
 146 -43 176 -24 190 -4 c 1
 171 11 146 22 120 35 c 0
 98 46 75 58 54 71 c 0
 45 76 39 88 39 100 c 0
 39 118 54 133 72 133 c 0
 82 133 84 132 95 125 c 0
 105 119 121 109 156 92 c 0
 242 48 260 33 260 0 c 0
 260 -38 237 -64 153 -118 c 0
 146 -122 137 -129 127 -136 c 0
 108 -150 87 -167 74 -167 c 0
 56 -167 41 -152 41 -134 c 0
EndSplineSet
Validated: 1
EndChar

StartChar: uni2277
Encoding: 119 8823 119
Width: 299
Flags: W
HStem: -149 84<174.447 237.53>
VStem: 25 249
LayerCount: 2
Fore
SplineSet
241 151 m 0
 259 151 274 136 274 118 c 0
 274 106 268 95 259 89 c 0
 230 69 199 53 171 39 c 0
 141 24 114 10 95 -5 c 1
 107 -21 132 -36 197 -65 c 0
 253 -90 259 -95 259 -116 c 0
 259 -134 244 -149 226 -149 c 0
 208 -149 101 -97 69 -73 c 0
 40 -52 25 -27 25 0 c 0
 25 33 44 49 149 105 c 0
 171 116 183 123 202 134 c 0
 226 149 232 151 241 151 c 0
36 166 m 0
 36 191 74 215 112 239 c 0
 141 257 171 276 185 296 c 1
 166 311 141 322 115 335 c 0
 93 346 70 358 49 371 c 0
 40 376 34 388 34 400 c 0
 34 418 49 433 67 433 c 0
 77 433 79 432 90 425 c 0
 100 419 116 409 151 392 c 0
 237 348 255 333 255 300 c 0
 255 262 232 236 148 182 c 0
 141 178 132 171 122 164 c 0
 103 150 82 133 69 133 c 0
 51 133 36 148 36 166 c 0
EndSplineSet
Validated: 1
EndChar

StartChar: uni2278
Encoding: 120 8824 120
Width: 399
Flags: W
HStem: -233 21G<50 65.5> 447 20G<333 349>
VStem: 25 65<-229.515 -167.071> 296 78<416.615 456.75>
LayerCount: 2
Fore
SplineSet
182 154 m 1
 97 197 68 225 68 267 c 0
 68 300 87 316 192 372 c 0
 214 383 226 390 245 401 c 0
 269 416 275 418 284 418 c 0
 288 418 292 418 296 416 c 0
 303 432 307 442 309 447 c 0
 314 459 326 467 340 467 c 0
 358 467 374 451 374 433 c 0
 374 426 342 351 270 188 c 1
 296 175 302 169 302 151 c 0
 302 133 287 118 269 118 c 0
 265 118 256 121 243 126 c 1
 237 113 230 98 222 80 c 1
 287 46 303 30 303 0 c 0
 303 -38 280 -64 196 -118 c 0
 189 -122 180 -129 170 -136 c 0
 151 -150 130 -167 117 -167 c 0
 115 -167 112 -167 110 -166 c 0
 101 -187 94 -202 90 -212 c 0
 86 -224 72 -233 59 -233 c 0
 41 -233 25 -217 25 -199 c 0
 25 -196 41 -160 135 49 c 1
 90 72 82 80 82 100 c 0
 82 118 97 133 115 133 c 0
 124 133 125 132 136 126 c 0
 150 118 153 116 162 111 c 1
 169 126 176 140 182 154 c 1
259 330 m 1
 247 323 233 316 217 308 c 0
 170 284 153 274 138 262 c 1
 148 249 167 236 209 216 c 1
 225 253 237 278 259 330 c 1
157 -63 m 1
 210 -30 222 -20 233 -4 c 1
 224 3 211 11 194 20 c 1
 190 10 185 1 181 -9 c 0
 173 -27 165 -45 157 -63 c 1
EndSplineSet
Validated: 1
EndChar

StartChar: uni2279
Encoding: 121 8825 121
Width: 399
Flags: W
HStem: -233 21G<50 65.5> -149 84<220.75 283.53> 447 20G<333 349>
VStem: 25 65<-229.515 -168.759> 309 65<403.422 463.515>
LayerCount: 2
Fore
SplineSet
246 133 m 1
 278 151 278 151 287 151 c 0
 305 151 320 136 320 118 c 0
 320 106 314 95 305 89 c 0
 282 74 282 74 199 30 c 1
 193 17 188 5 182 -8 c 0
 179 -15 175 -23 172 -30 c 1
 187 -39 209 -50 243 -65 c 0
 299 -90 305 -95 305 -116 c 0
 305 -134 290 -149 272 -149 c 0
 259 -149 191 -118 144 -91 c 1
 115 -156 98 -193 90 -212 c 0
 86 -224 72 -233 59 -233 c 0
 41 -233 25 -217 25 -199 c 0
 25 -196 43 -154 90 -50 c 1
 77 -35 71 -18 71 0 c 0
 71 28 86 44 148 79 c 1
 160 106 172 133 194 182 c 1
 187 178 178 171 168 164 c 0
 149 150 128 133 115 133 c 0
 97 133 82 148 82 166 c 0
 82 191 120 215 158 239 c 0
 187 257 217 276 231 296 c 1
 212 311 187 322 161 335 c 0
 139 346 116 358 95 371 c 0
 86 376 80 388 80 400 c 0
 80 418 95 433 113 433 c 0
 123 433 125 432 136 425 c 0
 146 419 162 409 197 392 c 0
 233 374 253 362 268 352 c 1
 289 400 305 437 309 447 c 0
 314 459 326 467 340 467 c 0
 358 467 374 451 374 433 c 0
 374 426 311 277 246 133 c 1
EndSplineSet
Validated: 1
EndChar

StartChar: uni227A
Encoding: 122 8826 122
Width: 347
VWidth: 0
Flags: W
HStem: -1 21G<252.5 274> 98 76<33.4746 149.958> 281 20G<280.5 297>
VStem: 222 77<9.84248 86.6656> 256 66<240.556 297.426>
LayerCount: 2
Fore
SplineSet
59 98 m 0xf0
 40 98 25 113 25 132 c 0
 25 149 37 163 53 165 c 0
 93 171 123 174 148 174 c 0
 149 174 l 0
 152 174 167 175 167 175 c 0
 198 189 247 245 256 276 c 0
 260 290 273 301 288 301 c 0
 306 301 322 285 322 267 c 0xe8
 322 240 285 186 241 147 c 1
 260 131 270 113 289 64 c 0
 299 39 299 39 299 33 c 0
 299 15 283 -1 265 -1 c 0
 240 -1 231 24 222 50 c 0
 216 68 209 87 196 97 c 0
 187 104 174 107 151 107 c 0
 129 105 92 102 62 99 c 2
 61 99 60 98 59 98 c 0xf0
EndSplineSet
Validated: 1
EndChar

StartChar: uni227B
Encoding: 123 8827 123
Width: 353
VWidth: 0
Flags: W
HStem: -1 21G<50 66.5> 106 68<175.854 323.605> 281 20G<69.5 88>
VStem: 25 66<2.61508 61.5689> 45 67<230.106 297.47>
LayerCount: 2
Fore
SplineSet
25 33 m 0xf0
 25 75 69 127 123 148 c 1
 72 185 45 226 45 265 c 0
 45 285 60 301 79 301 c 0
 97 301 112 285 112 267 c 0
 112 266 l 0
 112 265 l 0xe8
 112 240 171 186 211 174 c 1
 240 173 252 173 262 173 c 0
 295 173 277 172 294 172 c 0
 312 172 328 157 328 139 c 0
 328 132 326 106 288 106 c 0
 284 106 280 106 276 106 c 0
 157 102 105 79 91 25 c 0
 87 10 74 -1 59 -1 c 0
 41 -1 25 15 25 33 c 0xf0
EndSplineSet
Validated: 1
EndChar

StartChar: uni227C
Encoding: 124 8828 124
Width: 347
VWidth: 0
Flags: W
HStem: -84 64<214.931 270.374> 3 63<31.1243 87.5286> 147 67<28.3148 149.958> 155 67<32.6921 166.988>
VStem: 222 77<58.4078 135.587> 256 66<290.344 345.404>
LayerCount: 2
Fore
SplineSet
28 33 m 0xc0
 28 51 44 66 62 66 c 0
 67 66 72 65 77 63 c 0
 110 46 138 34 165 22 c 0
 193 10 221 -3 255 -20 c 0
 266 -26 274 -37 274 -50 c 0
 274 -68 258 -84 240 -84 c 0
 235 -84 230 -82 225 -80 c 0
 194 -65 166 -52 137 -39 c 0
 108 -26 79 -13 47 3 c 0
 36 9 28 20 28 33 c 0xc0
59 147 m 0xe8
 40 147 25 162 25 181 c 0
 25 198 37 212 53 214 c 0xe8
 93 220 123 222 148 222 c 0
 151 222 167 224 167 224 c 0
 198 238 247 294 256 325 c 0
 260 339 273 349 288 349 c 0
 306 349 322 333 322 315 c 0xd4
 322 288 285 234 241 195 c 1
 260 179 270 162 289 113 c 0
 299 88 299 87 299 81 c 0
 299 63 283 48 265 48 c 0
 240 48 231 72 222 98 c 0
 216 116 209 135 196 145 c 0
 187 152 174 155 151 155 c 0xd8
 129 153 92 150 62 147 c 2
 61 147 60 147 59 147 c 0xe8
EndSplineSet
Validated: 1
EndChar

StartChar: uni227D
Encoding: 125 8829 125
Width: 353
VWidth: 0
Flags: W
HStem: -82 65<72.2926 144.158> -11 62<250.953 323.751> 154 67<176.565 324.379>
VStem: 25 66<51.3418 109.569> 45 67<279.106 345.663>
LayerCount: 2
Fore
SplineSet
102 -82 m 0xf0
 84 -82 69 -66 69 -48 c 0
 69 -34 78 -22 91 -17 c 0
 92 -17 147 4 198 22 c 0
 241 37 280 51 281 51 c 0
 285 52 288 54 292 54 c 0
 310 54 326 38 326 20 c 0
 326 6 317 -6 304 -11 c 0
 303 -11 245 -33 194 -51 c 0
 152 -66 115 -79 114 -79 c 0
 110 -80 106 -82 102 -82 c 0xf0
25 81 m 0
 25 123 69 175 123 196 c 1
 72 233 45 275 45 314 c 0
 45 334 60 349 79 349 c 0
 97 349 112 334 112 316 c 0
 112 315 l 0
 112 314 l 0xe8
 112 289 171 235 211 223 c 1
 240 222 252 221 262 221 c 2
 294 221 l 2
 312 221 328 205 328 187 c 0
 328 180 326 154 288 154 c 0
 284 154 280 154 276 154 c 0
 157 150 105 127 91 73 c 0
 87 58 74 48 59 48 c 0
 41 48 25 63 25 81 c 0
EndSplineSet
Validated: 1
EndChar

StartChar: uni227E
Encoding: 126 8830 126
Width: 432
VWidth: 0
Flags: W
HStem: 5 67<116.495 185.204> 181 75<55.5371 171.958> 181 67<51.122 171.958>
VStem: 245 77<92.4078 169.587> 279 66<324.658 379.404>
LayerCount: 2
Fore
SplineSet
81 181 m 0xd0
 62 181 48 196 48 215 c 0
 48 232 60 246 76 248 c 0xb0
 116 254 145 256 170 256 c 0
 171 256 l 0
 174 256 189 258 189 258 c 0
 220 272 270 328 279 359 c 0
 283 373 296 383 311 383 c 0
 329 383 345 367 345 349 c 0xc8
 345 322 308 268 264 229 c 1
 283 213 293 196 312 147 c 0
 322 122 322 121 322 115 c 0
 322 97 306 82 288 82 c 0
 263 82 254 106 245 132 c 0
 239 150 232 169 219 179 c 0
 210 186 196 189 173 189 c 0
 151 187 114 184 84 181 c 2
 83 181 82 181 81 181 c 0xd0
258 -15 m 1
 297 -12 314 16 329 40 c 0
 341 60 352 78 373 78 c 0
 391 78 407 62 407 44 c 0
 407 32 400 23 393 15 c 0
 389 11 386 7 384 2 c 0
 344 -58 313 -79 261 -82 c 2
 259 -82 l 2
 258 -82 258 -82 257 -83 c 0
 230 -83 216 -61 202 -39 c 0
 188 -17 175 5 148 5 c 0
 127 5 115 -15 103 -36 c 0
 91 -57 79 -78 58 -78 c 0
 40 -78 25 -63 25 -45 c 0
 25 -35 30 -25 40 -10 c 0
 41 -10 41 -10 41 -9 c 0
 78 52 105 72 148 72 c 0
 188 72 215 53 244 5 c 0
 251 -6 254 -11 258 -15 c 1
EndSplineSet
Validated: 1
EndChar

StartChar: uni227F
Encoding: 127 8831 127
Width: 432
VWidth: 0
Flags: W
HStem: 5 67<116.495 185.204> 188 67<210.476 355.605>
VStem: 56 66<85.3418 143.569> 76 67<314.56 349 350 379.663>
LayerCount: 2
Fore
SplineSet
56 115 m 0xe0
 56 157 100 209 154 230 c 1
 103 267 76 309 76 348 c 0
 76 368 91 383 110 383 c 0
 128 383 144 368 144 350 c 0
 143 349 l 0
 143 348 l 0xd0
 143 323 203 269 243 257 c 1
 272 256 283 255 293 255 c 2
 326 255 l 2
 344 255 359 239 359 221 c 0
 359 188 329 188 307 188 c 0
 188 184 136 161 122 107 c 0
 118 92 105 82 90 82 c 0
 72 82 56 97 56 115 c 0xe0
258 -15 m 1
 297 -12 314 16 329 40 c 0
 341 60 352 78 373 78 c 0
 391 78 407 62 407 44 c 0
 407 32 400 23 393 15 c 0
 389 11 386 7 384 2 c 0
 344 -58 313 -79 261 -82 c 2
 259 -82 l 2
 257 -82 257 -82 257 -83 c 1
 229 -83 216 -61 202 -39 c 0
 188 -17 175 5 148 5 c 0
 127 5 115 -15 103 -36 c 0
 91 -57 79 -78 58 -78 c 0
 40 -78 25 -63 25 -45 c 0
 25 -35 30 -25 40 -10 c 0
 41 -10 41 -10 41 -9 c 0
 78 52 105 72 148 72 c 0
 188 72 215 53 244 5 c 0
 251 -6 254 -11 258 -15 c 1
EndSplineSet
Validated: 1
EndChar

StartChar: uni2280
Encoding: 128 8832 128
Width: 347
VWidth: 0
Flags: W
HStem: -1 21G<252.5 274> 98 76<33.4746 122.151> 281 20G<287 297>
VStem: 57 70<-78.3266 -5.67212> 222 77<9.84248 86.6656> 236 65<317.402 379.515>
LayerCount: 2
Fore
SplineSet
59 98 m 0xf8
 40 98 25 113 25 132 c 0
 25 149 37 163 53 165 c 0
 93 171 123 174 148 174 c 0
 149 174 l 0
 150 174 152 174 154 174 c 0
 195 268 229 345 236 363 c 0
 241 375 253 383 267 383 c 0
 285 383 301 367 301 349 c 0xf4
 301 345 296 331 283 300 c 1
 285 300 286 301 288 301 c 0
 306 301 322 285 322 267 c 0
 322 240 285 186 241 147 c 1
 260 131 270 113 289 64 c 0
 299 39 299 39 299 33 c 0
 299 15 283 -1 265 -1 c 0
 240 -1 231 24 222 50 c 0
 215 70 208 90 193 99 c 1
 175 60 163 31 154 11 c 0
 129 -43 129 -43 127 -49 c 0
 126 -51 125 -55 122 -62 c 0
 118 -74 104 -83 91 -83 c 0
 73 -83 57 -67 57 -49 c 0
 57 -46 71 -13 123 105 c 1
 105 103 80 101 62 99 c 2
 61 99 60 98 59 98 c 0xf8
EndSplineSet
Validated: 1
EndChar

StartChar: uni2281
Encoding: 129 8833 129
Width: 353
VWidth: 0
Flags: W
HStem: -1 21G<50 63> 106 68<228.186 293.988 294 323.605> 281 20G<69.5 88>
VStem: 45 67<229.894 297.47> 57 70<-78.3266 -4.99023> 236 65<317 379.515>
LayerCount: 2
Fore
SplineSet
25 33 m 0xec
 25 75 69 127 123 148 c 1
 72 185 45 226 45 265 c 0
 45 285 60 301 79 301 c 0
 97 301 112 285 112 267 c 0
 112 266 l 0
 112 265 l 0xf4
 112 249 132 224 165 200 c 1
 202 283 230 347 236 363 c 0
 241 375 253 383 267 383 c 0
 285 383 301 367 301 349 c 0
 301 342 296 329 227 174 c 1
 242 173 254 173 263 173 c 0
 278 173 294 172 294 172 c 0
 312 172 328 157 328 139 c 0
 328 132 326 106 288 106 c 0
 284 106 280 106 276 106 c 0
 243 105 216 102 193 98 c 1
 176 61 164 34 155 14 c 0
 129 -43 130 -42 127 -49 c 0
 126 -51 125 -55 122 -62 c 0
 118 -74 104 -83 91 -83 c 0
 73 -83 57 -67 57 -49 c 0
 57 -47 64 -29 80 8 c 1
 74 3 67 -1 59 -1 c 0
 41 -1 25 15 25 33 c 0xec
EndSplineSet
Validated: 1
EndChar

StartChar: propersubset
Encoding: 130 8834 130
Width: 363
VWidth: 0
Flags: W
HStem: -0 67<106.225 332.305> 234 67<133.77 334.707>
VStem: 25 67<80.3885 199.112>
LayerCount: 2
Fore
SplineSet
25 134 m 0
 25 254 93 301 267 301 c 0
 273 301 280 301 286 301 c 0
 292 301 299 300 305 300 c 0
 323 300 338 285 338 267 c 0
 338 249 323 234 305 234 c 0
 299 234 292 234 286 234 c 0
 280 234 273 234 267 234 c 0
 131 234 92 212 92 134 c 0
 92 82 111 67 178 67 c 0
 199 67 220 68 241 69 c 0
 262 70 284 72 305 72 c 0
 323 72 338 56 338 38 c 0
 338 20 323 4 305 4 c 0
 284 4 262 3 241 2 c 0
 220 1 199 0 178 -0 c 0
 73 0 25 42 25 134 c 0
EndSplineSet
Validated: 1
EndChar

StartChar: propersuperset
Encoding: 131 8835 131
Width: 348
VWidth: 0
Flags: W
HStem: -0 66<34.1243 192.924> 234 67<28.2926 244.477>
VStem: 256 67<115.387 222.719>
LayerCount: 2
Fore
SplineSet
162 301 m 0
 280 301 323 266 323 170 c 0
 323 59 233 0 65 -0 c 0
 47 0 31 15 31 33 c 0
 31 51 47 66 65 66 c 0
 144 66 201 81 231 108 c 0
 248 124 256 143 256 170 c 0
 256 186 254 200 250 209 c 0
 242 228 222 234 162 234 c 0
 160 234 142 234 124 234 c 0
 106 234 88 233 86 233 c 0
 76 233 67 234 58 234 c 0
 40 234 25 249 25 267 c 0
 25 285 40 300 58 300 c 0
 62 300 67 300 72 300 c 0
 77 300 82 300 86 300 c 0
 88 300 106 301 124 301 c 0
 142 301 160 301 162 301 c 0
EndSplineSet
Validated: 1
EndChar

StartChar: notsubset
Encoding: 132 8836 132
Width: 363
VWidth: 0
Flags: W
HStem: -0 67<186 332.305> 234 67<291 334.707>
VStem: 25 67<79.324 197.552> 65 65<-79.5146 -15.6771>
LayerCount: 2
Fore
SplineSet
278 383 m 0xe0
 296 383 312 367 312 349 c 0
 312 345 307 336 291 301 c 1
 297 301 301 300 305 300 c 0
 323 300 338 285 338 267 c 0
 338 249 323 234 305 234 c 0
 299 234 292 234 286 234 c 0
 280 234 273 234 267 234 c 0
 265 234 263 234 261 234 c 0
 249 208 199 96 188 72 c 0
 187 69 186 67 186 67 c 1
 201 67 218 68 235 69 c 0
 257 70 281 72 305 72 c 0
 323 72 338 56 338 38 c 0
 338 20 323 4 305 4 c 0
 284 4 262 3 241 2 c 0
 220 1 199 0 178 -0 c 0
 169 0 162 0 156 0 c 1
 145 -25 137 -45 130 -62 c 0
 126 -74 112 -83 99 -83 c 0
 81 -83 65 -67 65 -49 c 0xd0
 65 -47 73 -27 91 14 c 1
 47 34 25 75 25 134 c 0
 25 241 87 294 216 300 c 1
 233 339 239 347 242 353 c 0
 244 356 245 358 247 363 c 0
 252 375 264 383 278 383 c 0xe0
185 230 m 1
 118 221 92 195 92 134 c 0xe0
 92 102 99 84 117 76 c 1
 125 94 134 114 143 135 c 0
 156 165 171 198 185 230 c 1
EndSplineSet
Validated: 1
EndChar

StartChar: uni2285
Encoding: 133 8837 133
Width: 348
VWidth: 0
Flags: W
HStem: -0 66<34.1243 77.8771> 234 67<28.2926 180.232>
VStem: 59 65<-79.5146 -16.0751> 256 67<115.188 216.558>
LayerCount: 2
Fore
SplineSet
276 279 m 1
 308 258 323 223 323 170 c 0
 323 81 264 24 153 6 c 1
 141 -22 132 -43 124 -62 c 0
 120 -74 106 -83 93 -83 c 0
 75 -83 59 -67 59 -49 c 0
 59 -47 65 -31 78 -0 c 1
 74 -0 70 0 65 -0 c 0
 47 0 31 15 31 33 c 0
 31 51 47 66 65 66 c 0
 81 66 94 67 108 68 c 1
 117 89 127 111 137 134 c 0
 151 166 166 200 181 234 c 1
 175 234 169 234 162 234 c 0
 160 234 142 234 124 234 c 0
 106 234 88 233 86 233 c 0
 76 233 67 234 58 234 c 0
 40 234 25 249 25 267 c 0
 25 285 40 300 58 300 c 0
 62 300 67 300 72 300 c 0
 77 300 82 300 86 300 c 0
 88 300 106 301 124 301 c 0
 142 301 160 301 162 301 c 0
 184 301 197 300 209 299 c 1
 226 338 233 347 236 353 c 0
 238 356 239 358 241 363 c 0
 246 375 258 383 272 383 c 0
 290 383 306 367 306 349 c 0
 306 345 304 340 276 279 c 1
187 83 m 1
 235 100 256 127 256 170 c 0
 256 191 253 209 247 217 c 1
 240 203 201 115 190 90 c 0
 188 86 187 83 187 83 c 1
EndSplineSet
Validated: 1
EndChar

StartChar: reflexsubset
Encoding: 134 8838 134
Width: 374
VWidth: 0
Flags: W
HStem: -84 68<30.4854 345.515> 48 67<106.225 332.305> 282 67<133.77 334.707>
VStem: 25 67<128.389 247.112>
LayerCount: 2
Fore
SplineSet
25 182 m 0
 25 302 93 349 267 349 c 0
 273 349 280 349 286 349 c 0
 292 349 299 349 305 349 c 0
 323 349 338 333 338 315 c 0
 338 297 323 282 305 282 c 0
 299 282 292 282 286 282 c 0
 280 282 273 282 267 282 c 0
 131 282 92 260 92 182 c 0
 92 130 111 115 178 115 c 0
 199 115 220 117 241 118 c 0
 262 119 284 120 305 120 c 0
 323 120 338 104 338 86 c 0
 338 68 323 53 305 53 c 0
 284 53 262 52 241 51 c 0
 220 50 199 48 178 48 c 0
 73 48 25 90 25 182 c 0
317 -83 m 0
 283 -83 236 -84 189 -84 c 0
 142 -84 95 -84 61 -84 c 0
 43 -84 27 -68 27 -50 c 0
 27 -32 41 -17 59 -17 c 0
 137 -16 234 -16 315 -16 c 0
 333 -16 349 -32 349 -50 c 0
 349 -68 335 -83 317 -83 c 0
EndSplineSet
Validated: 1
EndChar

StartChar: reflexsuperset
Encoding: 135 8839 135
Width: 373
VWidth: 0
Flags: W
HStem: -84 68<29.4854 344.515> 48 67<34.4854 193.687> 282 67<28.2926 244.477>
VStem: 256 67<163.387 270.719>
LayerCount: 2
Fore
SplineSet
162 349 m 0
 280 349 323 314 323 218 c 0
 323 107 233 48 65 48 c 0
 47 48 31 63 31 81 c 0
 31 99 47 115 65 115 c 0
 144 115 201 129 231 156 c 0
 248 172 256 191 256 218 c 0
 256 234 254 248 250 257 c 0
 242 276 222 282 162 282 c 0
 160 282 142 282 124 282 c 0
 106 282 88 281 86 281 c 0
 76 281 67 282 58 282 c 0
 40 282 25 297 25 315 c 0
 25 333 40 349 58 349 c 0
 62 349 67 348 72 348 c 0
 77 348 82 348 86 348 c 0
 88 348 106 349 124 349 c 0
 142 349 160 349 162 349 c 0
316 -83 m 0
 282 -83 235 -84 188 -84 c 0
 141 -84 94 -84 60 -84 c 0
 42 -84 26 -68 26 -50 c 0
 26 -32 40 -17 58 -17 c 0
 136 -16 233 -16 314 -16 c 0
 332 -16 348 -32 348 -50 c 0
 348 -68 334 -83 316 -83 c 0
EndSplineSet
Validated: 1
EndChar

StartChar: uni2288
Encoding: 136 8840 136
Width: 390
VWidth: 0
Flags: W
HStem: -233 21G<50 65.5> -84 68<41.4854 72 173 356.515> 50 67<114.099 131 230 344.579> 447 20G<324 340>
VStem: 25 65<-229.515 -166.669> 36 67<128.233 245.906> 300 65<400.868 463.515>
LayerCount: 2
Fore
SplineSet
331 467 m 0xf6
 349 467 365 451 365 433 c 0
 365 429 353 401 330 346 c 1
 342 340 349 328 349 315 c 0
 349 297 334 282 316 282 c 0
 312 282 309 282 303 282 c 1
 300 276 270 207 249 160 c 0
 238 135 230 118 230 117 c 1
 235 117 240 117 245 117 c 0
 292 119 296 120 308 120 c 0
 309 120 310 120 311 120 c 0
 312 120 314 120 316 120 c 0
 334 120 349 104 349 86 c 0
 349 68 334 53 316 53 c 0
 294 53 272 51 250 50 c 0
 233 49 216 48 200 48 c 1
 191 28 183 7 173 -16 c 1
 224 -16 280 -16 326 -16 c 0
 344 -16 360 -32 360 -50 c 0
 360 -68 346 -83 328 -83 c 0
 275 -83 214 -84 144 -84 c 1
 120 -142 99 -190 90 -212 c 0
 86 -224 72 -233 59 -233 c 0
 41 -233 25 -217 25 -199 c 0xfa
 25 -197 41 -158 72 -84 c 1
 54 -84 38 -68 38 -50 c 0
 38 -32 52 -17 70 -17 c 0
 79 -17 90 -17 101 -17 c 1
 111 5 121 29 131 53 c 1
 68 67 36 111 36 182 c 0
 36 297 103 347 258 349 c 1
 280 399 296 436 300 447 c 0
 305 459 317 467 331 467 c 0xf6
229 281 m 1
 135 276 103 251 103 182 c 0xf6
 103 137 116 122 158 117 c 1
 185 180 201 216 229 281 c 1
EndSplineSet
Validated: 1
EndChar

StartChar: uni2289
Encoding: 137 8841 137
Width: 390
VWidth: 0
Flags: W
HStem: -233 21G<50 65.5> -84 68<173 358.515> 48 67<48.2926 128.249> 282 67<42.2926 227.388> 447 20G<324 340>
VStem: 25 65<-229.515 -166.283> 300 65<401.826 463.515>
LayerCount: 2
Fore
SplineSet
313 306 m 1
 329 285 337 257 337 218 c 0
 337 141 292 87 207 63 c 1
 197 39 185 12 173 -16 c 1
 225 -16 282 -16 328 -16 c 0
 346 -16 362 -32 362 -50 c 0
 362 -68 348 -83 330 -83 c 0
 276 -83 215 -84 144 -84 c 1
 120 -142 99 -190 90 -212 c 0
 86 -224 72 -233 59 -233 c 0
 41 -233 25 -217 25 -199 c 0
 25 -197 41 -157 72 -84 c 1
 55 -83 40 -67 40 -50 c 0
 40 -32 54 -17 72 -17 c 0
 81 -17 91 -17 101 -17 c 1
 110 4 119 27 129 50 c 1
 113 49 96 48 78 48 c 0
 60 48 45 63 45 81 c 0
 45 99 60 115 78 115 c 0
 108 115 136 117 160 121 c 1
 186 182 203 222 228 279 c 1
 215 281 198 282 176 282 c 0
 174 282 156 282 138 282 c 0
 120 282 102 281 100 281 c 0
 90 281 81 282 72 282 c 0
 54 282 39 297 39 315 c 0
 39 333 54 349 72 349 c 0
 76 349 81 348 86 348 c 0
 91 348 96 348 100 348 c 0
 102 348 120 349 138 349 c 0
 156 349 174 349 176 349 c 0
 216 349 235 347 255 342 c 1
 278 395 296 436 300 447 c 0
 305 459 317 467 331 467 c 0
 349 467 365 451 365 433 c 0
 365 428 348 387 313 306 c 1
249 160 m 1
 261 173 267 187 269 206 c 1
 263 192 256 176 249 160 c 1
EndSplineSet
Validated: 1
EndChar

StartChar: uni228A
Encoding: 138 8842 138
Width: 375
VWidth: 0
Flags: W
HStem: -82 67<31.1243 134 236 346.515> 82 67<106.225 332.305> 316 67<133.77 334.707>
VStem: 25 67<162.389 281.112> 121 86<-125.629 -83.9771>
LayerCount: 2
Fore
SplineSet
25 216 m 0
 25 336 93 383 267 383 c 0
 273 383 280 383 286 383 c 0
 292 383 299 383 305 383 c 0
 323 383 338 367 338 349 c 0
 338 331 323 316 305 316 c 0
 299 316 292 316 286 316 c 0
 280 316 273 316 267 316 c 0
 131 316 92 294 92 216 c 0
 92 164 111 149 178 149 c 0
 199 149 220 151 241 152 c 0
 262 153 284 154 305 154 c 0
 323 154 338 138 338 120 c 0
 338 102 323 87 305 87 c 0
 284 87 262 86 241 85 c 0
 220 84 199 82 178 82 c 0
 73 82 25 124 25 216 c 0
214 51 m 0
 232 51 248 35 248 17 c 0
 248 15 244 4 236 -15 c 1
 264 -15 292 -15 316 -15 c 0
 334 -15 350 -31 350 -49 c 0
 350 -67 336 -82 318 -82 c 0
 284 -82 247 -82 207 -82 c 1
 182 -141 177 -151 155 -151 c 0
 137 -151 121 -135 121 -117 c 0
 121 -115 125 -104 134 -83 c 1
 117 -83 102 -83 90 -83 c 0
 75 -83 65 -83 62 -83 c 0
 44 -83 28 -67 28 -49 c 0
 28 -31 42 -16 60 -16 c 0
 92 -16 127 -15 163 -15 c 1
 169 -1 173 8 176 15 c 0
 182 28 183 31 183 31 c 0
 183 31 191 51 214 51 c 0
EndSplineSet
Validated: 1
EndChar

StartChar: uni228B
Encoding: 139 8843 139
Width: 372
VWidth: 0
Flags: W
HStem: -82 67<28.1243 131 233 343.515> 82 67<56.2926 214.672> 316 67<50.2926 266.477>
VStem: 118 86<-126.033 -83.9771> 278 67<198.348 305.719>
LayerCount: 2
Fore
SplineSet
211 51 m 0
 229 51 245 35 245 17 c 0
 245 15 241 4 233 -15 c 1
 261 -15 289 -15 313 -15 c 0
 331 -15 347 -31 347 -49 c 0
 347 -67 333 -82 315 -82 c 0
 281 -82 244 -82 204 -82 c 1
 177 -146 174 -151 152 -151 c 0
 134 -151 118 -135 118 -117 c 0
 118 -115 122 -104 131 -83 c 1
 114 -83 99 -83 87 -83 c 0
 72 -83 62 -83 59 -83 c 0
 41 -83 25 -67 25 -49 c 0
 25 -31 39 -16 57 -16 c 0
 89 -16 124 -15 160 -15 c 1
 166 -1 170 8 173 15 c 0
 179 28 180 31 180 31 c 0
 180 31 188 51 211 51 c 0
184 384 m 0
 302 384 345 349 345 253 c 0
 345 142 254 82 86 82 c 0
 68 82 53 98 53 116 c 0
 53 134 68 149 86 149 c 0
 165 149 223 164 253 191 c 0
 270 207 278 226 278 253 c 0
 278 269 276 283 272 292 c 0
 264 311 244 317 184 317 c 0
 182 317 164 316 146 316 c 0
 128 316 110 316 108 316 c 0
 98 316 88 316 79 316 c 0
 61 316 47 332 47 350 c 0
 47 368 62 383 80 383 c 0
 84 383 89 383 94 383 c 0
 99 383 104 383 108 383 c 0
 110 383 128 383 146 383 c 0
 164 383 182 384 184 384 c 0
EndSplineSet
Validated: 1
EndChar

StartChar: uni228C
Encoding: 140 8844 140
Width: 440
VWidth: 0
Flags: W
HStem: -83 67<111.386 320.257> 126 67<235.696 316.734>
VStem: 25 67<3.75196 307.594> 45 67<133.562 379.348> 348 67<8.21675 379.515>
LayerCount: 2
Fore
SplineSet
264 193 m 0xc8
 303 193 320 182 320 158 c 0
 320 140 304 124 286 124 c 0
 282 124 278 125 275 125 c 0
 272 125 268 126 264 126 c 0
 250 126 237 124 215 119 c 1
 221 113 228 106 237 98 c 0
 244 92 248 82 248 73 c 0
 248 55 232 39 214 39 c 0
 206 39 198 42 192 48 c 0
 144 91 130 113 130 141 c 0
 130 166 141 179 155 196 c 0
 164 207 176 221 186 240 c 0
 192 251 203 258 215 258 c 0
 233 258 249 242 249 224 c 0
 249 215 246 209 235 191 c 1
 245 192 254 193 264 193 c 0xc8
414 288 m 0
 414 265 414 241 414 217 c 0
 414 193 415 170 415 147 c 0
 415 11 403 -28 355 -53 c 0
 319 -72 262 -83 204 -83 c 0
 127 -83 73 -64 50 -28 c 0
 33 -1 25 37 25 91 c 0xe8
 25 135 30 184 35 233 c 0
 39 273 44 313 45 350 c 0
 46 368 60 383 78 383 c 0
 96 383 112 367 112 349 c 0xd8
 112 319 107 269 102 220 c 0
 97 171 92 121 92 91 c 0xe8
 92 51 97 23 107 8 c 0
 116 -6 157 -16 204 -16 c 0
 259 -16 327 -1 335 14 c 0
 344 30 348 75 348 147 c 0
 348 170 347 193 347 217 c 0
 347 241 347 265 347 288 c 0
 347 313 347 333 348 351 c 0
 349 369 363 383 381 383 c 0
 399 383 415 367 415 349 c 0
 415 339 414 328 414 318 c 0
 414 308 414 298 414 288 c 0
EndSplineSet
Validated: 1
EndChar

StartChar: uni228D
Encoding: 141 8845 141
Width: 440
VWidth: 0
Flags: W
HStem: -83 67<111.386 320.257> 112 66<185.124 246.876>
VStem: 25 67<3.75196 307.594> 45 67<133.562 379.348> 182 68<115.293 174.707> 348 67<8.21675 379.515>
LayerCount: 2
Fore
SplineSet
414 288 m 0xec
 414 265 414 241 414 217 c 0
 414 193 415 170 415 147 c 0
 415 11 403 -28 355 -53 c 0
 319 -72 262 -83 204 -83 c 0
 127 -83 73 -64 50 -28 c 0
 33 -1 25 37 25 91 c 0xec
 25 135 30 184 35 233 c 0
 39 273 44 313 45 350 c 0
 46 368 60 383 78 383 c 0
 96 383 112 367 112 349 c 0xdc
 112 319 107 269 102 220 c 0
 97 171 92 121 92 91 c 0
 92 51 97 23 107 8 c 0
 116 -6 157 -16 204 -16 c 0
 259 -16 327 -1 335 14 c 0
 344 30 348 75 348 147 c 0
 348 170 347 193 347 217 c 0
 347 241 347 265 347 288 c 0
 347 313 347 333 348 351 c 0
 349 369 363 383 381 383 c 0
 399 383 415 367 415 349 c 0
 415 339 414 328 414 318 c 0
 414 308 414 298 414 288 c 0xec
182 145 m 0
 182 163 198 178 216 178 c 0
 234 178 250 163 250 145 c 0
 250 127 234 112 216 112 c 0
 198 112 182 127 182 145 c 0
EndSplineSet
Validated: 1
EndChar

StartChar: uni228E
Encoding: 142 8846 142
Width: 440
VWidth: 0
Flags: W
HStem: -83 67<111.386 320.257> 123 69<125.485 182.954 250 309.413>
VStem: 25 67<3.75196 307.594> 45 67<133.562 379.348> 183 66<51.9501 121 190 248.484> 348 67<8.21675 379.515>
LayerCount: 2
Fore
SplineSet
414 288 m 0xec
 414 265 414 241 414 217 c 0
 414 193 415 170 415 147 c 0
 415 11 403 -28 355 -53 c 0
 319 -72 262 -83 204 -83 c 0
 127 -83 73 -64 50 -28 c 0
 33 -1 25 37 25 91 c 0xec
 25 135 30 184 35 233 c 0
 39 273 44 313 45 350 c 0
 46 368 60 383 78 383 c 0
 96 383 112 367 112 349 c 0xdc
 112 319 107 269 102 220 c 0
 97 171 92 121 92 91 c 0
 92 51 97 23 107 8 c 0
 116 -6 157 -16 204 -16 c 0
 259 -16 327 -1 335 14 c 0
 344 30 348 75 348 147 c 0
 348 170 347 193 347 217 c 0
 347 241 347 265 347 288 c 0
 347 313 347 333 348 351 c 0
 349 369 363 383 381 383 c 0
 399 383 415 367 415 349 c 0
 415 339 414 328 414 318 c 0
 414 308 414 298 414 288 c 0xec
156 192 m 0
 158 192 161 192 163 192 c 0
 165 192 167 191 169 191 c 0
 171 191 174 190 176 190 c 0
 178 190 180 190 182 190 c 2
 183 190 l 1
 185 206 l 2
 186 210 186 214 186 222 c 0
 187 239 201 253 219 253 c 0
 237 253 253 237 253 219 c 0
 253 217 253 216 253 214 c 0
 253 212 252 212 252 210 c 0
 251 207 251 203 251 199 c 0
 251 195 250 191 250 188 c 1
 271 188 275 188 281 189 c 0
 299 189 315 173 315 155 c 0
 315 129 300 121 249 121 c 1
 249 82 l 2
 249 64 234 49 216 49 c 0
 198 49 183 64 183 82 c 0
 183 109 183 114 182 123 c 1
 140 123 122 133 122 158 c 0
 122 176 138 192 156 192 c 0
EndSplineSet
Validated: 1
EndChar

StartChar: uni228F
Encoding: 143 8847 143
Width: 345
VWidth: 0
Flags: W
HStem: -1 67<93.7195 281.098> 7 67<106.176 312.348> 221 67<103.47 316.876> 280 20G<68.5 96.5>
VStem: 25 67<67 230.822> 37 66<67.9426 232>
LayerCount: 2
Fore
SplineSet
36 263 m 0x84
 36 286 53 300 84 300 c 0x94
 109 300 142 297 175 294 c 0
 208 291 241 288 266 288 c 0
 269 288 272 288 276 288 c 0
 280 288 283 289 286 289 c 0
 304 289 320 273 320 255 c 0
 320 230 305 221 266 221 c 0
 236 221 208 223 145 229 c 0
 125 231 113 231 103 232 c 1x24
 102 207 100 174 97 142 c 0
 95 114 93 87 92 67 c 0
 96 67 101 66 105 66 c 0xa8
 124 66 159 68 194 70 c 0
 229 72 263 74 282 74 c 0
 300 74 316 58 316 40 c 0
 316 22 301 7 283 7 c 0x48
 253 6 222 5 193 3 c 0
 161 1 130 -1 105 -1 c 0
 42 -1 25 12 25 56 c 0x88
 25 78 28 114 31 151 c 0
 34 188 37 224 37 246 c 0
 37 250 36 252 36 254 c 0
 36 256 36 259 36 263 c 0x84
EndSplineSet
Validated: 1
EndChar

StartChar: uni2290
Encoding: 144 8848 144
Width: 345
VWidth: 0
Flags: W
HStem: -0 67<28.1243 231.098> 226 67<29.1243 60 60.0088 204.829> 234 67<60.0088 251>
VStem: 251 69<73.5542 234>
LayerCount: 2
Fore
SplineSet
257 301 m 0xb0
 301 301 320 290 320 263 c 0
 320 204 306 90 293 39 c 0
 288 18 270 8 235 4 c 0
 226 3 93 0 59 -0 c 0
 41 0 25 15 25 33 c 0
 25 51 39 66 57 67 c 0
 82 68 112 68 142 68 c 0
 178 68 213 68 232 71 c 1
 242 115 247 155 251 234 c 1xb0
 237 234 140 229 90 227 c 0
 72 226 60 226 60 226 c 0
 42 226 26 241 26 259 c 0
 26 277 40 292 58 293 c 0xd0
 94 294 161 297 207 299 c 0
 236 300 256 301 257 301 c 0xb0
EndSplineSet
Validated: 1
EndChar

StartChar: uni2291
Encoding: 145 8849 145
Width: 372
VWidth: 0
Flags: W
HStem: -84 68<28.4854 343.515> 48 67<104.719 292.098> 55 64<117.176 322.707> 270 67<114.47 326.83>
VStem: 36 67<115 279.822> 41 67<115.943 281>
LayerCount: 2
Fore
SplineSet
46 312 m 0xd4
 46 335 64 349 95 349 c 0
 120 349 153 346 186 343 c 0
 219 340 252 337 277 337 c 0
 280 337 283 337 287 337 c 0
 291 337 294 337 297 337 c 0
 315 337 330 322 330 304 c 0
 330 279 316 270 277 270 c 0
 247 270 218 272 155 278 c 0
 135 280 124 280 114 281 c 1
 113 256 111 222 108 190 c 0xd4
 106 162 104 135 103 115 c 0
 107 115 112 115 116 115 c 0xd8
 135 115 169 117 204 119 c 0
 239 121 274 122 293 122 c 0
 311 122 326 107 326 89 c 0
 326 71 312 55 294 55 c 0xb8
 264 54 232 53 203 51 c 0
 171 49 141 48 116 48 c 0
 53 48 36 61 36 105 c 0xd8
 36 127 38 162 41 199 c 0
 44 236 47 272 47 294 c 0
 47 298 47 301 47 303 c 0
 47 305 46 308 46 312 c 0xd4
315 -83 m 0
 281 -83 234 -84 187 -84 c 0
 140 -84 93 -84 59 -84 c 0
 41 -84 25 -68 25 -50 c 0
 25 -32 39 -17 57 -17 c 0
 135 -16 232 -16 313 -16 c 0
 331 -16 347 -32 347 -50 c 0
 347 -68 333 -83 315 -83 c 0
EndSplineSet
Validated: 1
EndChar

StartChar: uni2292
Encoding: 146 8850 146
Width: 372
VWidth: 0
Flags: W
HStem: -84 68<28.4854 343.515> 48 69<43.6521 245.479> 274 67<44.44 74 74.0095 219.829> 282 67<74.0095 265>
VStem: 265 69<121.554 282>
LayerCount: 2
Fore
SplineSet
272 349 m 0xd8
 316 349 334 338 334 311 c 0
 334 252 320 138 307 87 c 0
 302 66 285 56 250 52 c 0
 241 51 107 48 73 48 c 0
 55 48 40 64 40 82 c 0
 40 100 53 114 71 115 c 0
 96 116 126 117 156 117 c 0
 170 117 185 117 198 117 c 0
 217 117 235 117 246 119 c 1
 256 163 261 203 265 282 c 1xd8
 251 282 155 277 105 275 c 0
 87 274 74 274 74 274 c 0
 56 274 41 290 41 308 c 0
 41 326 55 340 73 341 c 0xe8
 109 342 176 345 222 347 c 0
 251 348 271 349 272 349 c 0xd8
315 -83 m 0
 281 -83 234 -84 187 -84 c 0
 140 -84 93 -84 59 -84 c 0
 41 -84 25 -68 25 -50 c 0
 25 -32 39 -17 57 -17 c 0
 135 -16 232 -16 313 -16 c 0
 331 -16 347 -32 347 -50 c 0
 347 -68 333 -83 315 -83 c 0
EndSplineSet
Validated: 1
EndChar

StartChar: uni2293
Encoding: 147 8851 147
Width: 348
VWidth: 0
Flags: W
HStem: -1 21G<50 67 264 282> 221 66<106.732 255.057> 233 68<108.942 256>
VStem: 25 67<2.59335 219.685> 38 68<28.9213 220.625> 239 84<19.342 232.233>
LayerCount: 2
Fore
SplineSet
262 301 m 0xac
 308 301 323 286 323 244 c 0
 323 221 321 191 317 153 c 0
 314 118 309 78 306 31 c 0
 305 13 291 -1 273 -1 c 0
 255 -1 239 15 239 33 c 0
 239 45 244 92 248 138 c 0
 252 178 255 217 256 233 c 1xac
 236 232 208 230 180 227 c 0
 154 224 128 222 108 221 c 1
 107 213 107 205 106 186 c 0xcc
 102 108 99 68 92 27 c 0
 89 11 75 -1 59 -1 c 0
 41 -1 25 15 25 33 c 0
 25 35 25 37 25 39 c 0xd4
 34 89 36 140 38 181 c 0
 40 222 42 254 48 267 c 0
 54 280 66 288 80 288 c 0
 81 288 83 287 85 287 c 0
 87 287 89 287 90 287 c 0xcc
 112 287 144 291 176 294 c 0
 208 297 240 301 262 301 c 0xac
EndSplineSet
Validated: 1
EndChar

StartChar: uni2294
Encoding: 148 8852 148
Width: 359
VWidth: 0
Flags: W
HStem: 3 67<92.2831 261.98> 280 20G<53 73 290 308>
VStem: 28 67<72.3257 296.7> 267 67<68.3278 297.136>
LayerCount: 2
Fore
SplineSet
64 -1 m 0
 33 -1 25 20 25 91 c 0
 25 114 26 144 27 175 c 0
 28 206 28 236 28 259 c 0
 28 261 28 262 28 263 c 0
 28 264 28 265 28 267 c 0
 28 285 44 300 62 300 c 0
 84 300 95 286 95 259 c 0
 95 236 95 205 94 175 c 0
 93 145 92 114 92 91 c 0
 92 84 92 77 92 70 c 1
 97 70 104 70 111 70 c 0
 131 70 156 70 180 69 c 0
 204 68 229 67 249 67 c 0
 253 67 258 67 262 67 c 0
 265 95 267 144 267 190 c 0
 267 201 266 215 266 229 c 0
 266 243 265 256 265 267 c 0
 265 285 281 301 299 301 c 0
 317 301 331 287 332 269 c 0
 333 245 334 217 334 190 c 0
 334 109 330 50 323 28 c 0
 316 6 298 0 249 -0 c 0
 229 0 204 1 180 2 c 0
 156 3 131 3 111 3 c 0
 100 3 94 2 88 1 c 0
 82 0 75 -1 64 -1 c 0
EndSplineSet
Validated: 1
EndChar

StartChar: circleplus
Encoding: 149 8853 149
Width: 517
VWidth: 0
Flags: W
HStem: 115 67<96 220> 122 67<291 389.315>
LayerCount: 2
Fore
SplineSet
25 150 m 0x00
 25 278 129 382 258 382 c 0
 387 382 492 278 492 150 c 0
 492 21 387 -84 258 -84 c 0
 129 -84 25 21 25 150 c 0x00
96 185 m 1
 113 183 129 182 147 182 c 0x80
 168 182 185 183 224 186 c 1
 228 248 233 285 241 315 c 1
 170 307 111 255 96 185 c 1
308 308 m 1
 299 277 295 251 291 189 c 1
 292 189 l 0
 293 189 l 0x40
 344 189 386 180 425 160 c 1
 421 228 374 287 308 308 c 1
414 90 m 1
 412 91 409 92 407 93 c 0
 373 114 340 122 293 122 c 0
 291 122 289 122 287 122 c 0
 283 59 281 22 277 -16 c 1
 338 -9 391 32 414 90 c 1
210 -9 m 1
 214 25 217 68 220 118 c 1
 187 116 168 115 147 115 c 0x80
 129 115 112 115 95 117 c 1
 107 57 152 9 210 -9 c 1
EndSplineSet
Validated: 1
EndChar

StartChar: uni2296
Encoding: 150 8854 150
Width: 517
VWidth: 0
Flags: W
HStem: -84 68<181.661 334.498> 125 67<173.769 420> 316 66<182.007 333.8>
VStem: 25 67<157 224.359>
LayerCount: 2
Fore
SplineSet
25 150 m 0
 25 278 129 382 258 382 c 0
 387 382 492 278 492 150 c 0
 492 21 387 -84 258 -84 c 0
 129 -84 25 21 25 150 c 0
92 157 m 1
 164 177 294 192 381 192 c 0
 396 192 409 192 420 191 c 1
 401 264 334 316 258 316 c 0
 169 316 96 246 92 157 c 1
423 123 m 1
 410 124 398 125 381 125 c 0
 302 125 164 108 103 90 c 1
 128 26 190 -16 258 -16 c 0
 339 -16 410 43 423 123 c 1
EndSplineSet
Validated: 1
EndChar

StartChar: circlemultiply
Encoding: 151 8855 151
Width: 517
VWidth: 0
Flags: W
HStem: -84 68<181.371 311.487> 316 66<203.563 321.67>
VStem: 25 67<73.3868 226.067> 425 67<73.975 226.049>
LayerCount: 2
Fore
SplineSet
25 150 m 0
 25 278 129 382 258 382 c 0
 387 382 492 278 492 150 c 0
 492 21 387 -84 258 -84 c 0
 129 -84 25 21 25 150 c 0
201 305 m 1
 217 269 237 236 270 193 c 1
 284 206 311 232 332 253 c 0
 346 267 357 278 360 281 c 1
 331 304 295 316 258 316 c 0
 238 316 219 312 201 305 c 1
143 269 m 1
 110 238 92 195 92 150 c 0
 92 121 99 92 114 67 c 1
 145 87 181 114 220 148 c 1
 184 195 162 230 143 269 c 1
404 230 m 1
 398 224 388 214 376 202 c 0
 358 184 334 162 311 140 c 1
 345 95 362 63 372 29 c 1
 406 61 425 104 425 150 c 0
 425 178 418 206 404 230 c 1
313 -7 m 0
 313 -6 312 -5 312 -4 c 0
 306 24 291 52 261 94 c 1
 225 62 191 37 160 16 c 1
 189 -5 222 -16 258 -16 c 0
 276 -16 296 -13 313 -7 c 0
EndSplineSet
Validated: 1
EndChar

StartChar: uni2298
Encoding: 152 8856 152
Width: 517
VWidth: 0
Flags: W
HStem: -84 68<181.748 333.222> 316 66<182.717 322.496>
VStem: 25 67<73.7594 224.816> 425 67<74.8838 225.387>
LayerCount: 2
Fore
SplineSet
25 150 m 0
 25 278 129 382 258 382 c 0
 387 382 492 278 492 150 c 0
 492 21 387 -84 258 -84 c 0
 129 -84 25 21 25 150 c 0
380 263 m 1
 353 239 329 203 301 161 c 0
 268 111 230 54 178 5 c 1
 203 -9 230 -16 258 -16 c 0
 349 -16 425 59 425 150 c 0
 425 192 409 232 380 263 c 1
324 302 m 1
 303 311 281 316 258 316 c 0
 166 316 92 241 92 150 c 0
 92 113 104 77 127 48 c 1
 175 93 210 147 243 196 c 0
 269 236 295 273 324 302 c 1
EndSplineSet
Validated: 1
EndChar

StartChar: uni2299
Encoding: 153 8857 153
Width: 517
VWidth: 0
Flags: W
HStem: -84 68<182.937 333.222> 113 66<227.124 288.876> 316 66<182.717 333.442>
VStem: 25 67<74.8838 224.816> 224 68<116.293 175.707> 425 67<74.8838 224.816>
LayerCount: 2
Fore
SplineSet
25 150 m 0
 25 278 129 382 258 382 c 0
 387 382 492 278 492 150 c 0
 492 21 387 -84 258 -84 c 0
 129 -84 25 21 25 150 c 0
92 150 m 0
 92 59 167 -16 258 -16 c 0
 349 -16 425 59 425 150 c 0
 425 241 350 316 258 316 c 0
 166 316 92 241 92 150 c 0
224 146 m 0
 224 164 240 179 258 179 c 0
 276 179 292 164 292 146 c 0
 292 128 276 113 258 113 c 0
 240 113 224 128 224 146 c 0
EndSplineSet
Validated: 1
EndChar

StartChar: uni229A
Encoding: 154 8858 154
Width: 517
VWidth: 0
Flags: W
HStem: -84 68<182.937 333.222> 171 67<249.572 280.963> 316 66<182.717 333.442>
VStem: 25 67<74.8838 224.816> 180 70<114.661 169.523> 282 68<120.749 170.866> 425 67<74.8838 224.816>
LayerCount: 2
Fore
SplineSet
25 150 m 0
 25 278 129 382 258 382 c 0
 387 382 492 278 492 150 c 0
 492 21 387 -84 258 -84 c 0
 129 -84 25 21 25 150 c 0
92 150 m 0
 92 59 167 -16 258 -16 c 0
 349 -16 425 59 425 150 c 0
 425 241 350 316 258 316 c 0
 166 316 92 241 92 150 c 0
250 162 m 1
 250 159 l 2
 248 154 248 153 248 144 c 0
 248 133 249 123 252 114 c 1
 270 123 282 138 282 149 c 0
 282 160 272 171 260 171 c 0
 254 171 252 170 250 163 c 2
 250 162 l 1
246 45 m 0
 205 45 180 83 180 144 c 0
 180 202 212 238 260 238 c 0
 309 238 350 197 350 149 c 0
 350 99 295 45 246 45 c 0
EndSplineSet
Validated: 1
EndChar

StartChar: uni229B
Encoding: 155 8859 155
Width: 517
VWidth: 0
Flags: W
HStem: -84 68<182.937 333.222> 139 65<318.554 368.515> 316 66<182.717 333.442>
VStem: 25 67<74.8838 224.816> 230 66<188 255.515> 425 67<74.8838 224.816>
LayerCount: 2
Fore
SplineSet
25 150 m 0
 25 278 129 382 258 382 c 0
 387 382 492 278 492 150 c 0
 492 21 387 -84 258 -84 c 0
 129 -84 25 21 25 150 c 0
92 150 m 0
 92 59 167 -16 258 -16 c 0
 349 -16 425 59 425 150 c 0
 425 241 350 316 258 316 c 0
 166 316 92 241 92 150 c 0
188 203 m 0
 196 203 202 199 210 195 c 0
 216 192 222 189 230 186 c 1
 230 228 l 2
 231 245 244 259 262 259 c 0
 280 259 296 243 296 225 c 2
 296 188 l 1
 319 199 332 204 338 204 c 0
 356 204 372 188 372 170 c 0
 372 156 364 144 352 139 c 0
 327 129 328 129 318 124 c 1
 346 95 l 2
 352 89 356 80 356 71 c 0
 356 53 342 38 324 38 c 0
 314 38 306 41 300 47 c 2
 262 85 l 1
 258 81 250 70 243 61 c 0
 239 56 235 51 234 50 c 0
 228 42 219 38 208 38 c 0
 190 38 176 53 176 71 c 0
 176 85 177 87 208 123 c 1
 203 125 196 128 190 131 c 0
 184 134 179 137 174 139 c 0
 163 144 154 156 154 169 c 0
 154 187 170 203 188 203 c 0
EndSplineSet
Validated: 1
EndChar

StartChar: uni229C
Encoding: 156 8860 156
Width: 517
Flags: W
HStem: -84 68<182.937 333.222> 60 67<165.649 358.56> 163 67<179.56 350.672> 316 66<182.717 333.442>
VStem: 25 67<74.8838 224.816> 425 67<74.8838 224.816>
LayerCount: 2
Fore
SplineSet
297 127 m 0
 302 127 308 127 313 127 c 0
 318 127 324 128 329 128 c 0
 347 128 362 112 362 94 c 0
 362 76 348 62 330 61 c 0
 319 61 308 60 297 60 c 0
 269 60 248 61 190 66 c 0
 173 67 159 82 159 99 c 0
 159 117 174 133 192 133 c 0
 202 133 224 131 245 130 c 0
 266 129 287 127 297 127 c 0
312 235 m 0
 342 235 357 225 357 202 c 0
 357 184 342 168 324 168 c 0
 322 168 320 168 318 168 c 0
 316 168 314 168 312 168 c 0
 290 168 278 167 266 166 c 0
 254 165 243 163 221 163 c 0
 191 163 176 173 176 196 c 0
 176 214 191 230 209 230 c 0
 211 230 213 230 215 230 c 0
 217 230 219 230 221 230 c 0
 243 230 254 232 266 233 c 0
 278 234 290 235 312 235 c 0
25 150 m 0
 25 278 129 382 258 382 c 0
 387 382 492 278 492 150 c 0
 492 21 387 -84 258 -84 c 0
 129 -84 25 21 25 150 c 0
92 150 m 0
 92 59 167 -16 258 -16 c 0
 349 -16 425 59 425 150 c 0
 425 241 350 316 258 316 c 0
 166 316 92 241 92 150 c 0
EndSplineSet
Validated: 1
EndChar

StartChar: uni229D
Encoding: 157 8861 157
Width: 517
VWidth: 0
Flags: W
HStem: -84 68<182.937 333.222> 110 80<178.639 338.361> 316 66<182.717 333.442>
VStem: 25 67<74.8838 224.816> 425 67<74.8838 224.816>
LayerCount: 2
Fore
SplineSet
199 110 m 0
 181 110 165 126 165 144 c 0
 165 161 178 175 195 177 c 0
 211 179 317 190 318 190 c 0
 336 190 352 174 352 156 c 0
 352 139 339 125 322 123 c 0
 306 121 200 110 199 110 c 0
25 150 m 0
 25 278 129 382 258 382 c 0
 387 382 492 278 492 150 c 0
 492 21 387 -84 258 -84 c 0
 129 -84 25 21 25 150 c 0
92 150 m 0
 92 59 167 -16 258 -16 c 0
 349 -16 425 59 425 150 c 0
 425 241 350 316 258 316 c 0
 166 316 92 241 92 150 c 0
EndSplineSet
Validated: 1
EndChar

StartChar: uni229E
Encoding: 158 8862 158
Width: 517
VWidth: 0
Flags: W
HStem: -83 67<92 215 283 425> 112 67<94.2456 225> 119 67<294 425> 122 68<92 222.985> 316 66<92 233 300 425>
VStem: 25 67<-16 122 187.609 316> 225 67<-14.4955 112> 227 73<181 316> 425 67<-16 119 186 316>
LayerCount: 2
Fore
SplineSet
25 349 m 2x8c80
 25 368 40 382 59 382 c 2
 459 382 l 2
 478 382 492 368 492 349 c 2
 492 -50 l 2
 492 -68 477 -83 458 -83 c 2
 59 -84 l 2
 41 -84 25 -68 25 -50 c 2
 25 349 l 2x8c80
425 186 m 1xad80
 425 316 l 1
 300 316 l 1
 300 313 300 311 300 308 c 0
 299 300 297 282 294 181 c 1
 369 185 378 186 412 186 c 0
 416 186 421 186 425 186 c 1xad80
425 119 m 2
 421 119 416 119 412 119 c 0
 380 119 380 118 292 114 c 1xae80
 290 54 288 16 283 -16 c 1
 425 -16 l 1
 425 119 l 2
215 -16 m 1
 215 -14 215 -12 216 -8 c 0
 218 5 222 31 225 112 c 1xce80
 182 112 140 115 92 122 c 1x9e80
 92 -16 l 1
 215 -16 l 1
92 190 m 1x9d80
 101 189 109 188 116 187 c 0
 178 180 183 179 208 179 c 0
 210 179 213 179 216 179 c 0
 219 179 222 179 226 179 c 0
 227 179 l 1xcd80
 229 248 231 281 233 316 c 1
 92 316 l 1
 92 190 l 1x9d80
EndSplineSet
Validated: 1
EndChar

StartChar: uni229F
Encoding: 159 8863 159
Width: 517
VWidth: 0
Flags: W
HStem: -84 68<92 425> 100 67<92 421.358> 109 67<228.95 425> 316 66<92 425>
VStem: 25 67<-16 102 169 316> 425 67<-16 109 174.649 316>
LayerCount: 2
Fore
SplineSet
425 316 m 1xbc
 92 316 l 1
 92 169 l 1
 151 167 193 167 226 167 c 0xdc
 287 167 351 170 425 176 c 1
 425 316 l 1xbc
25 349 m 2
 25 368 40 382 59 382 c 2
 459 382 l 2
 478 382 492 368 492 349 c 2
 492 -50 l 2
 492 -68 477 -83 458 -83 c 2
 59 -84 l 2
 41 -84 25 -68 25 -50 c 2
 25 349 l 2
425 109 m 1xbc
 347 102 289 100 226 100 c 0xdc
 192 100 157 100 92 102 c 1
 92 -16 l 1
 425 -16 l 1
 425 109 l 1xbc
EndSplineSet
Validated: 1
EndChar

StartChar: uni22A0
Encoding: 160 8864 160
Width: 517
VWidth: 0
Flags: W
HStem: -84 68<129 388> 316 66<140 343>
VStem: 25 67<52 269> 425 67<54 282>
LayerCount: 2
Fore
SplineSet
25 349 m 2
 25 368 40 382 59 382 c 2
 459 382 l 2
 478 382 492 368 492 349 c 2
 492 -50 l 2
 492 -68 477 -83 458 -83 c 2
 59 -84 l 2
 41 -84 25 -68 25 -50 c 2
 25 349 l 2
425 282 m 1
 377 262 334 233 292 195 c 1
 353 147 392 105 425 54 c 1
 425 282 l 1
388 -16 m 1
 356 47 317 91 245 147 c 1
 207 104 170 51 129 -16 c 1
 388 -16 l 1
92 52 m 1
 126 105 159 150 192 188 c 1
 147 222 119 244 92 269 c 1
 92 52 l 1
140 316 m 1
 166 293 190 272 238 236 c 1
 271 268 307 295 343 316 c 1
 140 316 l 1
EndSplineSet
Validated: 1
EndChar

StartChar: uni22A1
Encoding: 161 8865 161
Width: 517
VWidth: 0
Flags: W
HStem: -84 68<92 425> 113 66<228.124 289.876> 316 66<92 425>
VStem: 25 67<-16 316> 225 68<116.293 175.707> 425 67<-16 316>
LayerCount: 2
Fore
SplineSet
425 316 m 1
 92 316 l 1
 92 -16 l 1
 425 -16 l 1
 425 316 l 1
25 349 m 2
 25 368 40 382 59 382 c 2
 459 382 l 2
 478 382 492 368 492 349 c 2
 492 -50 l 2
 492 -68 477 -83 458 -83 c 2
 59 -84 l 2
 41 -84 25 -68 25 -50 c 2
 25 349 l 2
225 146 m 0
 225 164 241 179 259 179 c 0
 277 179 293 164 293 146 c 0
 293 128 277 113 259 113 c 0
 241 113 225 128 225 146 c 0
EndSplineSet
Validated: 1
EndChar

StartChar: uni22A2
Encoding: 162 8866 162
Width: 414
VWidth: 0
Flags: W
HStem: -1 21G<50 73.5> 108 67<111.313 355.999 356 382.849> 281 20G<72 90>
VStem: 47 67<176.921 297.515>
LayerCount: 2
Fore
SplineSet
106 112 m 1
 98 27 88 -1 59 -1 c 0
 41 -1 25 15 25 33 c 0
 25 37 26 41 28 47 c 0
 31 57 35 73 39 110 c 0
 42 138 41 137 47 268 c 0
 48 286 63 301 81 301 c 0
 99 301 114 285 114 267 c 0
 114 265 110 190 110 179 c 0
 138 176 166 175 197 175 c 0
 207 175 241 176 276 177 c 0
 311 178 346 180 356 180 c 0
 374 180 389 164 389 146 c 0
 389 128 374 114 356 113 c 0
 356 113 355 112 353 112 c 0
 333 111 232 108 197 108 c 0
 165 108 135 109 106 112 c 1
EndSplineSet
Validated: 1
EndChar

StartChar: uni22A3
Encoding: 163 8867 163
Width: 391
VWidth: 0
Flags: W
HStem: -1 21G<288 310> 111 67<29.5567 268> 281 20G<324.5 342>
VStem: 265 67<2.48541 110.296> 299 67<180.32 297.515>
LayerCount: 2
Fore
SplineSet
301 -1 m 0xf0
 275 -1 265 16 265 65 c 0xf0
 265 80 266 96 268 111 c 1
 265 111 264 111 261 111 c 0
 260 111 240 111 221 111 c 0
 202 111 183 110 182 110 c 0
 135 110 98 112 57 114 c 0
 39 115 25 129 25 147 c 0
 25 165 41 181 59 181 c 0
 81 181 100 180 120 179 c 0
 140 178 160 178 182 178 c 0
 183 178 202 178 221 178 c 0
 240 178 260 178 261 178 c 0
 268 178 274 178 281 178 c 1
 293 228 296 245 299 271 c 0
 301 288 316 301 333 301 c 0
 351 301 366 285 366 267 c 0xe8
 366 239 357 203 349 166 c 0
 341 129 332 93 332 65 c 0
 332 59 333 54 333 49 c 0
 333 44 334 39 334 33 c 0
 334 15 319 -1 301 -1 c 0xf0
EndSplineSet
Validated: 1
EndChar

StartChar: uni22A4
Encoding: 164 8868 164
Width: 359
VWidth: 0
Flags: W
HStem: 315 67<217.725 273.758>
VStem: 128 67<-80.4661 157.098> 150 67<98.4394 308>
LayerCount: 2
Fore
SplineSet
150 308 m 1xa0
 150 308 148 307 146 307 c 0
 129 305 62 295 59 295 c 0
 41 295 25 311 25 329 c 0
 25 346 37 360 54 362 c 0
 205 382 205 382 235 382 c 0
 283 382 312 371 328 349 c 0
 332 343 334 337 334 330 c 0
 334 312 319 297 301 297 c 0
 290 297 280 302 274 310 c 0
 269 313 253 315 235 315 c 0
 229 315 224 314 217 314 c 1xa0
 215 175 207 47 195 -54 c 0
 193 -71 179 -84 162 -84 c 0
 144 -84 128 -68 128 -50 c 0xc0
 128 -49 128 -46 129 -40 c 0
 133 -6 146 113 150 308 c 1xa0
EndSplineSet
Validated: 1
EndChar

StartChar: perpendicular
Encoding: 165 8869 165
Width: 376
VWidth: 0
Flags: W
HStem: -84 67<28.4854 149.732 219.501 347.707>
VStem: 151 67<-10 201.967> 168 67<144.657 379.772>
LayerCount: 2
Fore
SplineSet
318 -84 m 0xc0
 302 -84 279 -82 256 -80 c 0
 233 -78 211 -76 195 -76 c 0
 179 -76 153 -78 127 -80 c 0
 101 -82 75 -84 59 -84 c 0
 41 -84 25 -68 25 -50 c 0
 25 -33 39 -19 56 -17 c 0
 94 -14 124 -11 151 -10 c 1xc0
 162 274 162 274 168 352 c 0
 169 369 184 383 202 383 c 0
 220 383 235 370 235 352 c 0
 235 351 l 4xa0
 235 350 231 317 218 -10 c 1
 250 -11 283 -13 321 -17 c 0
 338 -19 351 -33 351 -50 c 0
 351 -68 336 -84 318 -84 c 0xc0
EndSplineSet
Validated: 1
EndChar

StartChar: uni22A6
Encoding: 166 8870 166
Width: 297
VWidth: 0
Flags: W
HStem: -1 21G<50 67.5> 113 67<104 268.707> 280 20G<62 80>
VStem: 25 76<7.61167 113> 25 67<2.62868 111.734> 37 67<181.5 296.707>
LayerCount: 2
Fore
SplineSet
25 33 m 0xf0
 25 69 28 101 31 133 c 0
 34 165 37 197 37 233 c 0
 37 239 37 244 37 250 c 0
 37 256 37 261 37 267 c 0
 37 285 53 300 71 300 c 0
 89 300 104 285 104 267 c 0
 104 267 104 258 104 250 c 0
 104 242 104 233 104 233 c 0
 104 210 104 194 104 180 c 1xe4
 104 180 106 180 109 180 c 0
 130 180 210 180 239 180 c 0
 257 180 272 165 272 147 c 0
 272 129 257 114 239 114 c 0
 213 114 128 113 106 113 c 0
 103 113 101 113 101 113 c 0xf0
 99 86 96 58 92 28 c 0xe8
 90 11 76 -1 59 -1 c 0
 41 -1 25 15 25 33 c 0xf0
EndSplineSet
Validated: 1
EndChar

StartChar: uni22A7
Encoding: 167 8871 167
Width: 269
VWidth: 0
Flags: W
HStem: -0 21G<49 67> 66 71<97 235.674> 162 67<103 238.247> 281 20G<59 80.5>
VStem: 25 67<3.2926 63.439 131 160> 36 63<131.956 160 160 162 229 298.108>
LayerCount: 2
Fore
SplineSet
25 33 m 0xf8
 25 52 28 95 31 138 c 0
 34 181 36 224 36 243 c 0
 36 246 36 251 36 255 c 0
 36 259 35 264 35 267 c 0
 35 285 50 301 68 301 c 0
 93 301 103 284 103 243 c 0
 103 239 103 234 103 229 c 1
 103 229 104 229 106 229 c 0
 120 229 184 231 208 233 c 0
 209 233 210 234 211 234 c 0
 229 234 244 218 244 200 c 0
 244 183 230 168 213 167 c 0
 191 165 122 163 104 162 c 0
 101 162 99 162 99 162 c 0
 99 161 99 160 99 160 c 0
 99 160 100 160 99 151 c 0xf4
 99 147 98 140 97 131 c 1
 194 136 195 137 208 137 c 0
 226 137 241 121 241 103 c 0
 241 86 227 71 210 70 c 0
 185 68 163 67 141 66 c 0
 125 65 109 65 93 64 c 1
 92 52 92 42 92 32 c 0
 91 14 76 0 58 -0 c 0
 40 0 25 15 25 33 c 0xf8
EndSplineSet
Validated: 1
EndChar

StartChar: uni22A8
Encoding: 168 8872 168
Width: 481
VWidth: 0
Flags: W
HStem: 55 67<108 350.703> 68 67<150.399 452.234> 165 67<119 364.408 366.89 447.739> 172 67<177.592 421.11>
VStem: 54 67<234.748 330.844>
LayerCount: 2
Fore
SplineSet
25 0 m 0x88
 25 16 32 77 39 138 c 0
 46 199 54 260 54 276 c 0
 54 279 53 284 53 288 c 0
 53 292 53 297 53 300 c 0
 53 318 69 334 87 334 c 0
 112 334 121 318 121 276 c 0
 121 263 120 250 119 234 c 1
 138 233 157 232 176 232 c 0xa8
 210 232 240 234 271 236 c 0
 302 238 332 239 366 239 c 0
 385 239 403 238 422 237 c 0
 440 236 454 222 454 204 c 0
 454 186 439 170 421 170 c 0
 412 170 402 171 393 171 c 0
 384 171 375 172 366 172 c 0x18
 332 172 301 171 271 169 c 0
 241 167 210 165 176 165 c 0
 155 165 134 166 113 167 c 1
 112 154 110 140 108 123 c 1
 116 122 125 122 134 122 c 0xa8
 172 122 211 126 250 129 c 0
 289 132 329 135 367 135 c 0
 387 135 406 134 425 133 c 0
 442 132 456 118 456 100 c 0
 456 82 441 66 423 66 c 0
 414 66 404 67 395 67 c 0
 386 67 376 68 367 68 c 0x48
 328 68 289 65 250 62 c 0
 211 59 173 55 134 55 c 0
 121 55 110 56 99 57 c 1
 96 32 94 13 92 -4 c 0
 90 -21 76 -34 59 -34 c 0
 41 -34 25 -18 25 0 c 0x88
EndSplineSet
Validated: 1
EndChar

StartChar: uni22A9
Encoding: 169 8873 169
Width: 534
VWidth: 0
Flags: W
HStem: -1 21G<50 67.5 182 200> 91 67<240.2 504.17> 281 20G<59 77 189 206.5>
VStem: 25 67<2.62868 180.659> 36 67<34.1257 297.136> 157 67<2.48541 108.551> 167 67<176.386 296.327>
LayerCount: 2
Fore
SplineSet
421 91 m 0xe2
 383 91 383 91 229 111 c 1
 225 58 225 53 224 31 c 0
 223 13 209 -1 191 -1 c 0
 173 -1 157 15 157 33 c 0xe4
 157 53 160 86 162 119 c 0
 164 152 167 185 167 205 c 0
 167 213 166 225 165 236 c 0
 164 247 164 259 164 267 c 0
 164 285 180 301 198 301 c 0
 215 301 230 287 231 270 c 0
 233 248 234 227 234 205 c 0
 234 196 233 187 233 178 c 1
 389 158 390 158 421 158 c 0
 431 158 439 159 448 160 c 0
 457 161 466 162 476 162 c 0
 494 162 509 146 509 128 c 0
 509 111 497 97 481 95 c 0
 462 92 442 91 421 91 c 0xe2
25 33 m 0xf0
 25 57 28 82 31 108 c 0
 34 134 36 159 36 183 c 0
 36 192 36 209 35 225 c 0
 34 241 34 258 34 267 c 0
 34 285 50 301 68 301 c 0
 86 301 100 287 101 269 c 0
 103 233 103 207 103 183 c 0xe8
 103 133 100 87 92 28 c 0
 90 11 76 -1 59 -1 c 0
 41 -1 25 15 25 33 c 0xf0
EndSplineSet
Validated: 1
EndChar

StartChar: uni22AA
Encoding: 170 8874 170
Width: 541
VWidth: 0
Flags: W
HStem: -1 21G<68 85.5 184 201 294 314> 118 67<342.656 510.193> 120 68<342 390.021> 281 20G<50 66 165 181 286 302>
VStem: 43 67<2.50342 125.592> 50 67<19.8675 225.614> 159 66<2.24097 266.812> 271 67<2.12434 120 186.231 266.021>
LayerCount: 2
Fore
SplineSet
305 -1 m 0xb3
 283 -1 271 14 271 41 c 0
 271 63 272 85 273 106 c 0
 274 127 275 148 275 170 c 0
 275 191 272 204 268 218 c 0
 264 232 261 246 261 267 c 0
 261 285 277 301 295 301 c 0
 309 301 321 291 326 278 c 0
 336 251 341 223 342 188 c 1xb3
 356 186 370 185 391 185 c 0
 395 185 399 185 403 185 c 0
 407 185 411 185 415 185 c 0
 445 185 466 184 488 180 c 0
 504 177 516 163 516 147 c 0
 516 129 501 113 483 113 c 0
 468 113 458 115 449 116 c 0
 440 117 430 118 415 118 c 0
 411 118 407 118 403 118 c 0
 399 118 395 118 391 118 c 0xd3
 370 118 356 118 341 120 c 1
 339 68 338 61 338 41 c 0
 338 40 338 38 338 37 c 0
 338 36 338 34 338 33 c 0
 338 15 323 -1 305 -1 c 0xb3
140 267 m 0
 140 285 156 301 174 301 c 0
 188 301 200 292 205 279 c 0
 221 236 221 166 221 111 c 0
 221 80 221 53 224 40 c 0
 225 38 225 35 225 33 c 0
 225 15 210 -1 192 -1 c 0
 176 -1 162 11 159 26 c 0
 154 47 154 83 154 121 c 0
 154 171 153 225 142 255 c 0
 141 259 140 263 140 267 c 0
50 127 m 0x97
 50 153 44 175 38 197 c 0
 32 219 25 241 25 267 c 0
 25 285 41 301 59 301 c 0
 73 301 85 292 90 279 c 0
 109 232 117 183 117 127 c 0x97
 117 97 115 65 110 28 c 0
 108 12 94 -1 77 -1 c 0
 59 -1 43 15 43 33 c 0x9b
 43 47 45 63 47 80 c 0
 49 97 50 113 50 127 c 0x97
EndSplineSet
Validated: 1
EndChar

StartChar: uni22AB
Encoding: 171 8875 171
Width: 455
VWidth: 0
Flags: W
HStem: -0 20G<49 67 172 189.5> 59 67<222 423.74> 159 67<226 409.391> 281 19G<63 81 187.5 205>
VStem: 25 67<3.2926 249.987> 39 67<34.7798 296.707> 148 67<2.48541 62> 156 73<230.746 294.017> 156 66<126.732 163>
LayerCount: 2
Fore
SplineSet
298 226 m 0xf1
 310 226 328 228 347 230 c 0
 366 232 385 234 397 234 c 0
 415 234 430 218 430 200 c 0
 430 183 418 169 401 167 c 0
 362 162 330 159 298 159 c 0
 274 159 250 160 223 163 c 1
 222 130 222 130 222 129 c 0xf080
 239 126 256 126 275 126 c 0
 291 126 305 126 320 127 c 0
 335 128 349 128 365 128 c 0
 376 128 386 128 396 127 c 0
 414 126 428 112 428 94 c 0
 428 76 412 60 394 60 c 0
 390 60 385 61 380 61 c 0
 375 61 369 61 365 61 c 0
 349 61 335 61 320 60 c 0
 305 59 291 59 275 59 c 0
 255 59 236 59 218 62 c 1
 217 49 216 38 215 29 c 0
 213 12 198 -1 181 -1 c 0
 163 -1 148 15 148 33 c 0
 148 34 148 36 148 37 c 0xf2
 151 65 154 112 156 158 c 0xf080
 158 201 159 244 162 271 c 0
 164 288 179 301 196 301 c 0
 214 301 229 285 229 267 c 0
 229 266 229 264 229 261 c 0
 228 256 227 246 226 230 c 1
 252 227 275 226 298 226 c 0xf1
39 250 m 0xf4
 39 252 39 256 39 259 c 0
 39 262 39 265 39 267 c 0
 39 285 54 300 72 300 c 0
 90 300 106 286 106 268 c 0
 106 262 106 256 106 250 c 0xf4
 106 208 102 175 99 141 c 0
 96 108 92 75 92 33 c 0
 92 15 76 0 58 -0 c 0
 40 0 25 15 25 33 c 0xf8
 25 71 28 107 32 142 c 0
 36 177 39 212 39 250 c 0xf4
EndSplineSet
Validated: 1
EndChar

StartChar: uni22AC
Encoding: 172 8876 172
Width: 414
VWidth: 0
Flags: W
HStem: -1 21G<50 73.5> 108 67<111.266 166 269 355.996> 281 20G<72 90>
VStem: 47 67<176.921 297.515> 99 67<-79.5146 -9.79903> 272 71<306.624 378.327>
LayerCount: 2
Fore
SplineSet
106 112 m 1xec
 98 27 88 -1 59 -1 c 0
 41 -1 25 15 25 33 c 0
 25 37 26 41 28 47 c 0
 31 57 35 73 39 110 c 0
 42 138 41 137 47 268 c 0
 48 286 63 301 81 301 c 0
 99 301 114 285 114 267 c 0xf4
 114 265 110 190 110 179 c 0
 137 176 165 175 195 175 c 1
 214 217 228 248 240 277 c 0
 263 329 269 344 272 351 c 0
 274 356 276 357 278 363 c 0
 283 375 295 383 309 383 c 0
 327 383 343 367 343 349 c 0
 343 348 343 348 343 348 c 0
 343 347 l 0
 343 344 338 332 296 238 c 0
 288 220 280 200 269 176 c 1
 299 177 330 178 345 179 c 0
 351 179 356 180 356 180 c 0
 374 180 389 164 389 146 c 0
 389 128 374 114 356 113 c 0
 356 113 355 112 353 112 c 0
 339 111 283 109 239 108 c 1
 235 98 230 89 226 81 c 0
 176 -31 176 -31 166 -56 c 0
 165 -58 165 -60 164 -62 c 0
 160 -74 146 -83 133 -83 c 0
 115 -83 99 -67 99 -49 c 0
 99 -45 115 -7 166 108 c 1
 146 109 126 110 106 112 c 1xec
EndSplineSet
Validated: 1
EndChar

StartChar: uni22AD
Encoding: 173 8877 173
Width: 481
VWidth: 0
Flags: W
HStem: 55 67<108 181.912> 68 65<290.5 453.05> 165 67<119 231 336.469 365.155 366.422 447.739> 170 69<336 421.11>
VStem: 54 67<234.748 330.844> 139 65<-79.5146 -16.2668> 312 71<306.337 378.327>
LayerCount: 2
Fore
SplineSet
25 0 m 0x8e
 25 16 32 77 39 138 c 0
 46 199 54 260 54 276 c 0
 54 279 53 284 53 288 c 0
 53 292 53 297 53 300 c 0
 53 318 69 334 87 334 c 0
 112 334 121 318 121 276 c 0
 121 263 120 250 119 234 c 1
 138 233 157 232 176 232 c 0xae
 199 232 220 233 261 235 c 1
 267 250 274 264 280 277 c 0
 303 329 309 344 312 351 c 0
 314 356 316 357 318 363 c 0
 323 375 335 383 349 383 c 0
 367 383 383 367 383 349 c 0
 383 343 377 331 336 239 c 1
 346 239 356 239 366 239 c 0
 385 239 403 238 422 237 c 0
 440 236 454 222 454 204 c 0
 454 186 439 170 421 170 c 0
 412 170 402 171 393 171 c 0
 384 171 375 172 366 172 c 0
 348 172 328 171 306 170 c 1
 290 135 290 135 289 133 c 1
 318 135 343 135 367 135 c 0
 387 135 406 134 425 133 c 0
 442 132 456 118 456 100 c 0
 456 82 441 66 423 66 c 0
 414 66 404 67 395 67 c 0
 386 67 376 68 367 68 c 0x5e
 336 68 305 67 258 63 c 1
 227 -6 216 -33 204 -62 c 0
 200 -74 186 -83 173 -83 c 0
 155 -83 139 -67 139 -49 c 0
 139 -46 151 -15 183 57 c 1
 164 56 148 55 134 55 c 0
 121 55 110 56 99 57 c 1
 96 32 94 13 92 -4 c 0
 90 -21 76 -34 59 -34 c 0
 41 -34 25 -18 25 0 c 0x8e
231 167 m 1
 210 166 193 165 176 165 c 0
 155 165 134 166 113 167 c 1
 112 154 110 140 108 123 c 1
 116 122 125 122 134 122 c 0
 154 122 177 124 214 127 c 1
 218 136 220 141 222 146 c 0
 228 160 228 159 229 162 c 0
 229 163 230 165 231 167 c 1
EndSplineSet
Validated: 1
EndChar

StartChar: uni22AE
Encoding: 174 8878 174
Width: 534
VWidth: 0
Flags: W
HStem: -1 21G<50 67.5> 91 67<310.514 504.17> 281 20G<59 77 189 206.5>
VStem: 25 67<2.62868 180.659> 36 67<34.1257 297.136> 142 65<-79.5146 -15.2263> 167 67<178 296.327> 315 71<306.25 378.327>
LayerCount: 2
Fore
SplineSet
167 205 m 0xe3
 167 213 166 225 165 236 c 0
 164 247 164 259 164 267 c 0
 164 285 180 301 198 301 c 0
 215 301 230 287 231 270 c 0
 233 248 234 227 234 205 c 0xe3
 234 196 233 187 233 178 c 0
 235 178 237 177 239 177 c 0
 257 218 271 249 283 277 c 0
 306 329 312 344 315 351 c 0
 317 356 319 357 321 363 c 0
 326 375 338 383 352 383 c 0
 370 383 386 367 386 349 c 0
 386 345 386 345 345 253 c 0
 335 230 323 202 308 168 c 1
 362 161 393 158 421 158 c 0
 431 158 439 159 448 160 c 0
 457 161 466 162 476 162 c 0
 494 162 509 146 509 128 c 0
 509 111 497 97 481 95 c 0
 462 92 442 91 421 91 c 0
 385 91 354 94 279 104 c 1
 278 102 278 100 277 98 c 0
 220 -29 220 -29 207 -61 c 0
 207 -61 207 -61 207 -62 c 0
 203 -74 189 -83 176 -83 c 0
 158 -83 142 -67 142 -49 c 0xe5
 142 -47 149 -28 166 10 c 1
 160 16 157 25 157 33 c 0
 157 53 160 86 162 119 c 0
 164 152 167 185 167 205 c 0xe3
25 33 m 0xf1
 25 57 28 82 31 108 c 0
 34 134 36 159 36 183 c 0
 36 192 36 209 35 225 c 0
 34 241 34 258 34 267 c 0
 34 285 50 301 68 301 c 0
 86 301 100 287 101 269 c 0
 103 233 103 207 103 183 c 0xe9
 103 133 100 87 92 28 c 0
 90 11 76 -1 59 -1 c 0
 41 -1 25 15 25 33 c 0xf1
EndSplineSet
Validated: 1
EndChar

StartChar: uni22AF
Encoding: 175 8879 175
Width: 455
VWidth: 0
Flags: W
HStem: -0 21G<49 67> 60 67<269 424.515> 159 67<314 396.999> 281 19G<63 81 187.5 205>
VStem: 25 67<3.2926 249.987> 39 67<34.7798 296.707> 122 64<-79.5146 -18.7111> 156 73<229 294.017> 295 71<308.093 378.74>
LayerCount: 2
Fore
SplineSet
314 226 m 1xf180
 345 227 383 232 394 233 c 0
 396 233 397 234 397 234 c 0
 415 234 430 218 430 200 c 0
 430 183 418 169 401 167 c 0
 362 162 330 159 298 159 c 0
 293 159 289 159 284 159 c 1
 280 149 274 138 269 126 c 1
 271 126 273 126 275 126 c 0
 291 126 305 126 320 127 c 0
 335 128 349 128 365 128 c 0
 376 128 386 128 396 127 c 0
 414 126 428 112 428 94 c 0
 428 76 412 60 394 60 c 0
 390 60 385 61 380 61 c 0
 375 61 369 61 365 61 c 0
 349 61 335 61 320 60 c 0
 305 59 291 59 275 59 c 0
 263 59 251 59 240 60 c 1
 211 -6 198 -34 186 -62 c 0xf280
 182 -74 169 -83 156 -83 c 0xf180
 138 -83 122 -67 122 -49 c 0xf280
 122 -47 130 -25 150 21 c 0
 148 25 148 29 148 33 c 0
 148 34 148 36 148 37 c 0
 151 65 154 112 156 158 c 0
 158 201 159 244 162 271 c 0
 164 288 179 301 196 301 c 0
 214 301 229 285 229 267 c 0
 229 266 229 264 229 261 c 0
 228 256 227 246 226 230 c 1
 231 229 236 229 241 229 c 1
 249 247 256 262 262 277 c 0
 285 329 292 344 295 351 c 0
 297 356 298 357 300 363 c 0
 305 375 318 383 332 383 c 0
 350 383 366 367 366 349 c 0
 366 343 362 333 314 226 c 1xf180
39 250 m 0xf480
 39 252 39 256 39 259 c 0
 39 262 39 265 39 267 c 0
 39 285 54 300 72 300 c 0
 90 300 106 286 106 268 c 0
 106 262 106 256 106 250 c 0xf480
 106 208 102 175 99 141 c 0
 96 108 92 75 92 33 c 0
 92 15 76 0 58 -0 c 0
 40 0 25 15 25 33 c 0xf880
 25 71 28 107 32 142 c 0
 36 177 39 212 39 250 c 0xf480
EndSplineSet
Validated: 1
EndChar

StartChar: uni22B0
Encoding: 176 8880 176
Width: 399
VWidth: 0
Flags: W
HStem: -1 21G<236 246> 100 66<28.122 239.896> 234 67<239.841 305.276>
LayerCount: 2
Fore
SplineSet
218 259 m 0
 218 283 247 301 286 301 c 0
 331 301 373 263 373 221 c 0
 373 191 355 166 319 146 c 1
 351 128 374 94 374 68 c 0
 374 29 351 16 251 -0 c 0
 249 -0 247 -1 245 -1 c 0
 227 -1 212 15 212 33 c 0
 212 49 224 63 240 66 c 0
 278 72 290 74 300 77 c 1
 284 95 249 103 188 103 c 0
 171 103 148 102 124 101 c 0
 100 100 76 100 59 100 c 0
 58 100 l 0
 39 100 25 114 25 133 c 0
 25 151 40 166 58 166 c 0
 126 168 178 170 198 173 c 0
 263 190 301 207 306 220 c 0
 303 228 294 234 286 234 c 0
 279 234 274 232 269 230 c 0
 264 228 258 225 251 225 c 0
 233 225 218 241 218 259 c 0
EndSplineSet
Validated: 1
EndChar

StartChar: uni22B1
Encoding: 177 8881 177
Width: 414
VWidth: 0
Flags: W
HStem: -1 67<97.5625 202.859> 123 68<178.484 384.867> 235 66<108.888 196.707>
LayerCount: 2
Fore
SplineSet
149 -1 m 0
 73 -1 25 33 25 86 c 0
 25 111 45 130 88 147 c 1
 50 160 30 183 30 212 c 0
 30 242 48 265 83 278 c 0
 96 283 162 301 167 301 c 0
 185 301 200 285 200 267 c 0
 200 253 191 240 178 235 c 0
 166 231 151 228 139 225 c 0
 124 221 111 217 102 213 c 1
 129 200 222 190 300 190 c 0
 310 190 319 191 328 191 c 0
 337 191 345 191 355 191 c 0
 374 191 389 177 389 158 c 0
 389 141 375 126 358 125 c 0
 348 124 331 123 316 123 c 0
 231 117 136 98 97 78 c 1
 107 71 127 66 149 66 c 0
 151 66 156 67 161 67 c 0
 166 67 171 68 173 68 c 0
 191 68 206 52 206 34 c 0
 206 9 190 -1 149 -1 c 0
EndSplineSet
Validated: 1
EndChar

StartChar: uni22B2
Encoding: 178 8882 178
Width: 409
VWidth: 0
Flags: W
HStem: -0 21G<309 345.5> 281 20G<341.5 361.5>
VStem: 317 67<73.5153 216.134>
LayerCount: 2
Fore
SplineSet
317 197 m 0
 317 204 317 210 317 217 c 1
 296 210 269 202 241 194 c 0
 196 181 147 166 114 153 c 1
 162 127 256 88 312 72 c 1
 315 104 317 157 317 197 c 0
346 301 m 0
 377 301 384 284 384 197 c 0
 384 123 380 55 375 32 c 0
 370 11 356 0 335 -0 c 2
 283 0 77 86 40 123 c 0
 30 133 25 144 25 156 c 0
 25 193 56 210 222 259 c 0
 288 279 305 283 322 291 c 0
 328 297 337 301 346 301 c 0
EndSplineSet
Validated: 1
EndChar

StartChar: uni22B3
Encoding: 179 8883 179
Width: 414
VWidth: 0
Flags: W
HStem: -1 21G<50.5 68> 280 20G<75.5 123.5>
VStem: 25 364<55 151>
LayerCount: 2
Fore
SplineSet
63 -1 m 0
 38 -1 25 18 25 55 c 0
 25 93 34 173 48 271 c 0
 51 289 65 300 86 300 c 0
 161 300 342 228 376 185 c 0
 385 174 389 162 389 151 c 0
 389 120 372 110 234 65 c 0
 139 34 100 18 88 9 c 0
 81 2 73 -1 63 -1 c 0
303 159 m 1
 262 184 172 217 110 229 c 1
 102 170 95 120 93 87 c 1
 127 101 172 115 214 129 c 0
 247 140 279 150 303 159 c 1
EndSplineSet
Validated: 1
EndChar

StartChar: uni22B4
Encoding: 180 8884 180
Width: 419
VWidth: 0
Flags: W
HStem: -83 63<323.503 383.374> 36 63<28.1243 86.9562>
VStem: 327 67<155.515 299>
LayerCount: 2
Fore
SplineSet
327 279 m 0
 327 286 327 292 327 299 c 1
 306 292 279 284 251 276 c 0
 206 263 158 248 125 235 c 1
 173 209 267 170 323 154 c 1
 326 186 327 239 327 279 c 0
356 383 m 0
 387 383 394 366 394 279 c 0
 394 205 390 137 385 114 c 0
 380 93 367 82 346 82 c 2
 294 82 87 168 50 205 c 0
 40 215 35 226 35 238 c 0
 35 275 67 292 233 341 c 0
 299 361 316 365 333 373 c 0
 339 379 347 383 356 383 c 0
25 66 m 0
 25 84 41 99 59 99 c 0
 64 99 68 98 73 96 c 0
 106 79 163 59 219 39 c 0
 276 18 334 -3 368 -20 c 0
 379 -26 387 -36 387 -49 c 0
 387 -67 371 -83 353 -83 c 0
 348 -83 343 -81 338 -79 c 0
 307 -64 251 -44 193 -23 c 0
 135 -2 75 20 43 36 c 0
 32 42 25 53 25 66 c 0
EndSplineSet
Validated: 1
EndChar

StartChar: uni22B5
Encoding: 181 8885 181
Width: 431
VWidth: 0
Flags: W
VStem: 25 364<138 234>
LayerCount: 2
Fore
SplineSet
63 82 m 0
 38 82 25 101 25 138 c 0
 25 176 34 256 48 354 c 0
 51 372 65 383 86 383 c 0
 161 383 342 311 376 268 c 0
 385 257 389 245 389 234 c 0
 389 203 372 193 234 148 c 0
 139 117 100 101 88 92 c 0
 81 85 73 82 63 82 c 0
303 242 m 1
 261 267 172 300 110 312 c 1
 102 252 95 203 93 170 c 1
 127 184 171 198 213 212 c 0
 246 223 279 233 303 242 c 1
61 -82 m 0
 43 -82 27 -66 27 -48 c 0
 27 -34 36 -22 49 -17 c 0
 367 99 367 100 373 100 c 0
 391 100 406 84 406 66 c 0
 406 52 397 40 384 35 c 0
 66 -81 67 -82 61 -82 c 0
EndSplineSet
Validated: 1
EndChar

StartChar: uni22B6
Encoding: 182 8886 182
Width: 561
Flags: W
HStem: 54 193<52.0996 143.863 394.022 486.662> 124 68<194.34 373.078> 180 67<94.0805 126.14>
VStem: 25 67<123.661 171>
LayerCount: 2
Fore
SplineSet
91 54 m 0x90
 50 54 25 92 25 153 c 0
 25 211 56 247 104 247 c 0x90
 143 247 179 220 190 182 c 1
 283 187 350 191 372 192 c 1x50
 383 227 410 247 446 247 c 0
 495 247 536 206 536 158 c 0
 536 108 482 54 433 54 c 0x90
 399 54 376 79 369 124 c 1x50
 279 120 211 117 182 115 c 1
 162 80 124 54 91 54 c 0x90
94 171 m 1
 94 168 l 2
 92 163 92 162 92 153 c 0
 92 142 93 132 96 123 c 1
 114 132 127 147 127 158 c 0
 127 169 116 180 104 180 c 0x30
 98 180 97 179 95 172 c 2
 94 171 l 1
EndSplineSet
Validated: 1
EndChar

StartChar: uni22B7
Encoding: 183 8887 183
Width: 561
Flags: W
HStem: 54 193<52.0996 143.863 394.022 486.662> 124 68<194.34 373.078> 180 67<435.806 468.53>
VStem: 469 67<130.012 178.73>
LayerCount: 2
Fore
SplineSet
436 171 m 1x30
 436 168 l 2
 434 163 434 162 434 153 c 0
 434 142 435 132 438 123 c 1
 456 132 469 147 469 158 c 0
 469 169 458 180 446 180 c 0
 440 180 439 179 437 172 c 2
 436 171 l 1x30
91 54 m 0x90
 50 54 25 92 25 153 c 0
 25 211 56 247 104 247 c 0x90
 143 247 179 220 190 182 c 1
 283 187 350 191 372 192 c 1x50
 383 227 410 247 446 247 c 0
 495 247 536 206 536 158 c 0
 536 108 482 54 433 54 c 0x90
 399 54 376 79 369 124 c 1x50
 279 120 211 117 182 115 c 1
 162 80 124 54 91 54 c 0x90
EndSplineSet
Validated: 1
EndChar

StartChar: uni22B8
Encoding: 184 8888 184
Width: 451
Flags: W
HStem: 124 57<59.6561 260.836> 180 67<325.806 358.53>
VStem: 359 67<130.012 178.73>
LayerCount: 2
Fore
SplineSet
262 192 m 1xa0
 273 227 300 247 336 247 c 0x60
 385 247 426 206 426 158 c 0
 426 108 372 54 323 54 c 0
 289 54 266 79 259 124 c 1
 149 119 72 115 59 114 c 0
 41 114 25 130 25 148 c 0
 25 166 39 180 57 181 c 0
 161 186 238 190 262 192 c 1xa0
326 171 m 1
 326 168 l 2
 324 163 324 162 324 153 c 0
 324 142 325 132 328 123 c 1
 346 132 359 147 359 158 c 0
 359 169 348 180 336 180 c 0
 330 180 329 179 327 172 c 2
 326 171 l 1
EndSplineSet
Validated: 1
EndChar

StartChar: uni22B9
Encoding: 185 8889 185
Width: 558
VWidth: 0
Flags: W
HStem: 103 67<314.095 499.196> 108 66<27.9501 214.745 361.499 499.196> 114 67<361.499 529.707>
VStem: 220 67<-80.5146 18.9204 21.3572 117.897> 227 67<-62.9733 100.306> 236 67<180.485 298.935> 244 67<198.596 363.376>
LayerCount: 2
Fore
SplineSet
236 211 m 0x04
 236 223 238 240 240 256 c 0
 242 272 244 288 244 300 c 0
 244 305 243 315 242 325 c 0
 241 335 241 344 241 349 c 0
 241 367 256 383 274 383 c 0
 291 383 306 370 308 353 c 0
 310 333 311 316 311 300 c 0x02
 311 277 311 272 303 207 c 0
 301 190 286 177 269 177 c 0
 251 177 236 193 236 211 c 0x04
58 108 m 0x50
 40 108 25 123 25 141 c 0
 25 159 40 174 58 174 c 0
 61 174 86 175 113 176 c 0
 147 177 186 179 187 179 c 0
 205 179 220 163 220 145 c 0
 220 127 205 112 187 112 c 0
 184 112 159 111 132 110 c 0
 98 109 59 108 58 108 c 0x50
360 103 m 0x82
 325 103 311 113 311 137 c 0
 311 155 326 171 344 171 c 0
 346 171 349 170 352 170 c 0
 355 170 358 170 360 170 c 0x82
 377 170 404 172 430 175 c 0
 456 178 483 181 500 181 c 0
 518 181 533 165 533 147 c 0
 533 129 520 115 502 114 c 0x22
 486 113 470 111 453 109 c 0
 423 106 392 103 360 103 c 0x82
227 20 m 0x08
 227 34 224 44 222 54 c 0
 220 64 217 75 217 89 c 0
 217 107 232 123 250 123 c 0
 265 123 278 113 282 99 c 0
 290 75 294 49 294 20 c 0x08
 294 -3 292 -28 287 -56 c 0
 284 -72 269 -84 253 -84 c 0
 235 -84 220 -68 220 -50 c 0x10
 220 -39 221 -27 223 -15 c 0
 225 -3 227 9 227 20 c 0x08
EndSplineSet
Validated: 1
EndChar

StartChar: uni22BA
Encoding: 186 8890 186
Width: 290
VWidth: 0
Flags: W
HStem: 231 66<27.9501 58 58.0022 110 174.751 231.875>
VStem: 96 67<-80.8757 229.612>
LayerCount: 2
Fore
SplineSet
110 232 m 1
 92 232 74 231 65 231 c 0
 61 231 58 230 58 230 c 0
 40 230 25 246 25 264 c 0
 25 282 40 297 58 297 c 0
 60 297 232 302 232 302 c 0
 250 302 265 286 265 268 c 0
 265 250 250 235 232 235 c 0
 212 234 195 233 177 233 c 1
 171 182 170 132 169 80 c 0
 168 39 167 -5 163 -53 c 0
 162 -70 147 -84 129 -84 c 0
 111 -84 96 -68 96 -50 c 0
 96 -49 96 -48 96 -47 c 0
 100 1 101 42 102 83 c 0
 103 133 104 181 110 232 c 1
EndSplineSet
Validated: 1
EndChar

StartChar: uni22BB
Encoding: 187 8891 187
Width: 372
VWidth: 0
Flags: W
HStem: -84 68<28.4854 343.515>
LayerCount: 2
Fore
SplineSet
40 316 m 0
 40 334 56 349 74 349 c 0
 85 349 95 344 101 335 c 0
 131 291 149 233 163 186 c 0
 170 163 175 142 182 127 c 1
 196 148 211 180 227 216 c 0
 245 255 264 298 285 333 c 0
 291 343 302 349 314 349 c 0
 332 349 347 334 347 316 c 0
 347 310 346 303 343 298 c 0
 324 266 306 227 289 190 c 0
 264 135 240 84 215 62 c 0
 204 52 193 48 180 48 c 0
 133 48 115 107 96 173 c 0
 83 216 69 263 46 296 c 0
 42 302 40 309 40 316 c 0
315 -83 m 0
 281 -83 234 -84 187 -84 c 0
 140 -84 93 -84 59 -84 c 0
 41 -84 25 -68 25 -50 c 0
 25 -32 39 -17 57 -17 c 0
 135 -16 232 -16 313 -16 c 0
 331 -16 347 -32 347 -50 c 0
 347 -68 333 -83 315 -83 c 0
EndSplineSet
Validated: 1
EndChar

StartChar: uni22BC
Encoding: 188 8892 188
Width: 372
VWidth: 0
Flags: W
HStem: 316 67<28.1243 343.515>
VStem: 280 64<-79.4126 -21.1868>
LayerCount: 2
Fore
SplineSet
70 -83 m 0
 52 -83 37 -67 37 -49 c 0
 37 -43 38 -38 41 -33 c 0
 62 2 82 45 101 84 c 0
 126 136 148 182 166 201 c 0
 176 212 188 218 200 218 c 0
 231 218 242 200 293 75 c 0
 317 16 328 -11 340 -35 c 0
 342 -40 344 -44 344 -49 c 0
 344 -67 328 -83 310 -83 c 0
 297 -83 286 -76 280 -64 c 0
 264 -31 246 13 230 53 c 0
 218 83 207 110 198 128 c 1
 188 109 176 84 163 57 c 0
 143 16 121 -30 99 -67 c 0
 93 -77 82 -83 70 -83 c 0
315 316 m 0
 281 316 234 316 187 316 c 0
 140 316 93 315 59 315 c 0
 41 315 25 331 25 349 c 0
 25 367 39 382 57 382 c 0
 135 383 232 383 313 383 c 0
 331 383 347 367 347 349 c 0
 347 331 333 316 315 316 c 0
EndSplineSet
Validated: 1
EndChar

StartChar: uni22BD
Encoding: 189 8893 189
Width: 372
VWidth: 0
Flags: W
HStem: 316 67<28.1243 343.515>
LayerCount: 2
Fore
SplineSet
34 218 m 0
 34 236 50 251 68 251 c 0
 79 251 89 246 95 237 c 0
 125 193 143 135 157 88 c 0
 164 65 169 44 176 29 c 1
 190 50 205 82 221 118 c 0
 239 157 258 200 279 235 c 0
 285 245 296 251 308 251 c 0
 326 251 342 236 342 218 c 0
 342 212 340 205 337 200 c 0
 318 168 300 130 283 93 c 0
 258 38 235 -14 210 -36 c 0
 199 -46 187 -50 174 -50 c 0
 127 -50 109 9 90 75 c 0
 77 118 64 165 41 198 c 0
 37 204 34 211 34 218 c 0
315 316 m 0
 281 316 234 316 187 316 c 0
 140 316 93 315 59 315 c 0
 41 315 25 331 25 349 c 0
 25 367 39 382 57 382 c 0
 135 383 232 383 313 383 c 0
 331 383 347 367 347 349 c 0
 347 331 333 316 315 316 c 0
EndSplineSet
Validated: 1
EndChar

StartChar: uni22BE
Encoding: 190 8894 190
Width: 307
VWidth: 0
Flags: W
HStem: 5 66<222.002 276.543> 130 67<110 161> 280 20G<71 91>
VStem: 47 67<194.575 297.05>
LayerCount: 2
Fore
SplineSet
155 71 m 1
 156 85 157 97 159 108 c 0
 160 115 160 122 161 130 c 1
 158 130 152 130 146 129 c 0
 132 128 112 126 100 126 c 1
 97 102 95 84 94 67 c 1
 133 70 143 70 155 71 c 1
66 -2 m 0
 41 -2 25 12 25 33 c 0
 25 65 30 106 36 146 c 0
 42 186 47 227 47 259 c 0
 47 260 47 261 47 263 c 0
 47 265 47 266 47 267 c 0
 47 285 62 300 80 300 c 0
 102 300 114 286 114 259 c 0
 114 240 113 219 110 193 c 1
 120 194 128 194 137 195 c 0
 149 196 160 197 170 197 c 0
 208 197 229 176 229 138 c 0
 229 127 227 115 225 103 c 0
 224 93 223 82 222 71 c 1
 264 68 282 57 282 33 c 0
 282 15 267 -1 249 -1 c 0
 235 -1 228 1 222 2 c 0
 216 3 210 5 196 5 c 0
 189 5 160 4 131 2 c 0
 102 0 73 -2 66 -2 c 0
EndSplineSet
Validated: 1
EndChar

StartChar: uni22BF
Encoding: 191 8895 191
Width: 372
VWidth: 0
Flags: W
HStem: -0 67<124 265.495>
VStem: 267 67<67.3129 202.708>
LayerCount: 2
Fore
SplineSet
306 302 m 0
 331 302 347 281 347 247 c 0
 347 224 343 195 340 166 c 0
 337 137 334 108 334 85 c 0
 334 75 335 68 336 61 c 0
 337 54 338 48 338 38 c 0
 338 7 320 0 242 -0 c 0
 198 0 132 2 57 5 c 0
 39 6 25 20 25 38 c 0
 25 75 201 249 286 296 c 0
 293 300 299 302 306 302 c 0
267 85 m 0
 267 114 267 114 277 207 c 1
 226 167 162 109 124 69 c 1
 172 67 212 67 242 67 c 0
 251 67 259 67 267 67 c 1
 267 72 267 79 267 85 c 0
EndSplineSet
Validated: 1
EndChar

StartChar: uni22C0
Encoding: 192 8896 192
Width: 540
VWidth: 0
Flags: W
HStem: -233 21G<49 60.5 473 491> 446 20G<287.5 303.5>
VStem: 448 67<-230.876 -47.7156>
LayerCount: 2
Fore
SplineSet
87 -218 m 0
 82 -218 78 -222 73 -226 c 0
 68 -230 63 -233 58 -233 c 0
 40 -233 25 -218 25 -200 c 0
 25 -192 31 -182 42 -163 c 0
 62 -128 101 -63 151 78 c 0
 181 163 206 248 241 381 c 0
 258 447 260 450 269 458 c 0
 276 464 283 466 292 466 c 0
 315 466 334 450 356 411 c 0
 429 283 515 -47 515 -200 c 0
 515 -218 500 -234 482 -234 c 0
 464 -234 449 -220 448 -202 c 0
 440 -39 382 197 316 341 c 0
 313 348 309 356 306 363 c 1
 231 78 165 -97 87 -218 c 0
EndSplineSet
Validated: 1
EndChar

StartChar: uni22C1
Encoding: 193 8897 193
Width: 588
VWidth: 0
Flags: W
HStem: -233 21G<216.5 233> 447 20G<50 66.5 523.5 539>
VStem: 25 65<381.268 463.404> 499 64<402.295 463.791>
LayerCount: 2
Fore
SplineSet
25 433 m 0
 25 451 41 467 59 467 c 0
 74 467 86 457 90 443 c 0
 119 351 150 234 212 -20 c 0
 219 -48 225 -75 231 -99 c 1
 246 -68 262 -37 304 46 c 0
 415 263 464 363 499 446 c 0
 504 458 517 467 530 467 c 0
 548 467 563 451 563 433 c 0
 563 409 462 209 376 39 c 0
 317 -77 265 -179 258 -201 c 1
 257 -219 242 -233 224 -233 c 0
 209 -233 197 -225 191 -210 c 0
 184 -193 168 -121 145 -28 c 0
 111 113 65 303 27 423 c 0
 26 426 25 430 25 433 c 0
EndSplineSet
Validated: 1
EndChar

StartChar: uni22C2
Encoding: 194 8898 194
Width: 503
VWidth: 0
Flags: W
HStem: -234 21G<50 67 436 454> 400 66<280.603 358.879>
VStem: 411 67<-230.876 307.123>
LayerCount: 2
Fore
SplineSet
312 466 m 0
 431 466 478 361 478 96 c 0
 478 63 478 28 477 -6 c 0
 476 -40 476 -76 476 -109 c 0
 476 -125 477 -139 477 -154 c 0
 477 -169 478 -184 478 -200 c 0
 478 -218 463 -234 445 -234 c 0
 427 -234 412 -220 411 -202 c 0
 410 -175 409 -145 409 -109 c 0
 409 -76 409 -40 410 -6 c 0
 411 28 411 63 411 96 c 0
 411 313 383 400 312 400 c 0
 282 400 242 341 206 244 c 0
 170 146 138 20 91 -207 c 0
 88 -223 75 -234 59 -234 c 0
 41 -234 25 -218 25 -200 c 0
 25 -198 26 -195 26 -193 c 0
 127 297 200 466 312 466 c 0
EndSplineSet
Validated: 1
EndChar

StartChar: uni22C3
Encoding: 195 8899 195
Width: 481
VWidth: 0
Flags: W
HStem: -234 68<145.773 259.2> 447 20G<51 69 410 428>
VStem: 27 67<-96.9681 463.876> 389 67<116.018 462.04>
LayerCount: 2
Fore
SplineSet
25 100 m 0
 25 103 26 162 27 221 c 0
 28 280 29 338 29 341 c 0
 29 357 28 372 28 387 c 0
 28 402 27 417 27 433 c 0
 27 451 42 467 60 467 c 0
 78 467 93 453 94 435 c 0
 95 407 96 376 96 341 c 0
 96 302 95 261 94 221 c 0
 93 181 92 139 92 100 c 0
 92 -96 121 -166 200 -166 c 0
 317 -166 389 22 389 327 c 0
 389 343 388 362 387 380 c 0
 386 398 386 417 386 433 c 0
 386 451 401 467 419 467 c 0
 437 467 452 453 453 435 c 0
 455 400 456 363 456 327 c 0
 456 -28 362 -234 200 -234 c 0
 75 -234 25 -138 25 100 c 0
EndSplineSet
Validated: 1
EndChar

StartChar: uni22C4
Encoding: 196 8900 196
Width: 284
VWidth: 0
Flags: W
HStem: -1 21G<140 152> 280 20G<150.5 163>
VStem: 25 234<139 168>
LayerCount: 2
Fore
SplineSet
153 203 m 1
 132 173 114 150 99 133 c 1
 107 120 118 106 131 92 c 1
 144 119 160 144 180 168 c 1
 170 179 161 192 153 203 c 1
128 285 m 2
 134 295 145 300 156 300 c 0
 170 300 183 291 188 278 c 0
 195 258 223 219 250 191 c 0
 256 185 259 177 259 168 c 0
 259 155 252 147 240 134 c 0
 228 121 211 102 194 69 c 0
 186 52 178 35 177 27 c 2
 174 11 160 -1 144 -1 c 0
 136 -1 129 2 123 7 c 0
 71 51 25 113 25 139 c 0
 25 148 28 157 35 163 c 0
 55 182 93 232 128 285 c 2
EndSplineSet
Validated: 1
EndChar

StartChar: dotmath
Encoding: 197 8901 197
Width: 118
Flags: W
HStem: 112 66<28.1243 89.8757>
VStem: 25 68<115.293 174.707>
LayerCount: 2
Fore
SplineSet
25 145 m 0
 25 163 41 178 59 178 c 0
 77 178 93 163 93 145 c 0
 93 127 77 112 59 112 c 0
 41 112 25 127 25 145 c 0
EndSplineSet
Validated: 1
EndChar

